M48
; DRILL file {KiCad (5.1.9)-1} date 02/16/21 18:15:22
; FORMAT={-:-/ absolute / inch / decimal}
; #@! TF.CreationDate,2021-02-16T18:15:22+01:00
; #@! TF.GenerationSoftware,Kicad,Pcbnew,(5.1.9)-1
FMAT,2
INCH
T1C0.0157
T2C0.0197
T3C0.0300
T4C0.0315
T5C0.0354
T6C0.0374
T7C0.0394
T8C0.0402
T9C0.0429
T10C0.0472
T11C0.0492
T12C0.0512
T13C0.0984
T14C0.1260
T15C0.0787
T16C0.1181
%
G90
G05
T1
X2.035Y-4.5638
X3.201Y-1.864
X3.319Y-2.432
X3.403Y-1.98
X3.431Y-2.188
X3.847Y-2.061
X6.423Y-5.016
X6.535Y-5.027
X6.831Y-1.51
X6.974Y-1.442
T2
X0.9055Y-1.0
X0.9055Y-5.7226
X0.9332Y-0.9332
X0.9332Y-1.0668
X0.9332Y-5.6557
X0.9332Y-5.7894
X1.0Y-0.9055
X1.0Y-1.0945
X1.0Y-5.6281
X1.0Y-5.817
X1.0668Y-0.9332
X1.0668Y-1.0668
X1.0668Y-5.6557
X1.0668Y-5.7894
X1.0945Y-1.0
X1.0945Y-5.7226
X4.311Y-1.0
X4.3387Y-0.9332
X4.3387Y-1.0668
X4.4055Y-0.9055
X4.4055Y-1.0945
X4.4723Y-0.9332
X4.4723Y-1.0668
X4.5Y-1.0
X7.7165Y-1.0
X7.7165Y-5.7226
X7.7442Y-0.9332
X7.7442Y-1.0668
X7.7442Y-5.6557
X7.7442Y-5.7894
X7.811Y-0.9055
X7.811Y-1.0945
X7.811Y-5.6281
X7.811Y-5.817
X7.8778Y-0.9332
X7.8778Y-1.0668
X7.8778Y-5.6557
X7.8778Y-5.7894
X7.9055Y-1.0
X7.9055Y-5.7226
T3
X6.52Y-4.4288
X6.62Y-4.4288
X6.72Y-4.4288
X6.82Y-4.4288
X6.92Y-4.4288
X7.02Y-4.4288
T4
X1.84Y-1.5888
X1.84Y-1.7888
X1.94Y-1.6888
X2.19Y-1.5388
X2.19Y-1.8388
X2.29Y-1.5388
X2.29Y-1.8388
X2.66Y-1.5588
X2.66Y-1.6588
X2.66Y-1.7588
X2.66Y-1.8588
X2.66Y-1.9588
X2.66Y-2.0588
X2.66Y-2.1588
X2.66Y-2.2588
X2.96Y-1.5588
X2.96Y-1.6588
X2.96Y-1.7588
X2.96Y-1.8588
X2.96Y-1.9588
X2.96Y-2.0588
X2.96Y-2.1588
X2.96Y-2.2588
X5.28Y-4.6588
X5.28Y-4.9588
X5.38Y-4.6588
X5.38Y-4.9588
X5.48Y-4.6588
X5.48Y-4.9588
X5.58Y-4.6588
X5.58Y-4.9588
X5.68Y-4.6588
X5.68Y-4.9588
X5.78Y-4.6588
X5.78Y-4.9588
X5.88Y-4.6588
X5.88Y-4.9588
X5.98Y-4.6588
X5.98Y-4.9588
T5
X2.191Y-2.1388
X2.291Y-2.1388
X5.8383Y-1.6938
X5.8383Y-2.1638
X5.9383Y-1.6938
X5.9383Y-2.1638
X6.4717Y-1.6938
X6.4717Y-2.1638
X6.5717Y-1.6938
X6.5717Y-2.1638
X7.105Y-1.6938
X7.205Y-1.6938
X7.3248Y-4.5288
X7.4248Y-4.5288
T6
X2.07Y-5.5434
X2.1684Y-5.5434
X2.2668Y-5.5434
X2.3652Y-5.5434
X2.6058Y-5.5434
X2.7043Y-5.5434
X2.8027Y-5.5434
X2.9011Y-5.5434
X3.1417Y-5.5434
X3.2402Y-5.5434
X3.3386Y-5.5434
X3.437Y-5.5434
T7
X2.3052Y-4.043
X2.4036Y-4.043
X2.502Y-4.043
X3.019Y-4.043
X3.1174Y-4.043
X3.2159Y-4.043
X3.6776Y-5.5434
X3.776Y-5.5434
X3.853Y-4.043
X3.9514Y-4.043
X4.0166Y-5.5434
X4.0498Y-4.043
X4.1151Y-5.5434
X4.3557Y-5.5434
X4.4541Y-5.5434
X4.8709Y-4.043
X4.9694Y-4.043
X5.0678Y-4.043
T8
X4.67Y-0.9775
X4.67Y-3.4775
X4.77Y-0.9775
X4.77Y-3.4775
X5.77Y-0.9775
X5.77Y-1.0775
X5.77Y-3.3775
X5.77Y-3.4775
X5.87Y-0.9775
X5.87Y-1.0775
X5.87Y-3.3775
X5.87Y-3.4775
X5.97Y-0.9775
X5.97Y-1.0775
X5.97Y-3.3775
X5.97Y-3.4775
X6.07Y-0.9775
X6.07Y-1.0775
X6.07Y-3.3775
X6.07Y-3.4775
X6.17Y-0.9775
X6.17Y-1.0775
X6.17Y-3.3775
X6.17Y-3.4775
X6.27Y-0.9775
X6.27Y-1.0775
X6.27Y-3.3775
X6.27Y-3.4775
X6.37Y-0.9775
X6.37Y-1.0775
X6.37Y-3.3775
X6.37Y-3.4775
X6.47Y-0.9775
X6.47Y-1.0775
X6.47Y-3.3775
X6.47Y-3.4775
X6.57Y-0.9775
X6.57Y-1.0775
X6.57Y-3.3775
X6.57Y-3.4775
X6.67Y-0.9775
X6.67Y-1.0775
X6.67Y-3.3775
X6.67Y-3.4775
X6.77Y-0.9775
X6.77Y-1.0775
X6.77Y-3.3775
X6.77Y-3.4775
X6.87Y-0.9775
X6.87Y-1.0775
X6.87Y-3.3775
X6.87Y-3.4775
X6.97Y-0.9775
X6.97Y-1.0775
X6.97Y-3.3775
X6.97Y-3.4775
X7.07Y-0.9775
X7.07Y-1.0775
X7.07Y-3.3775
X7.07Y-3.4775
X7.17Y-0.9775
X7.17Y-1.0775
X7.17Y-3.3775
X7.17Y-3.4775
X7.27Y-0.9775
X7.27Y-1.0775
X7.27Y-3.3775
X7.27Y-3.4775
X7.37Y-0.9775
X7.37Y-1.0775
X7.37Y-3.3775
X7.37Y-3.4775
X7.47Y-0.9775
X7.47Y-1.0775
X7.47Y-3.3775
X7.47Y-3.4775
X7.57Y-0.9775
X7.57Y-1.0775
X7.57Y-3.3775
X7.57Y-3.4775
T9
X5.2787Y-5.4001
X5.3332Y-5.5119
X5.3877Y-5.4001
X5.4422Y-5.5119
X5.4968Y-5.4001
X5.5513Y-5.5119
X5.6058Y-5.4001
X5.6604Y-5.5119
X5.7149Y-5.4001
X5.7694Y-5.5119
X5.8239Y-5.4001
X5.8785Y-5.5119
X5.933Y-5.4001
X5.9875Y-5.5119
X6.042Y-5.4001
X6.0966Y-5.5119
X6.1511Y-5.4001
X6.2056Y-5.5119
X6.2602Y-5.4001
X6.3147Y-5.5119
X6.3692Y-5.4001
X6.4237Y-5.5119
X6.4783Y-5.4001
X6.5328Y-5.5119
X6.5873Y-5.4001
X6.6419Y-5.5119
X6.6964Y-5.4001
X6.7509Y-5.5119
X6.8054Y-5.4001
X6.86Y-5.5119
X6.9145Y-5.4001
X6.969Y-5.5119
X7.0235Y-5.4001
X7.0781Y-5.5119
X7.1326Y-5.4001
X7.1871Y-5.5119
X7.2417Y-5.4001
T10
X1.5351Y-1.2488
X1.6351Y-1.2488
X1.7351Y-1.2488
X1.8351Y-1.2488
X1.9351Y-1.2488
X2.0351Y-1.2488
X2.1351Y-1.2488
X2.2351Y-1.2488
X2.3351Y-1.2488
X2.4351Y-1.2488
X2.5351Y-1.2488
X2.6351Y-1.2488
X2.7351Y-1.2488
X2.8351Y-1.2488
X2.9351Y-1.2488
X3.0351Y-1.2488
T11
X2.4036Y-2.8576
X2.4036Y-2.9836
X2.4036Y-3.1096
X3.1174Y-2.8576
X3.1174Y-2.9836
X3.1174Y-3.1096
X3.7624Y-2.9836
X3.8884Y-2.9836
X4.0144Y-2.9836
X4.1404Y-2.9836
X5.8673Y-3.6788
X5.8673Y-3.8048
X5.8673Y-3.9308
X6.5811Y-2.8576
X6.5811Y-2.9836
X6.5811Y-3.1096
X6.5811Y-3.6788
X6.5811Y-3.8048
X6.5811Y-3.9308
X7.295Y-2.8576
X7.295Y-2.9836
X7.295Y-3.1096
X7.375Y-3.6788
X7.375Y-3.8048
X7.375Y-3.9308
T12
X1.29Y-2.8852
X1.29Y-3.082
X1.29Y-3.7064
X1.29Y-3.9032
X1.29Y-4.5276
X1.29Y-4.7244
X1.29Y-5.3488
X1.29Y-5.5456
X1.7821Y-2.8852
X1.7821Y-3.082
X1.7821Y-3.7064
X1.7821Y-3.9032
X1.7821Y-4.5276
X1.7821Y-4.7244
X1.7821Y-5.3488
X1.7821Y-5.5456
X4.7237Y-2.8852
X4.7237Y-3.082
X5.2158Y-2.8852
X5.2158Y-3.082
T13
X1.3186Y-1.2488
X1.3186Y-2.4693
X4.2713Y-2.4693
X4.2713Y-1.2488
T14
X1.0Y-1.0
X1.0Y-5.7244
X4.4055Y-1.0
X5.0102Y-5.456
X7.5102Y-5.456
X7.811Y-1.0
X7.811Y-5.7226
T15
X2.2304Y-3.7674
X2.5768Y-3.7674
X2.9442Y-3.7674
X3.2907Y-3.7674
X3.7781Y-3.7674
X4.1246Y-3.7674
X4.7961Y-3.7674
X5.1426Y-3.7674
T16
X5.62Y-1.2775
X5.67Y-3.1775
X7.67Y-2.5775
T0
M30
