%TF.GenerationSoftware,KiCad,Pcbnew,(5.1.9)-1*%
%TF.CreationDate,2021-02-16T18:15:11+01:00*%
%TF.ProjectId,testbench_io,74657374-6265-46e6-9368-5f696f2e6b69,rev?*%
%TF.SameCoordinates,Original*%
%TF.FileFunction,Legend,Top*%
%TF.FilePolarity,Positive*%
%FSLAX46Y46*%
G04 Gerber Fmt 4.6, Leading zero omitted, Abs format (unit mm)*
G04 Created by KiCad (PCBNEW (5.1.9)-1) date 2021-02-16 18:15:11*
%MOMM*%
%LPD*%
G01*
G04 APERTURE LIST*
%ADD10C,0.150000*%
%TA.AperFunction,Profile*%
%ADD11C,0.050000*%
%TD*%
%ADD12C,0.120000*%
G04 APERTURE END LIST*
D10*
X124357000Y-69128380D02*
X124357000Y-68128380D01*
X124357000Y-68604571D02*
X124928428Y-68604571D01*
X124928428Y-69128380D02*
X124928428Y-68128380D01*
X125547476Y-69128380D02*
X125452238Y-69080761D01*
X125404619Y-69033142D01*
X125357000Y-68937904D01*
X125357000Y-68652190D01*
X125404619Y-68556952D01*
X125452238Y-68509333D01*
X125547476Y-68461714D01*
X125690333Y-68461714D01*
X125785571Y-68509333D01*
X125833190Y-68556952D01*
X125880809Y-68652190D01*
X125880809Y-68937904D01*
X125833190Y-69033142D01*
X125785571Y-69080761D01*
X125690333Y-69128380D01*
X125547476Y-69128380D01*
X126309380Y-69128380D02*
X126309380Y-68461714D01*
X126309380Y-68652190D02*
X126357000Y-68556952D01*
X126404619Y-68509333D01*
X126499857Y-68461714D01*
X126595095Y-68461714D01*
X126928428Y-68461714D02*
X126928428Y-69128380D01*
X126928428Y-68556952D02*
X126976047Y-68509333D01*
X127071285Y-68461714D01*
X127214142Y-68461714D01*
X127309380Y-68509333D01*
X127357000Y-68604571D01*
X127357000Y-69128380D01*
X83280333Y-78034380D02*
X83470809Y-78034380D01*
X83566047Y-78082000D01*
X83661285Y-78177238D01*
X83708904Y-78367714D01*
X83708904Y-78701047D01*
X83661285Y-78891523D01*
X83566047Y-78986761D01*
X83470809Y-79034380D01*
X83280333Y-79034380D01*
X83185095Y-78986761D01*
X83089857Y-78891523D01*
X83042238Y-78701047D01*
X83042238Y-78367714D01*
X83089857Y-78177238D01*
X83185095Y-78082000D01*
X83280333Y-78034380D01*
X83994619Y-78367714D02*
X84375571Y-78367714D01*
X84137476Y-79034380D02*
X84137476Y-78177238D01*
X84185095Y-78082000D01*
X84280333Y-78034380D01*
X84375571Y-78034380D01*
X84566047Y-78367714D02*
X84947000Y-78367714D01*
X84708904Y-79034380D02*
X84708904Y-78177238D01*
X84756523Y-78082000D01*
X84851761Y-78034380D01*
X84947000Y-78034380D01*
X83399380Y-72573380D02*
X83589857Y-72573380D01*
X83685095Y-72621000D01*
X83780333Y-72716238D01*
X83827952Y-72906714D01*
X83827952Y-73240047D01*
X83780333Y-73430523D01*
X83685095Y-73525761D01*
X83589857Y-73573380D01*
X83399380Y-73573380D01*
X83304142Y-73525761D01*
X83208904Y-73430523D01*
X83161285Y-73240047D01*
X83161285Y-72906714D01*
X83208904Y-72716238D01*
X83304142Y-72621000D01*
X83399380Y-72573380D01*
X84256523Y-72906714D02*
X84256523Y-73573380D01*
X84256523Y-73001952D02*
X84304142Y-72954333D01*
X84399380Y-72906714D01*
X84542238Y-72906714D01*
X84637476Y-72954333D01*
X84685095Y-73049571D01*
X84685095Y-73573380D01*
X65500333Y-77907380D02*
X65690809Y-77907380D01*
X65786047Y-77955000D01*
X65881285Y-78050238D01*
X65928904Y-78240714D01*
X65928904Y-78574047D01*
X65881285Y-78764523D01*
X65786047Y-78859761D01*
X65690809Y-78907380D01*
X65500333Y-78907380D01*
X65405095Y-78859761D01*
X65309857Y-78764523D01*
X65262238Y-78574047D01*
X65262238Y-78240714D01*
X65309857Y-78050238D01*
X65405095Y-77955000D01*
X65500333Y-77907380D01*
X66214619Y-78240714D02*
X66595571Y-78240714D01*
X66357476Y-78907380D02*
X66357476Y-78050238D01*
X66405095Y-77955000D01*
X66500333Y-77907380D01*
X66595571Y-77907380D01*
X66786047Y-78240714D02*
X67167000Y-78240714D01*
X66928904Y-78907380D02*
X66928904Y-78050238D01*
X66976523Y-77955000D01*
X67071761Y-77907380D01*
X67167000Y-77907380D01*
X65746380Y-72573380D02*
X65936857Y-72573380D01*
X66032095Y-72621000D01*
X66127333Y-72716238D01*
X66174952Y-72906714D01*
X66174952Y-73240047D01*
X66127333Y-73430523D01*
X66032095Y-73525761D01*
X65936857Y-73573380D01*
X65746380Y-73573380D01*
X65651142Y-73525761D01*
X65555904Y-73430523D01*
X65508285Y-73240047D01*
X65508285Y-72906714D01*
X65555904Y-72716238D01*
X65651142Y-72621000D01*
X65746380Y-72573380D01*
X66603523Y-72906714D02*
X66603523Y-73573380D01*
X66603523Y-73001952D02*
X66651142Y-72954333D01*
X66746380Y-72906714D01*
X66889238Y-72906714D01*
X66984476Y-72954333D01*
X67032095Y-73049571D01*
X67032095Y-73573380D01*
X59666333Y-69001380D02*
X59666333Y-68001380D01*
X59904428Y-68001380D01*
X60047285Y-68049000D01*
X60142523Y-68144238D01*
X60190142Y-68239476D01*
X60237761Y-68429952D01*
X60237761Y-68572809D01*
X60190142Y-68763285D01*
X60142523Y-68858523D01*
X60047285Y-68953761D01*
X59904428Y-69001380D01*
X59666333Y-69001380D01*
X61237761Y-69001380D02*
X60904428Y-68525190D01*
X60666333Y-69001380D02*
X60666333Y-68001380D01*
X61047285Y-68001380D01*
X61142523Y-68049000D01*
X61190142Y-68096619D01*
X61237761Y-68191857D01*
X61237761Y-68334714D01*
X61190142Y-68429952D01*
X61142523Y-68477571D01*
X61047285Y-68525190D01*
X60666333Y-68525190D01*
X62142523Y-69001380D02*
X61666333Y-69001380D01*
X61666333Y-68001380D01*
X74414666Y-68747380D02*
X74414666Y-67747380D01*
X74414666Y-68223571D02*
X74986095Y-68223571D01*
X74986095Y-68747380D02*
X74986095Y-67747380D01*
X75890857Y-68747380D02*
X75890857Y-68223571D01*
X75843238Y-68128333D01*
X75748000Y-68080714D01*
X75557523Y-68080714D01*
X75462285Y-68128333D01*
X75890857Y-68699761D02*
X75795619Y-68747380D01*
X75557523Y-68747380D01*
X75462285Y-68699761D01*
X75414666Y-68604523D01*
X75414666Y-68509285D01*
X75462285Y-68414047D01*
X75557523Y-68366428D01*
X75795619Y-68366428D01*
X75890857Y-68318809D01*
X76271809Y-68080714D02*
X76795619Y-68080714D01*
X76271809Y-68747380D01*
X76795619Y-68747380D01*
X77605142Y-68747380D02*
X77605142Y-68223571D01*
X77557523Y-68128333D01*
X77462285Y-68080714D01*
X77271809Y-68080714D01*
X77176571Y-68128333D01*
X77605142Y-68699761D02*
X77509904Y-68747380D01*
X77271809Y-68747380D01*
X77176571Y-68699761D01*
X77128952Y-68604523D01*
X77128952Y-68509285D01*
X77176571Y-68414047D01*
X77271809Y-68366428D01*
X77509904Y-68366428D01*
X77605142Y-68318809D01*
X78081333Y-68747380D02*
X78081333Y-68080714D01*
X78081333Y-68271190D02*
X78128952Y-68175952D01*
X78176571Y-68128333D01*
X78271809Y-68080714D01*
X78367047Y-68080714D01*
X79128952Y-68747380D02*
X79128952Y-67747380D01*
X79128952Y-68699761D02*
X79033714Y-68747380D01*
X78843238Y-68747380D01*
X78748000Y-68699761D01*
X78700380Y-68652142D01*
X78652761Y-68556904D01*
X78652761Y-68271190D01*
X78700380Y-68175952D01*
X78748000Y-68128333D01*
X78843238Y-68080714D01*
X79033714Y-68080714D01*
X79128952Y-68128333D01*
X80509904Y-68747380D02*
X80414666Y-68699761D01*
X80367047Y-68604523D01*
X80367047Y-67747380D01*
X80890857Y-68747380D02*
X80890857Y-68080714D01*
X80890857Y-67747380D02*
X80843238Y-67795000D01*
X80890857Y-67842619D01*
X80938476Y-67795000D01*
X80890857Y-67747380D01*
X80890857Y-67842619D01*
X81795619Y-68080714D02*
X81795619Y-68890238D01*
X81748000Y-68985476D01*
X81700380Y-69033095D01*
X81605142Y-69080714D01*
X81462285Y-69080714D01*
X81367047Y-69033095D01*
X81795619Y-68699761D02*
X81700380Y-68747380D01*
X81509904Y-68747380D01*
X81414666Y-68699761D01*
X81367047Y-68652142D01*
X81319428Y-68556904D01*
X81319428Y-68271190D01*
X81367047Y-68175952D01*
X81414666Y-68128333D01*
X81509904Y-68080714D01*
X81700380Y-68080714D01*
X81795619Y-68128333D01*
X82271809Y-68747380D02*
X82271809Y-67747380D01*
X82700380Y-68747380D02*
X82700380Y-68223571D01*
X82652761Y-68128333D01*
X82557523Y-68080714D01*
X82414666Y-68080714D01*
X82319428Y-68128333D01*
X82271809Y-68175952D01*
X83033714Y-68080714D02*
X83414666Y-68080714D01*
X83176571Y-67747380D02*
X83176571Y-68604523D01*
X83224190Y-68699761D01*
X83319428Y-68747380D01*
X83414666Y-68747380D01*
X83700380Y-68699761D02*
X83795619Y-68747380D01*
X83986095Y-68747380D01*
X84081333Y-68699761D01*
X84128952Y-68604523D01*
X84128952Y-68556904D01*
X84081333Y-68461666D01*
X83986095Y-68414047D01*
X83843238Y-68414047D01*
X83748000Y-68366428D01*
X83700380Y-68271190D01*
X83700380Y-68223571D01*
X83748000Y-68128333D01*
X83843238Y-68080714D01*
X83986095Y-68080714D01*
X84081333Y-68128333D01*
X95266523Y-70668380D02*
X95837952Y-70668380D01*
X95552238Y-71668380D02*
X95552238Y-70668380D01*
X96599857Y-71001714D02*
X96599857Y-71668380D01*
X96171285Y-71001714D02*
X96171285Y-71525523D01*
X96218904Y-71620761D01*
X96314142Y-71668380D01*
X96457000Y-71668380D01*
X96552238Y-71620761D01*
X96599857Y-71573142D01*
X97076047Y-71668380D02*
X97076047Y-71001714D01*
X97076047Y-71192190D02*
X97123666Y-71096952D01*
X97171285Y-71049333D01*
X97266523Y-71001714D01*
X97361761Y-71001714D01*
X97695095Y-71001714D02*
X97695095Y-71668380D01*
X97695095Y-71096952D02*
X97742714Y-71049333D01*
X97837952Y-71001714D01*
X97980809Y-71001714D01*
X98076047Y-71049333D01*
X98123666Y-71144571D01*
X98123666Y-71668380D01*
X99361761Y-71668380D02*
X99361761Y-71001714D01*
X99361761Y-70668380D02*
X99314142Y-70716000D01*
X99361761Y-70763619D01*
X99409380Y-70716000D01*
X99361761Y-70668380D01*
X99361761Y-70763619D01*
X99837952Y-71001714D02*
X99837952Y-71668380D01*
X99837952Y-71096952D02*
X99885571Y-71049333D01*
X99980809Y-71001714D01*
X100123666Y-71001714D01*
X100218904Y-71049333D01*
X100266523Y-71144571D01*
X100266523Y-71668380D01*
X101171285Y-71668380D02*
X101171285Y-70668380D01*
X101171285Y-71620761D02*
X101076047Y-71668380D01*
X100885571Y-71668380D01*
X100790333Y-71620761D01*
X100742714Y-71573142D01*
X100695095Y-71477904D01*
X100695095Y-71192190D01*
X100742714Y-71096952D01*
X100790333Y-71049333D01*
X100885571Y-71001714D01*
X101076047Y-71001714D01*
X101171285Y-71049333D01*
X101647476Y-71668380D02*
X101647476Y-71001714D01*
X101647476Y-70668380D02*
X101599857Y-70716000D01*
X101647476Y-70763619D01*
X101695095Y-70716000D01*
X101647476Y-70668380D01*
X101647476Y-70763619D01*
X102552238Y-71620761D02*
X102457000Y-71668380D01*
X102266523Y-71668380D01*
X102171285Y-71620761D01*
X102123666Y-71573142D01*
X102076047Y-71477904D01*
X102076047Y-71192190D01*
X102123666Y-71096952D01*
X102171285Y-71049333D01*
X102266523Y-71001714D01*
X102457000Y-71001714D01*
X102552238Y-71049333D01*
X103409380Y-71668380D02*
X103409380Y-71144571D01*
X103361761Y-71049333D01*
X103266523Y-71001714D01*
X103076047Y-71001714D01*
X102980809Y-71049333D01*
X103409380Y-71620761D02*
X103314142Y-71668380D01*
X103076047Y-71668380D01*
X102980809Y-71620761D01*
X102933190Y-71525523D01*
X102933190Y-71430285D01*
X102980809Y-71335047D01*
X103076047Y-71287428D01*
X103314142Y-71287428D01*
X103409380Y-71239809D01*
X103742714Y-71001714D02*
X104123666Y-71001714D01*
X103885571Y-70668380D02*
X103885571Y-71525523D01*
X103933190Y-71620761D01*
X104028428Y-71668380D01*
X104123666Y-71668380D01*
X104599857Y-71668380D02*
X104504619Y-71620761D01*
X104457000Y-71573142D01*
X104409380Y-71477904D01*
X104409380Y-71192190D01*
X104457000Y-71096952D01*
X104504619Y-71049333D01*
X104599857Y-71001714D01*
X104742714Y-71001714D01*
X104837952Y-71049333D01*
X104885571Y-71096952D01*
X104933190Y-71192190D01*
X104933190Y-71477904D01*
X104885571Y-71573142D01*
X104837952Y-71620761D01*
X104742714Y-71668380D01*
X104599857Y-71668380D01*
X105361761Y-71668380D02*
X105361761Y-71001714D01*
X105361761Y-71192190D02*
X105409380Y-71096952D01*
X105457000Y-71049333D01*
X105552238Y-71001714D01*
X105647476Y-71001714D01*
X108100952Y-76367380D02*
X107767619Y-75891190D01*
X107529523Y-76367380D02*
X107529523Y-75367380D01*
X107910476Y-75367380D01*
X108005714Y-75415000D01*
X108053333Y-75462619D01*
X108100952Y-75557857D01*
X108100952Y-75700714D01*
X108053333Y-75795952D01*
X108005714Y-75843571D01*
X107910476Y-75891190D01*
X107529523Y-75891190D01*
X108529523Y-76367380D02*
X108529523Y-75700714D01*
X108529523Y-75367380D02*
X108481904Y-75415000D01*
X108529523Y-75462619D01*
X108577142Y-75415000D01*
X108529523Y-75367380D01*
X108529523Y-75462619D01*
X109434285Y-75700714D02*
X109434285Y-76510238D01*
X109386666Y-76605476D01*
X109339047Y-76653095D01*
X109243809Y-76700714D01*
X109100952Y-76700714D01*
X109005714Y-76653095D01*
X109434285Y-76319761D02*
X109339047Y-76367380D01*
X109148571Y-76367380D01*
X109053333Y-76319761D01*
X109005714Y-76272142D01*
X108958095Y-76176904D01*
X108958095Y-75891190D01*
X109005714Y-75795952D01*
X109053333Y-75748333D01*
X109148571Y-75700714D01*
X109339047Y-75700714D01*
X109434285Y-75748333D01*
X109910476Y-76367380D02*
X109910476Y-75367380D01*
X110339047Y-76367380D02*
X110339047Y-75843571D01*
X110291428Y-75748333D01*
X110196190Y-75700714D01*
X110053333Y-75700714D01*
X109958095Y-75748333D01*
X109910476Y-75795952D01*
X110672380Y-75700714D02*
X111053333Y-75700714D01*
X110815238Y-75367380D02*
X110815238Y-76224523D01*
X110862857Y-76319761D01*
X110958095Y-76367380D01*
X111053333Y-76367380D01*
X89606523Y-76113380D02*
X89130333Y-76113380D01*
X89130333Y-75113380D01*
X90320809Y-76065761D02*
X90225571Y-76113380D01*
X90035095Y-76113380D01*
X89939857Y-76065761D01*
X89892238Y-75970523D01*
X89892238Y-75589571D01*
X89939857Y-75494333D01*
X90035095Y-75446714D01*
X90225571Y-75446714D01*
X90320809Y-75494333D01*
X90368428Y-75589571D01*
X90368428Y-75684809D01*
X89892238Y-75780047D01*
X90654142Y-75446714D02*
X91035095Y-75446714D01*
X90797000Y-76113380D02*
X90797000Y-75256238D01*
X90844619Y-75161000D01*
X90939857Y-75113380D01*
X91035095Y-75113380D01*
X91225571Y-75446714D02*
X91606523Y-75446714D01*
X91368428Y-75113380D02*
X91368428Y-75970523D01*
X91416047Y-76065761D01*
X91511285Y-76113380D01*
X91606523Y-76113380D01*
X35139761Y-69128380D02*
X35139761Y-68128380D01*
X35473095Y-68842666D01*
X35806428Y-68128380D01*
X35806428Y-69128380D01*
X36854047Y-69033142D02*
X36806428Y-69080761D01*
X36663571Y-69128380D01*
X36568333Y-69128380D01*
X36425476Y-69080761D01*
X36330238Y-68985523D01*
X36282619Y-68890285D01*
X36235000Y-68699809D01*
X36235000Y-68556952D01*
X36282619Y-68366476D01*
X36330238Y-68271238D01*
X36425476Y-68176000D01*
X36568333Y-68128380D01*
X36663571Y-68128380D01*
X36806428Y-68176000D01*
X36854047Y-68223619D01*
X37282619Y-68128380D02*
X37282619Y-68937904D01*
X37330238Y-69033142D01*
X37377857Y-69080761D01*
X37473095Y-69128380D01*
X37663571Y-69128380D01*
X37758809Y-69080761D01*
X37806428Y-69033142D01*
X37854047Y-68937904D01*
X37854047Y-68128380D01*
X39092142Y-69128380D02*
X39092142Y-68461714D01*
X39092142Y-68652190D02*
X39139761Y-68556952D01*
X39187380Y-68509333D01*
X39282619Y-68461714D01*
X39377857Y-68461714D01*
X40092142Y-69080761D02*
X39996904Y-69128380D01*
X39806428Y-69128380D01*
X39711190Y-69080761D01*
X39663571Y-68985523D01*
X39663571Y-68604571D01*
X39711190Y-68509333D01*
X39806428Y-68461714D01*
X39996904Y-68461714D01*
X40092142Y-68509333D01*
X40139761Y-68604571D01*
X40139761Y-68699809D01*
X39663571Y-68795047D01*
X40520714Y-69080761D02*
X40615952Y-69128380D01*
X40806428Y-69128380D01*
X40901666Y-69080761D01*
X40949285Y-68985523D01*
X40949285Y-68937904D01*
X40901666Y-68842666D01*
X40806428Y-68795047D01*
X40663571Y-68795047D01*
X40568333Y-68747428D01*
X40520714Y-68652190D01*
X40520714Y-68604571D01*
X40568333Y-68509333D01*
X40663571Y-68461714D01*
X40806428Y-68461714D01*
X40901666Y-68509333D01*
X41758809Y-69080761D02*
X41663571Y-69128380D01*
X41473095Y-69128380D01*
X41377857Y-69080761D01*
X41330238Y-68985523D01*
X41330238Y-68604571D01*
X41377857Y-68509333D01*
X41473095Y-68461714D01*
X41663571Y-68461714D01*
X41758809Y-68509333D01*
X41806428Y-68604571D01*
X41806428Y-68699809D01*
X41330238Y-68795047D01*
X42092142Y-68461714D02*
X42473095Y-68461714D01*
X42235000Y-68128380D02*
X42235000Y-68985523D01*
X42282619Y-69080761D01*
X42377857Y-69128380D01*
X42473095Y-69128380D01*
X38250904Y-88829380D02*
X38250904Y-89638904D01*
X38298523Y-89734142D01*
X38346142Y-89781761D01*
X38441380Y-89829380D01*
X38631857Y-89829380D01*
X38727095Y-89781761D01*
X38774714Y-89734142D01*
X38822333Y-89638904D01*
X38822333Y-88829380D01*
X39298523Y-89162714D02*
X39298523Y-90162714D01*
X39298523Y-89210333D02*
X39393761Y-89162714D01*
X39584238Y-89162714D01*
X39679476Y-89210333D01*
X39727095Y-89257952D01*
X39774714Y-89353190D01*
X39774714Y-89638904D01*
X39727095Y-89734142D01*
X39679476Y-89781761D01*
X39584238Y-89829380D01*
X39393761Y-89829380D01*
X39298523Y-89781761D01*
X36615952Y-110863761D02*
X36758809Y-110911380D01*
X36996904Y-110911380D01*
X37092142Y-110863761D01*
X37139761Y-110816142D01*
X37187380Y-110720904D01*
X37187380Y-110625666D01*
X37139761Y-110530428D01*
X37092142Y-110482809D01*
X36996904Y-110435190D01*
X36806428Y-110387571D01*
X36711190Y-110339952D01*
X36663571Y-110292333D01*
X36615952Y-110197095D01*
X36615952Y-110101857D01*
X36663571Y-110006619D01*
X36711190Y-109959000D01*
X36806428Y-109911380D01*
X37044523Y-109911380D01*
X37187380Y-109959000D01*
X37996904Y-110863761D02*
X37901666Y-110911380D01*
X37711190Y-110911380D01*
X37615952Y-110863761D01*
X37568333Y-110768523D01*
X37568333Y-110387571D01*
X37615952Y-110292333D01*
X37711190Y-110244714D01*
X37901666Y-110244714D01*
X37996904Y-110292333D01*
X38044523Y-110387571D01*
X38044523Y-110482809D01*
X37568333Y-110578047D01*
X38615952Y-110911380D02*
X38520714Y-110863761D01*
X38473095Y-110768523D01*
X38473095Y-109911380D01*
X39377857Y-110863761D02*
X39282619Y-110911380D01*
X39092142Y-110911380D01*
X38996904Y-110863761D01*
X38949285Y-110768523D01*
X38949285Y-110387571D01*
X38996904Y-110292333D01*
X39092142Y-110244714D01*
X39282619Y-110244714D01*
X39377857Y-110292333D01*
X39425476Y-110387571D01*
X39425476Y-110482809D01*
X38949285Y-110578047D01*
X40282619Y-110863761D02*
X40187380Y-110911380D01*
X39996904Y-110911380D01*
X39901666Y-110863761D01*
X39854047Y-110816142D01*
X39806428Y-110720904D01*
X39806428Y-110435190D01*
X39854047Y-110339952D01*
X39901666Y-110292333D01*
X39996904Y-110244714D01*
X40187380Y-110244714D01*
X40282619Y-110292333D01*
X40568333Y-110244714D02*
X40949285Y-110244714D01*
X40711190Y-109911380D02*
X40711190Y-110768523D01*
X40758809Y-110863761D01*
X40854047Y-110911380D01*
X40949285Y-110911380D01*
X37171523Y-131612380D02*
X37171523Y-130612380D01*
X37409619Y-130612380D01*
X37552476Y-130660000D01*
X37647714Y-130755238D01*
X37695333Y-130850476D01*
X37742952Y-131040952D01*
X37742952Y-131183809D01*
X37695333Y-131374285D01*
X37647714Y-131469523D01*
X37552476Y-131564761D01*
X37409619Y-131612380D01*
X37171523Y-131612380D01*
X38314380Y-131612380D02*
X38219142Y-131564761D01*
X38171523Y-131517142D01*
X38123904Y-131421904D01*
X38123904Y-131136190D01*
X38171523Y-131040952D01*
X38219142Y-130993333D01*
X38314380Y-130945714D01*
X38457238Y-130945714D01*
X38552476Y-130993333D01*
X38600095Y-131040952D01*
X38647714Y-131136190D01*
X38647714Y-131421904D01*
X38600095Y-131517142D01*
X38552476Y-131564761D01*
X38457238Y-131612380D01*
X38314380Y-131612380D01*
X38981047Y-130945714D02*
X39171523Y-131612380D01*
X39362000Y-131136190D01*
X39552476Y-131612380D01*
X39742952Y-130945714D01*
X40123904Y-130945714D02*
X40123904Y-131612380D01*
X40123904Y-131040952D02*
X40171523Y-130993333D01*
X40266761Y-130945714D01*
X40409619Y-130945714D01*
X40504857Y-130993333D01*
X40552476Y-131088571D01*
X40552476Y-131612380D01*
X53213952Y-88670571D02*
X53356809Y-88718190D01*
X53404428Y-88765809D01*
X53452047Y-88861047D01*
X53452047Y-89003904D01*
X53404428Y-89099142D01*
X53356809Y-89146761D01*
X53261571Y-89194380D01*
X52880619Y-89194380D01*
X52880619Y-88194380D01*
X53213952Y-88194380D01*
X53309190Y-88242000D01*
X53356809Y-88289619D01*
X53404428Y-88384857D01*
X53404428Y-88480095D01*
X53356809Y-88575333D01*
X53309190Y-88622952D01*
X53213952Y-88670571D01*
X52880619Y-88670571D01*
X54309190Y-89194380D02*
X54309190Y-88670571D01*
X54261571Y-88575333D01*
X54166333Y-88527714D01*
X53975857Y-88527714D01*
X53880619Y-88575333D01*
X54309190Y-89146761D02*
X54213952Y-89194380D01*
X53975857Y-89194380D01*
X53880619Y-89146761D01*
X53833000Y-89051523D01*
X53833000Y-88956285D01*
X53880619Y-88861047D01*
X53975857Y-88813428D01*
X54213952Y-88813428D01*
X54309190Y-88765809D01*
X54642523Y-88527714D02*
X55023476Y-88527714D01*
X54785380Y-88194380D02*
X54785380Y-89051523D01*
X54833000Y-89146761D01*
X54928238Y-89194380D01*
X55023476Y-89194380D01*
X55213952Y-88527714D02*
X55594904Y-88527714D01*
X55356809Y-88194380D02*
X55356809Y-89051523D01*
X55404428Y-89146761D01*
X55499666Y-89194380D01*
X55594904Y-89194380D01*
X56309190Y-89146761D02*
X56213952Y-89194380D01*
X56023476Y-89194380D01*
X55928238Y-89146761D01*
X55880619Y-89051523D01*
X55880619Y-88670571D01*
X55928238Y-88575333D01*
X56023476Y-88527714D01*
X56213952Y-88527714D01*
X56309190Y-88575333D01*
X56356809Y-88670571D01*
X56356809Y-88765809D01*
X55880619Y-88861047D01*
X56785380Y-89194380D02*
X56785380Y-88527714D01*
X56785380Y-88718190D02*
X56832999Y-88622952D01*
X56880619Y-88575333D01*
X56975857Y-88527714D01*
X57071095Y-88527714D01*
X57309190Y-88527714D02*
X57547285Y-89194380D01*
X57785380Y-88527714D02*
X57547285Y-89194380D01*
X57452047Y-89432476D01*
X57404428Y-89480095D01*
X57309190Y-89527714D01*
X58928238Y-88527714D02*
X58928238Y-89527714D01*
X58928238Y-88575333D02*
X59023476Y-88527714D01*
X59213952Y-88527714D01*
X59309190Y-88575333D01*
X59356809Y-88622952D01*
X59404428Y-88718190D01*
X59404428Y-89003904D01*
X59356809Y-89099142D01*
X59309190Y-89146761D01*
X59213952Y-89194380D01*
X59023476Y-89194380D01*
X58928238Y-89146761D01*
X59975857Y-89194380D02*
X59880619Y-89146761D01*
X59833000Y-89099142D01*
X59785380Y-89003904D01*
X59785380Y-88718190D01*
X59833000Y-88622952D01*
X59880619Y-88575333D01*
X59975857Y-88527714D01*
X60118714Y-88527714D01*
X60213952Y-88575333D01*
X60261571Y-88622952D01*
X60309190Y-88718190D01*
X60309190Y-89003904D01*
X60261571Y-89099142D01*
X60213952Y-89146761D01*
X60118714Y-89194380D01*
X59975857Y-89194380D01*
X60594904Y-88527714D02*
X60975857Y-88527714D01*
X60737761Y-88194380D02*
X60737761Y-89051523D01*
X60785380Y-89146761D01*
X60880619Y-89194380D01*
X60975857Y-89194380D01*
X61690142Y-89146761D02*
X61594904Y-89194380D01*
X61404428Y-89194380D01*
X61309190Y-89146761D01*
X61261571Y-89051523D01*
X61261571Y-88670571D01*
X61309190Y-88575333D01*
X61404428Y-88527714D01*
X61594904Y-88527714D01*
X61690142Y-88575333D01*
X61737761Y-88670571D01*
X61737761Y-88765809D01*
X61261571Y-88861047D01*
X62166333Y-88527714D02*
X62166333Y-89194380D01*
X62166333Y-88622952D02*
X62213952Y-88575333D01*
X62309190Y-88527714D01*
X62452047Y-88527714D01*
X62547285Y-88575333D01*
X62594904Y-88670571D01*
X62594904Y-89194380D01*
X62928238Y-88527714D02*
X63309190Y-88527714D01*
X63071095Y-88194380D02*
X63071095Y-89051523D01*
X63118714Y-89146761D01*
X63213952Y-89194380D01*
X63309190Y-89194380D01*
X63642523Y-89194380D02*
X63642523Y-88527714D01*
X63642523Y-88194380D02*
X63594904Y-88242000D01*
X63642523Y-88289619D01*
X63690142Y-88242000D01*
X63642523Y-88194380D01*
X63642523Y-88289619D01*
X64261571Y-89194380D02*
X64166333Y-89146761D01*
X64118714Y-89099142D01*
X64071095Y-89003904D01*
X64071095Y-88718190D01*
X64118714Y-88622952D01*
X64166333Y-88575333D01*
X64261571Y-88527714D01*
X64404428Y-88527714D01*
X64499666Y-88575333D01*
X64547285Y-88622952D01*
X64594904Y-88718190D01*
X64594904Y-89003904D01*
X64547285Y-89099142D01*
X64499666Y-89146761D01*
X64404428Y-89194380D01*
X64261571Y-89194380D01*
X65023476Y-89194380D02*
X65023476Y-88527714D01*
X65023476Y-88622952D02*
X65071095Y-88575333D01*
X65166333Y-88527714D01*
X65309190Y-88527714D01*
X65404428Y-88575333D01*
X65452047Y-88670571D01*
X65452047Y-89194380D01*
X65452047Y-88670571D02*
X65499666Y-88575333D01*
X65594904Y-88527714D01*
X65737761Y-88527714D01*
X65832999Y-88575333D01*
X65880619Y-88670571D01*
X65880619Y-89194380D01*
X66737761Y-89146761D02*
X66642523Y-89194380D01*
X66452047Y-89194380D01*
X66356809Y-89146761D01*
X66309190Y-89051523D01*
X66309190Y-88670571D01*
X66356809Y-88575333D01*
X66452047Y-88527714D01*
X66642523Y-88527714D01*
X66737761Y-88575333D01*
X66785380Y-88670571D01*
X66785380Y-88765809D01*
X66309190Y-88861047D01*
X67071095Y-88527714D02*
X67452047Y-88527714D01*
X67213952Y-88194380D02*
X67213952Y-89051523D01*
X67261571Y-89146761D01*
X67356809Y-89194380D01*
X67452047Y-89194380D01*
X68166333Y-89146761D02*
X68071095Y-89194380D01*
X67880619Y-89194380D01*
X67785380Y-89146761D01*
X67737761Y-89051523D01*
X67737761Y-88670571D01*
X67785380Y-88575333D01*
X67880619Y-88527714D01*
X68071095Y-88527714D01*
X68166333Y-88575333D01*
X68213952Y-88670571D01*
X68213952Y-88765809D01*
X67737761Y-88861047D01*
X68642523Y-89194380D02*
X68642523Y-88527714D01*
X68642523Y-88718190D02*
X68690142Y-88622952D01*
X68737761Y-88575333D01*
X68833000Y-88527714D01*
X68928238Y-88527714D01*
X72938476Y-88543571D02*
X72605142Y-88543571D01*
X72605142Y-89067380D02*
X72605142Y-88067380D01*
X73081333Y-88067380D01*
X73890857Y-89067380D02*
X73890857Y-88543571D01*
X73843238Y-88448333D01*
X73748000Y-88400714D01*
X73557523Y-88400714D01*
X73462285Y-88448333D01*
X73890857Y-89019761D02*
X73795619Y-89067380D01*
X73557523Y-89067380D01*
X73462285Y-89019761D01*
X73414666Y-88924523D01*
X73414666Y-88829285D01*
X73462285Y-88734047D01*
X73557523Y-88686428D01*
X73795619Y-88686428D01*
X73890857Y-88638809D01*
X74367047Y-88400714D02*
X74367047Y-89067380D01*
X74367047Y-88495952D02*
X74414666Y-88448333D01*
X74509904Y-88400714D01*
X74652761Y-88400714D01*
X74748000Y-88448333D01*
X74795619Y-88543571D01*
X74795619Y-89067380D01*
X76033714Y-88400714D02*
X76033714Y-89400714D01*
X76033714Y-88448333D02*
X76128952Y-88400714D01*
X76319428Y-88400714D01*
X76414666Y-88448333D01*
X76462285Y-88495952D01*
X76509904Y-88591190D01*
X76509904Y-88876904D01*
X76462285Y-88972142D01*
X76414666Y-89019761D01*
X76319428Y-89067380D01*
X76128952Y-89067380D01*
X76033714Y-89019761D01*
X77081333Y-89067380D02*
X76986095Y-89019761D01*
X76938476Y-88972142D01*
X76890857Y-88876904D01*
X76890857Y-88591190D01*
X76938476Y-88495952D01*
X76986095Y-88448333D01*
X77081333Y-88400714D01*
X77224190Y-88400714D01*
X77319428Y-88448333D01*
X77367047Y-88495952D01*
X77414666Y-88591190D01*
X77414666Y-88876904D01*
X77367047Y-88972142D01*
X77319428Y-89019761D01*
X77224190Y-89067380D01*
X77081333Y-89067380D01*
X77700380Y-88400714D02*
X78081333Y-88400714D01*
X77843238Y-88067380D02*
X77843238Y-88924523D01*
X77890857Y-89019761D01*
X77986095Y-89067380D01*
X78081333Y-89067380D01*
X78795619Y-89019761D02*
X78700380Y-89067380D01*
X78509904Y-89067380D01*
X78414666Y-89019761D01*
X78367047Y-88924523D01*
X78367047Y-88543571D01*
X78414666Y-88448333D01*
X78509904Y-88400714D01*
X78700380Y-88400714D01*
X78795619Y-88448333D01*
X78843238Y-88543571D01*
X78843238Y-88638809D01*
X78367047Y-88734047D01*
X79271809Y-88400714D02*
X79271809Y-89067380D01*
X79271809Y-88495952D02*
X79319428Y-88448333D01*
X79414666Y-88400714D01*
X79557523Y-88400714D01*
X79652761Y-88448333D01*
X79700380Y-88543571D01*
X79700380Y-89067380D01*
X80033714Y-88400714D02*
X80414666Y-88400714D01*
X80176571Y-88067380D02*
X80176571Y-88924523D01*
X80224190Y-89019761D01*
X80319428Y-89067380D01*
X80414666Y-89067380D01*
X80748000Y-89067380D02*
X80748000Y-88400714D01*
X80748000Y-88067380D02*
X80700380Y-88115000D01*
X80748000Y-88162619D01*
X80795619Y-88115000D01*
X80748000Y-88067380D01*
X80748000Y-88162619D01*
X81367047Y-89067380D02*
X81271809Y-89019761D01*
X81224190Y-88972142D01*
X81176571Y-88876904D01*
X81176571Y-88591190D01*
X81224190Y-88495952D01*
X81271809Y-88448333D01*
X81367047Y-88400714D01*
X81509904Y-88400714D01*
X81605142Y-88448333D01*
X81652761Y-88495952D01*
X81700380Y-88591190D01*
X81700380Y-88876904D01*
X81652761Y-88972142D01*
X81605142Y-89019761D01*
X81509904Y-89067380D01*
X81367047Y-89067380D01*
X82128952Y-89067380D02*
X82128952Y-88400714D01*
X82128952Y-88495952D02*
X82176571Y-88448333D01*
X82271809Y-88400714D01*
X82414666Y-88400714D01*
X82509904Y-88448333D01*
X82557523Y-88543571D01*
X82557523Y-89067380D01*
X82557523Y-88543571D02*
X82605142Y-88448333D01*
X82700380Y-88400714D01*
X82843238Y-88400714D01*
X82938476Y-88448333D01*
X82986095Y-88543571D01*
X82986095Y-89067380D01*
X83843238Y-89019761D02*
X83748000Y-89067380D01*
X83557523Y-89067380D01*
X83462285Y-89019761D01*
X83414666Y-88924523D01*
X83414666Y-88543571D01*
X83462285Y-88448333D01*
X83557523Y-88400714D01*
X83748000Y-88400714D01*
X83843238Y-88448333D01*
X83890857Y-88543571D01*
X83890857Y-88638809D01*
X83414666Y-88734047D01*
X84176571Y-88400714D02*
X84557523Y-88400714D01*
X84319428Y-88067380D02*
X84319428Y-88924523D01*
X84367047Y-89019761D01*
X84462285Y-89067380D01*
X84557523Y-89067380D01*
X85271809Y-89019761D02*
X85176571Y-89067380D01*
X84986095Y-89067380D01*
X84890857Y-89019761D01*
X84843238Y-88924523D01*
X84843238Y-88543571D01*
X84890857Y-88448333D01*
X84986095Y-88400714D01*
X85176571Y-88400714D01*
X85271809Y-88448333D01*
X85319428Y-88543571D01*
X85319428Y-88638809D01*
X84843238Y-88734047D01*
X85748000Y-89067380D02*
X85748000Y-88400714D01*
X85748000Y-88591190D02*
X85795619Y-88495952D01*
X85843238Y-88448333D01*
X85938476Y-88400714D01*
X86033714Y-88400714D01*
X96052238Y-87194666D02*
X96528428Y-87194666D01*
X95957000Y-87480380D02*
X96290333Y-86480380D01*
X96623666Y-87480380D01*
X97385571Y-87432761D02*
X97290333Y-87480380D01*
X97099857Y-87480380D01*
X97004619Y-87432761D01*
X96957000Y-87385142D01*
X96909380Y-87289904D01*
X96909380Y-87004190D01*
X96957000Y-86908952D01*
X97004619Y-86861333D01*
X97099857Y-86813714D01*
X97290333Y-86813714D01*
X97385571Y-86861333D01*
X98242714Y-87432761D02*
X98147476Y-87480380D01*
X97957000Y-87480380D01*
X97861761Y-87432761D01*
X97814142Y-87385142D01*
X97766523Y-87289904D01*
X97766523Y-87004190D01*
X97814142Y-86908952D01*
X97861761Y-86861333D01*
X97957000Y-86813714D01*
X98147476Y-86813714D01*
X98242714Y-86861333D01*
X99052238Y-87432761D02*
X98957000Y-87480380D01*
X98766523Y-87480380D01*
X98671285Y-87432761D01*
X98623666Y-87337523D01*
X98623666Y-86956571D01*
X98671285Y-86861333D01*
X98766523Y-86813714D01*
X98957000Y-86813714D01*
X99052238Y-86861333D01*
X99099857Y-86956571D01*
X99099857Y-87051809D01*
X98623666Y-87147047D01*
X99671285Y-87480380D02*
X99576047Y-87432761D01*
X99528428Y-87337523D01*
X99528428Y-86480380D01*
X100433190Y-87432761D02*
X100337952Y-87480380D01*
X100147476Y-87480380D01*
X100052238Y-87432761D01*
X100004619Y-87337523D01*
X100004619Y-86956571D01*
X100052238Y-86861333D01*
X100147476Y-86813714D01*
X100337952Y-86813714D01*
X100433190Y-86861333D01*
X100480809Y-86956571D01*
X100480809Y-87051809D01*
X100004619Y-87147047D01*
X100909380Y-87480380D02*
X100909380Y-86813714D01*
X100909380Y-87004190D02*
X100957000Y-86908952D01*
X101004619Y-86861333D01*
X101099857Y-86813714D01*
X101195095Y-86813714D01*
X101957000Y-87480380D02*
X101957000Y-86956571D01*
X101909380Y-86861333D01*
X101814142Y-86813714D01*
X101623666Y-86813714D01*
X101528428Y-86861333D01*
X101957000Y-87432761D02*
X101861761Y-87480380D01*
X101623666Y-87480380D01*
X101528428Y-87432761D01*
X101480809Y-87337523D01*
X101480809Y-87242285D01*
X101528428Y-87147047D01*
X101623666Y-87099428D01*
X101861761Y-87099428D01*
X101957000Y-87051809D01*
X102290333Y-86813714D02*
X102671285Y-86813714D01*
X102433190Y-86480380D02*
X102433190Y-87337523D01*
X102480809Y-87432761D01*
X102576047Y-87480380D01*
X102671285Y-87480380D01*
X103004619Y-87480380D02*
X103004619Y-86813714D01*
X103004619Y-86480380D02*
X102957000Y-86528000D01*
X103004619Y-86575619D01*
X103052238Y-86528000D01*
X103004619Y-86480380D01*
X103004619Y-86575619D01*
X103623666Y-87480380D02*
X103528428Y-87432761D01*
X103480809Y-87385142D01*
X103433190Y-87289904D01*
X103433190Y-87004190D01*
X103480809Y-86908952D01*
X103528428Y-86861333D01*
X103623666Y-86813714D01*
X103766523Y-86813714D01*
X103861761Y-86861333D01*
X103909380Y-86908952D01*
X103957000Y-87004190D01*
X103957000Y-87289904D01*
X103909380Y-87385142D01*
X103861761Y-87432761D01*
X103766523Y-87480380D01*
X103623666Y-87480380D01*
X104385571Y-86813714D02*
X104385571Y-87480380D01*
X104385571Y-86908952D02*
X104433190Y-86861333D01*
X104528428Y-86813714D01*
X104671285Y-86813714D01*
X104766523Y-86861333D01*
X104814142Y-86956571D01*
X104814142Y-87480380D01*
X97957000Y-88463714D02*
X98195095Y-89130380D01*
X98433190Y-88463714D01*
X98957000Y-89130380D02*
X98861761Y-89082761D01*
X98814142Y-89035142D01*
X98766523Y-88939904D01*
X98766523Y-88654190D01*
X98814142Y-88558952D01*
X98861761Y-88511333D01*
X98957000Y-88463714D01*
X99099857Y-88463714D01*
X99195095Y-88511333D01*
X99242714Y-88558952D01*
X99290333Y-88654190D01*
X99290333Y-88939904D01*
X99242714Y-89035142D01*
X99195095Y-89082761D01*
X99099857Y-89130380D01*
X98957000Y-89130380D01*
X99861761Y-89130380D02*
X99766523Y-89082761D01*
X99718904Y-88987523D01*
X99718904Y-88130380D01*
X100671285Y-88463714D02*
X100671285Y-89130380D01*
X100242714Y-88463714D02*
X100242714Y-88987523D01*
X100290333Y-89082761D01*
X100385571Y-89130380D01*
X100528428Y-89130380D01*
X100623666Y-89082761D01*
X100671285Y-89035142D01*
X101147476Y-89130380D02*
X101147476Y-88463714D01*
X101147476Y-88558952D02*
X101195095Y-88511333D01*
X101290333Y-88463714D01*
X101433190Y-88463714D01*
X101528428Y-88511333D01*
X101576047Y-88606571D01*
X101576047Y-89130380D01*
X101576047Y-88606571D02*
X101623666Y-88511333D01*
X101718904Y-88463714D01*
X101861761Y-88463714D01*
X101957000Y-88511333D01*
X102004619Y-88606571D01*
X102004619Y-89130380D01*
X102861761Y-89082761D02*
X102766523Y-89130380D01*
X102576047Y-89130380D01*
X102480809Y-89082761D01*
X102433190Y-88987523D01*
X102433190Y-88606571D01*
X102480809Y-88511333D01*
X102576047Y-88463714D01*
X102766523Y-88463714D01*
X102861761Y-88511333D01*
X102909380Y-88606571D01*
X102909380Y-88701809D01*
X102433190Y-88797047D01*
X122579380Y-88447571D02*
X122722238Y-88495190D01*
X122769857Y-88542809D01*
X122817476Y-88638047D01*
X122817476Y-88780904D01*
X122769857Y-88876142D01*
X122722238Y-88923761D01*
X122627000Y-88971380D01*
X122246047Y-88971380D01*
X122246047Y-87971380D01*
X122579380Y-87971380D01*
X122674619Y-88019000D01*
X122722238Y-88066619D01*
X122769857Y-88161857D01*
X122769857Y-88257095D01*
X122722238Y-88352333D01*
X122674619Y-88399952D01*
X122579380Y-88447571D01*
X122246047Y-88447571D01*
X123246047Y-88971380D02*
X123246047Y-88304714D01*
X123246047Y-88495190D02*
X123293666Y-88399952D01*
X123341285Y-88352333D01*
X123436523Y-88304714D01*
X123531761Y-88304714D01*
X124293666Y-88971380D02*
X124293666Y-88447571D01*
X124246047Y-88352333D01*
X124150809Y-88304714D01*
X123960333Y-88304714D01*
X123865095Y-88352333D01*
X124293666Y-88923761D02*
X124198428Y-88971380D01*
X123960333Y-88971380D01*
X123865095Y-88923761D01*
X123817476Y-88828523D01*
X123817476Y-88733285D01*
X123865095Y-88638047D01*
X123960333Y-88590428D01*
X124198428Y-88590428D01*
X124293666Y-88542809D01*
X124769857Y-88971380D02*
X124769857Y-87971380D01*
X124865095Y-88590428D02*
X125150809Y-88971380D01*
X125150809Y-88304714D02*
X124769857Y-88685666D01*
X125960333Y-88923761D02*
X125865095Y-88971380D01*
X125674619Y-88971380D01*
X125579380Y-88923761D01*
X125531761Y-88828523D01*
X125531761Y-88447571D01*
X125579380Y-88352333D01*
X125674619Y-88304714D01*
X125865095Y-88304714D01*
X125960333Y-88352333D01*
X126007952Y-88447571D01*
X126007952Y-88542809D01*
X125531761Y-88638047D01*
X127103190Y-88304714D02*
X127341285Y-88971380D01*
X127579380Y-88304714D01*
X128103190Y-88971380D02*
X128007952Y-88923761D01*
X127960333Y-88876142D01*
X127912714Y-88780904D01*
X127912714Y-88495190D01*
X127960333Y-88399952D01*
X128007952Y-88352333D01*
X128103190Y-88304714D01*
X128246047Y-88304714D01*
X128341285Y-88352333D01*
X128388904Y-88399952D01*
X128436523Y-88495190D01*
X128436523Y-88780904D01*
X128388904Y-88876142D01*
X128341285Y-88923761D01*
X128246047Y-88971380D01*
X128103190Y-88971380D01*
X129007952Y-88971380D02*
X128912714Y-88923761D01*
X128865095Y-88828523D01*
X128865095Y-87971380D01*
X129817476Y-88304714D02*
X129817476Y-88971380D01*
X129388904Y-88304714D02*
X129388904Y-88828523D01*
X129436523Y-88923761D01*
X129531761Y-88971380D01*
X129674619Y-88971380D01*
X129769857Y-88923761D01*
X129817476Y-88876142D01*
X130293666Y-88971380D02*
X130293666Y-88304714D01*
X130293666Y-88399952D02*
X130341285Y-88352333D01*
X130436523Y-88304714D01*
X130579380Y-88304714D01*
X130674619Y-88352333D01*
X130722238Y-88447571D01*
X130722238Y-88971380D01*
X130722238Y-88447571D02*
X130769857Y-88352333D01*
X130865095Y-88304714D01*
X131007952Y-88304714D01*
X131103190Y-88352333D01*
X131150809Y-88447571D01*
X131150809Y-88971380D01*
X132007952Y-88923761D02*
X131912714Y-88971380D01*
X131722238Y-88971380D01*
X131627000Y-88923761D01*
X131579380Y-88828523D01*
X131579380Y-88447571D01*
X131627000Y-88352333D01*
X131722238Y-88304714D01*
X131912714Y-88304714D01*
X132007952Y-88352333D01*
X132055571Y-88447571D01*
X132055571Y-88542809D01*
X131579380Y-88638047D01*
X181594857Y-109959380D02*
X181594857Y-108959380D01*
X181928190Y-109673666D01*
X182261523Y-108959380D01*
X182261523Y-109959380D01*
X182880571Y-109959380D02*
X182785333Y-109911761D01*
X182737714Y-109864142D01*
X182690095Y-109768904D01*
X182690095Y-109483190D01*
X182737714Y-109387952D01*
X182785333Y-109340333D01*
X182880571Y-109292714D01*
X183023428Y-109292714D01*
X183118666Y-109340333D01*
X183166285Y-109387952D01*
X183213904Y-109483190D01*
X183213904Y-109768904D01*
X183166285Y-109864142D01*
X183118666Y-109911761D01*
X183023428Y-109959380D01*
X182880571Y-109959380D01*
X183499619Y-109292714D02*
X183880571Y-109292714D01*
X183642476Y-108959380D02*
X183642476Y-109816523D01*
X183690095Y-109911761D01*
X183785333Y-109959380D01*
X183880571Y-109959380D01*
X184356761Y-109959380D02*
X184261523Y-109911761D01*
X184213904Y-109864142D01*
X184166285Y-109768904D01*
X184166285Y-109483190D01*
X184213904Y-109387952D01*
X184261523Y-109340333D01*
X184356761Y-109292714D01*
X184499619Y-109292714D01*
X184594857Y-109340333D01*
X184642476Y-109387952D01*
X184690095Y-109483190D01*
X184690095Y-109768904D01*
X184642476Y-109864142D01*
X184594857Y-109911761D01*
X184499619Y-109959380D01*
X184356761Y-109959380D01*
X185118666Y-109959380D02*
X185118666Y-109292714D01*
X185118666Y-109483190D02*
X185166285Y-109387952D01*
X185213904Y-109340333D01*
X185309142Y-109292714D01*
X185404380Y-109292714D01*
X186928190Y-109911761D02*
X186832952Y-109959380D01*
X186642476Y-109959380D01*
X186547238Y-109911761D01*
X186499619Y-109864142D01*
X186452000Y-109768904D01*
X186452000Y-109483190D01*
X186499619Y-109387952D01*
X186547238Y-109340333D01*
X186642476Y-109292714D01*
X186832952Y-109292714D01*
X186928190Y-109340333D01*
X187499619Y-109959380D02*
X187404380Y-109911761D01*
X187356761Y-109864142D01*
X187309142Y-109768904D01*
X187309142Y-109483190D01*
X187356761Y-109387952D01*
X187404380Y-109340333D01*
X187499619Y-109292714D01*
X187642476Y-109292714D01*
X187737714Y-109340333D01*
X187785333Y-109387952D01*
X187832952Y-109483190D01*
X187832952Y-109768904D01*
X187785333Y-109864142D01*
X187737714Y-109911761D01*
X187642476Y-109959380D01*
X187499619Y-109959380D01*
X188261523Y-109292714D02*
X188261523Y-109959380D01*
X188261523Y-109387952D02*
X188309142Y-109340333D01*
X188404380Y-109292714D01*
X188547238Y-109292714D01*
X188642476Y-109340333D01*
X188690095Y-109435571D01*
X188690095Y-109959380D01*
X189023428Y-109292714D02*
X189404380Y-109292714D01*
X189166285Y-108959380D02*
X189166285Y-109816523D01*
X189213904Y-109911761D01*
X189309142Y-109959380D01*
X189404380Y-109959380D01*
X189737714Y-109959380D02*
X189737714Y-109292714D01*
X189737714Y-109483190D02*
X189785333Y-109387952D01*
X189832952Y-109340333D01*
X189928190Y-109292714D01*
X190023428Y-109292714D01*
X190499619Y-109959380D02*
X190404380Y-109911761D01*
X190356761Y-109864142D01*
X190309142Y-109768904D01*
X190309142Y-109483190D01*
X190356761Y-109387952D01*
X190404380Y-109340333D01*
X190499619Y-109292714D01*
X190642476Y-109292714D01*
X190737714Y-109340333D01*
X190785333Y-109387952D01*
X190832952Y-109483190D01*
X190832952Y-109768904D01*
X190785333Y-109864142D01*
X190737714Y-109911761D01*
X190642476Y-109959380D01*
X190499619Y-109959380D01*
X191404380Y-109959380D02*
X191309142Y-109911761D01*
X191261523Y-109816523D01*
X191261523Y-108959380D01*
X191928190Y-109959380D02*
X191832952Y-109911761D01*
X191785333Y-109816523D01*
X191785333Y-108959380D01*
X192690095Y-109911761D02*
X192594857Y-109959380D01*
X192404380Y-109959380D01*
X192309142Y-109911761D01*
X192261523Y-109816523D01*
X192261523Y-109435571D01*
X192309142Y-109340333D01*
X192404380Y-109292714D01*
X192594857Y-109292714D01*
X192690095Y-109340333D01*
X192737714Y-109435571D01*
X192737714Y-109530809D01*
X192261523Y-109626047D01*
X193166285Y-109959380D02*
X193166285Y-109292714D01*
X193166285Y-109483190D02*
X193213904Y-109387952D01*
X193261523Y-109340333D01*
X193356761Y-109292714D01*
X193452000Y-109292714D01*
X182737714Y-111609380D02*
X182737714Y-110609380D01*
X182737714Y-111085571D02*
X183309142Y-111085571D01*
X183309142Y-111609380D02*
X183309142Y-110609380D01*
X184166285Y-111561761D02*
X184071047Y-111609380D01*
X183880571Y-111609380D01*
X183785333Y-111561761D01*
X183737714Y-111466523D01*
X183737714Y-111085571D01*
X183785333Y-110990333D01*
X183880571Y-110942714D01*
X184071047Y-110942714D01*
X184166285Y-110990333D01*
X184213904Y-111085571D01*
X184213904Y-111180809D01*
X183737714Y-111276047D01*
X185071047Y-111609380D02*
X185071047Y-111085571D01*
X185023428Y-110990333D01*
X184928190Y-110942714D01*
X184737714Y-110942714D01*
X184642476Y-110990333D01*
X185071047Y-111561761D02*
X184975809Y-111609380D01*
X184737714Y-111609380D01*
X184642476Y-111561761D01*
X184594857Y-111466523D01*
X184594857Y-111371285D01*
X184642476Y-111276047D01*
X184737714Y-111228428D01*
X184975809Y-111228428D01*
X185071047Y-111180809D01*
X185404380Y-110942714D02*
X185785333Y-110942714D01*
X185547238Y-110609380D02*
X185547238Y-111466523D01*
X185594857Y-111561761D01*
X185690095Y-111609380D01*
X185785333Y-111609380D01*
X186785333Y-110942714D02*
X186975809Y-111609380D01*
X187166285Y-111133190D01*
X187356761Y-111609380D01*
X187547238Y-110942714D01*
X188356761Y-111609380D02*
X188356761Y-111085571D01*
X188309142Y-110990333D01*
X188213904Y-110942714D01*
X188023428Y-110942714D01*
X187928190Y-110990333D01*
X188356761Y-111561761D02*
X188261523Y-111609380D01*
X188023428Y-111609380D01*
X187928190Y-111561761D01*
X187880571Y-111466523D01*
X187880571Y-111371285D01*
X187928190Y-111276047D01*
X188023428Y-111228428D01*
X188261523Y-111228428D01*
X188356761Y-111180809D01*
X188832952Y-111609380D02*
X188832952Y-110942714D01*
X188832952Y-111133190D02*
X188880571Y-111037952D01*
X188928190Y-110990333D01*
X189023428Y-110942714D01*
X189118666Y-110942714D01*
X189452000Y-110942714D02*
X189452000Y-111609380D01*
X189452000Y-111037952D02*
X189499619Y-110990333D01*
X189594857Y-110942714D01*
X189737714Y-110942714D01*
X189832952Y-110990333D01*
X189880571Y-111085571D01*
X189880571Y-111609380D01*
X190356761Y-111609380D02*
X190356761Y-110942714D01*
X190356761Y-110609380D02*
X190309142Y-110657000D01*
X190356761Y-110704619D01*
X190404380Y-110657000D01*
X190356761Y-110609380D01*
X190356761Y-110704619D01*
X190832952Y-110942714D02*
X190832952Y-111609380D01*
X190832952Y-111037952D02*
X190880571Y-110990333D01*
X190975809Y-110942714D01*
X191118666Y-110942714D01*
X191213904Y-110990333D01*
X191261523Y-111085571D01*
X191261523Y-111609380D01*
X192166285Y-110942714D02*
X192166285Y-111752238D01*
X192118666Y-111847476D01*
X192071047Y-111895095D01*
X191975809Y-111942714D01*
X191832952Y-111942714D01*
X191737714Y-111895095D01*
X192166285Y-111561761D02*
X192071047Y-111609380D01*
X191880571Y-111609380D01*
X191785333Y-111561761D01*
X191737714Y-111514142D01*
X191690095Y-111418904D01*
X191690095Y-111133190D01*
X191737714Y-111037952D01*
X191785333Y-110990333D01*
X191880571Y-110942714D01*
X192071047Y-110942714D01*
X192166285Y-110990333D01*
X152963809Y-94655380D02*
X152963809Y-93655380D01*
X153344761Y-93655380D01*
X153440000Y-93703000D01*
X153487619Y-93750619D01*
X153535238Y-93845857D01*
X153535238Y-93988714D01*
X153487619Y-94083952D01*
X153440000Y-94131571D01*
X153344761Y-94179190D01*
X152963809Y-94179190D01*
X154106666Y-94655380D02*
X154011428Y-94607761D01*
X153963809Y-94560142D01*
X153916190Y-94464904D01*
X153916190Y-94179190D01*
X153963809Y-94083952D01*
X154011428Y-94036333D01*
X154106666Y-93988714D01*
X154249523Y-93988714D01*
X154344761Y-94036333D01*
X154392380Y-94083952D01*
X154440000Y-94179190D01*
X154440000Y-94464904D01*
X154392380Y-94560142D01*
X154344761Y-94607761D01*
X154249523Y-94655380D01*
X154106666Y-94655380D01*
X154773333Y-93988714D02*
X154963809Y-94655380D01*
X155154285Y-94179190D01*
X155344761Y-94655380D01*
X155535238Y-93988714D01*
X156297142Y-94607761D02*
X156201904Y-94655380D01*
X156011428Y-94655380D01*
X155916190Y-94607761D01*
X155868571Y-94512523D01*
X155868571Y-94131571D01*
X155916190Y-94036333D01*
X156011428Y-93988714D01*
X156201904Y-93988714D01*
X156297142Y-94036333D01*
X156344761Y-94131571D01*
X156344761Y-94226809D01*
X155868571Y-94322047D01*
X156773333Y-94655380D02*
X156773333Y-93988714D01*
X156773333Y-94179190D02*
X156820952Y-94083952D01*
X156868571Y-94036333D01*
X156963809Y-93988714D01*
X157059047Y-93988714D01*
X153590761Y-99211571D02*
X153924095Y-99211571D01*
X154066952Y-99735380D02*
X153590761Y-99735380D01*
X153590761Y-98735380D01*
X154066952Y-98735380D01*
X154924095Y-99687761D02*
X154828857Y-99735380D01*
X154638380Y-99735380D01*
X154543142Y-99687761D01*
X154495523Y-99640142D01*
X154447904Y-99544904D01*
X154447904Y-99259190D01*
X154495523Y-99163952D01*
X154543142Y-99116333D01*
X154638380Y-99068714D01*
X154828857Y-99068714D01*
X154924095Y-99116333D01*
X155495523Y-99735380D02*
X155400285Y-99687761D01*
X155352666Y-99640142D01*
X155305047Y-99544904D01*
X155305047Y-99259190D01*
X155352666Y-99163952D01*
X155400285Y-99116333D01*
X155495523Y-99068714D01*
X155638380Y-99068714D01*
X155733619Y-99116333D01*
X155781238Y-99163952D01*
X155828857Y-99259190D01*
X155828857Y-99544904D01*
X155781238Y-99640142D01*
X155733619Y-99687761D01*
X155638380Y-99735380D01*
X155495523Y-99735380D01*
X144844000Y-104338380D02*
X144844000Y-103338380D01*
X145082095Y-103338380D01*
X145224952Y-103386000D01*
X145320190Y-103481238D01*
X145367809Y-103576476D01*
X145415428Y-103766952D01*
X145415428Y-103909809D01*
X145367809Y-104100285D01*
X145320190Y-104195523D01*
X145224952Y-104290761D01*
X145082095Y-104338380D01*
X144844000Y-104338380D01*
X145844000Y-104338380D02*
X145844000Y-103671714D01*
X145844000Y-103862190D02*
X145891619Y-103766952D01*
X145939238Y-103719333D01*
X146034476Y-103671714D01*
X146129714Y-103671714D01*
X146463047Y-104338380D02*
X146463047Y-103671714D01*
X146463047Y-103338380D02*
X146415428Y-103386000D01*
X146463047Y-103433619D01*
X146510666Y-103386000D01*
X146463047Y-103338380D01*
X146463047Y-103433619D01*
X146844000Y-103671714D02*
X147082095Y-104338380D01*
X147320190Y-103671714D01*
X148082095Y-104290761D02*
X147986857Y-104338380D01*
X147796380Y-104338380D01*
X147701142Y-104290761D01*
X147653523Y-104195523D01*
X147653523Y-103814571D01*
X147701142Y-103719333D01*
X147796380Y-103671714D01*
X147986857Y-103671714D01*
X148082095Y-103719333D01*
X148129714Y-103814571D01*
X148129714Y-103909809D01*
X147653523Y-104005047D01*
X149320190Y-104338380D02*
X149320190Y-103671714D01*
X149320190Y-103766952D02*
X149367809Y-103719333D01*
X149463047Y-103671714D01*
X149605904Y-103671714D01*
X149701142Y-103719333D01*
X149748761Y-103814571D01*
X149748761Y-104338380D01*
X149748761Y-103814571D02*
X149796380Y-103719333D01*
X149891619Y-103671714D01*
X150034476Y-103671714D01*
X150129714Y-103719333D01*
X150177333Y-103814571D01*
X150177333Y-104338380D01*
X150796380Y-104338380D02*
X150701142Y-104290761D01*
X150653523Y-104243142D01*
X150605904Y-104147904D01*
X150605904Y-103862190D01*
X150653523Y-103766952D01*
X150701142Y-103719333D01*
X150796380Y-103671714D01*
X150939238Y-103671714D01*
X151034476Y-103719333D01*
X151082095Y-103766952D01*
X151129714Y-103862190D01*
X151129714Y-104147904D01*
X151082095Y-104243142D01*
X151034476Y-104290761D01*
X150939238Y-104338380D01*
X150796380Y-104338380D01*
X151986857Y-104338380D02*
X151986857Y-103338380D01*
X151986857Y-104290761D02*
X151891619Y-104338380D01*
X151701142Y-104338380D01*
X151605904Y-104290761D01*
X151558285Y-104243142D01*
X151510666Y-104147904D01*
X151510666Y-103862190D01*
X151558285Y-103766952D01*
X151605904Y-103719333D01*
X151701142Y-103671714D01*
X151891619Y-103671714D01*
X151986857Y-103719333D01*
X152844000Y-104290761D02*
X152748761Y-104338380D01*
X152558285Y-104338380D01*
X152463047Y-104290761D01*
X152415428Y-104195523D01*
X152415428Y-103814571D01*
X152463047Y-103719333D01*
X152558285Y-103671714D01*
X152748761Y-103671714D01*
X152844000Y-103719333D01*
X152891619Y-103814571D01*
X152891619Y-103909809D01*
X152415428Y-104005047D01*
X171283571Y-99735380D02*
X170950238Y-99259190D01*
X170712142Y-99735380D02*
X170712142Y-98735380D01*
X171093095Y-98735380D01*
X171188333Y-98783000D01*
X171235952Y-98830619D01*
X171283571Y-98925857D01*
X171283571Y-99068714D01*
X171235952Y-99163952D01*
X171188333Y-99211571D01*
X171093095Y-99259190D01*
X170712142Y-99259190D01*
X172093095Y-99687761D02*
X171997857Y-99735380D01*
X171807380Y-99735380D01*
X171712142Y-99687761D01*
X171664523Y-99592523D01*
X171664523Y-99211571D01*
X171712142Y-99116333D01*
X171807380Y-99068714D01*
X171997857Y-99068714D01*
X172093095Y-99116333D01*
X172140714Y-99211571D01*
X172140714Y-99306809D01*
X171664523Y-99402047D01*
X172474047Y-99068714D02*
X172712142Y-99735380D01*
X172950238Y-99068714D01*
X173712142Y-99687761D02*
X173616904Y-99735380D01*
X173426428Y-99735380D01*
X173331190Y-99687761D01*
X173283571Y-99592523D01*
X173283571Y-99211571D01*
X173331190Y-99116333D01*
X173426428Y-99068714D01*
X173616904Y-99068714D01*
X173712142Y-99116333D01*
X173759761Y-99211571D01*
X173759761Y-99306809D01*
X173283571Y-99402047D01*
X174188333Y-99735380D02*
X174188333Y-99068714D01*
X174188333Y-99259190D02*
X174235952Y-99163952D01*
X174283571Y-99116333D01*
X174378809Y-99068714D01*
X174474047Y-99068714D01*
X174759761Y-99687761D02*
X174855000Y-99735380D01*
X175045476Y-99735380D01*
X175140714Y-99687761D01*
X175188333Y-99592523D01*
X175188333Y-99544904D01*
X175140714Y-99449666D01*
X175045476Y-99402047D01*
X174902619Y-99402047D01*
X174807380Y-99354428D01*
X174759761Y-99259190D01*
X174759761Y-99211571D01*
X174807380Y-99116333D01*
X174902619Y-99068714D01*
X175045476Y-99068714D01*
X175140714Y-99116333D01*
X175997857Y-99687761D02*
X175902619Y-99735380D01*
X175712142Y-99735380D01*
X175616904Y-99687761D01*
X175569285Y-99592523D01*
X175569285Y-99211571D01*
X175616904Y-99116333D01*
X175712142Y-99068714D01*
X175902619Y-99068714D01*
X175997857Y-99116333D01*
X176045476Y-99211571D01*
X176045476Y-99306809D01*
X175569285Y-99402047D01*
X171124857Y-94004571D02*
X170791523Y-94004571D01*
X170791523Y-94528380D02*
X170791523Y-93528380D01*
X171267714Y-93528380D01*
X171791523Y-94528380D02*
X171696285Y-94480761D01*
X171648666Y-94433142D01*
X171601047Y-94337904D01*
X171601047Y-94052190D01*
X171648666Y-93956952D01*
X171696285Y-93909333D01*
X171791523Y-93861714D01*
X171934380Y-93861714D01*
X172029619Y-93909333D01*
X172077238Y-93956952D01*
X172124857Y-94052190D01*
X172124857Y-94337904D01*
X172077238Y-94433142D01*
X172029619Y-94480761D01*
X171934380Y-94528380D01*
X171791523Y-94528380D01*
X172553428Y-94528380D02*
X172553428Y-93861714D01*
X172553428Y-94052190D02*
X172601047Y-93956952D01*
X172648666Y-93909333D01*
X172743904Y-93861714D01*
X172839142Y-93861714D01*
X173077238Y-93861714D02*
X173267714Y-94528380D01*
X173458190Y-94052190D01*
X173648666Y-94528380D01*
X173839142Y-93861714D01*
X174648666Y-94528380D02*
X174648666Y-94004571D01*
X174601047Y-93909333D01*
X174505809Y-93861714D01*
X174315333Y-93861714D01*
X174220095Y-93909333D01*
X174648666Y-94480761D02*
X174553428Y-94528380D01*
X174315333Y-94528380D01*
X174220095Y-94480761D01*
X174172476Y-94385523D01*
X174172476Y-94290285D01*
X174220095Y-94195047D01*
X174315333Y-94147428D01*
X174553428Y-94147428D01*
X174648666Y-94099809D01*
X175124857Y-94528380D02*
X175124857Y-93861714D01*
X175124857Y-94052190D02*
X175172476Y-93956952D01*
X175220095Y-93909333D01*
X175315333Y-93861714D01*
X175410571Y-93861714D01*
X176172476Y-94528380D02*
X176172476Y-93528380D01*
X176172476Y-94480761D02*
X176077238Y-94528380D01*
X175886761Y-94528380D01*
X175791523Y-94480761D01*
X175743904Y-94433142D01*
X175696285Y-94337904D01*
X175696285Y-94052190D01*
X175743904Y-93956952D01*
X175791523Y-93909333D01*
X175886761Y-93861714D01*
X176077238Y-93861714D01*
X176172476Y-93909333D01*
X164036761Y-104465380D02*
X164036761Y-103465380D01*
X164274857Y-103465380D01*
X164417714Y-103513000D01*
X164512952Y-103608238D01*
X164560571Y-103703476D01*
X164608190Y-103893952D01*
X164608190Y-104036809D01*
X164560571Y-104227285D01*
X164512952Y-104322523D01*
X164417714Y-104417761D01*
X164274857Y-104465380D01*
X164036761Y-104465380D01*
X165036761Y-104465380D02*
X165036761Y-103798714D01*
X165036761Y-103465380D02*
X164989142Y-103513000D01*
X165036761Y-103560619D01*
X165084380Y-103513000D01*
X165036761Y-103465380D01*
X165036761Y-103560619D01*
X165512952Y-104465380D02*
X165512952Y-103798714D01*
X165512952Y-103989190D02*
X165560571Y-103893952D01*
X165608190Y-103846333D01*
X165703428Y-103798714D01*
X165798666Y-103798714D01*
X166512952Y-104417761D02*
X166417714Y-104465380D01*
X166227238Y-104465380D01*
X166132000Y-104417761D01*
X166084380Y-104322523D01*
X166084380Y-103941571D01*
X166132000Y-103846333D01*
X166227238Y-103798714D01*
X166417714Y-103798714D01*
X166512952Y-103846333D01*
X166560571Y-103941571D01*
X166560571Y-104036809D01*
X166084380Y-104132047D01*
X167417714Y-104417761D02*
X167322476Y-104465380D01*
X167132000Y-104465380D01*
X167036761Y-104417761D01*
X166989142Y-104370142D01*
X166941523Y-104274904D01*
X166941523Y-103989190D01*
X166989142Y-103893952D01*
X167036761Y-103846333D01*
X167132000Y-103798714D01*
X167322476Y-103798714D01*
X167417714Y-103846333D01*
X167703428Y-103798714D02*
X168084380Y-103798714D01*
X167846285Y-103465380D02*
X167846285Y-104322523D01*
X167893904Y-104417761D01*
X167989142Y-104465380D01*
X168084380Y-104465380D01*
X168417714Y-104465380D02*
X168417714Y-103798714D01*
X168417714Y-103465380D02*
X168370095Y-103513000D01*
X168417714Y-103560619D01*
X168465333Y-103513000D01*
X168417714Y-103465380D01*
X168417714Y-103560619D01*
X169036761Y-104465380D02*
X168941523Y-104417761D01*
X168893904Y-104370142D01*
X168846285Y-104274904D01*
X168846285Y-103989190D01*
X168893904Y-103893952D01*
X168941523Y-103846333D01*
X169036761Y-103798714D01*
X169179619Y-103798714D01*
X169274857Y-103846333D01*
X169322476Y-103893952D01*
X169370095Y-103989190D01*
X169370095Y-104274904D01*
X169322476Y-104370142D01*
X169274857Y-104417761D01*
X169179619Y-104465380D01*
X169036761Y-104465380D01*
X169798666Y-103798714D02*
X169798666Y-104465380D01*
X169798666Y-103893952D02*
X169846285Y-103846333D01*
X169941523Y-103798714D01*
X170084380Y-103798714D01*
X170179619Y-103846333D01*
X170227238Y-103941571D01*
X170227238Y-104465380D01*
X191103333Y-98481380D02*
X191293809Y-98481380D01*
X191389047Y-98529000D01*
X191484285Y-98624238D01*
X191531904Y-98814714D01*
X191531904Y-99148047D01*
X191484285Y-99338523D01*
X191389047Y-99433761D01*
X191293809Y-99481380D01*
X191103333Y-99481380D01*
X191008095Y-99433761D01*
X190912857Y-99338523D01*
X190865238Y-99148047D01*
X190865238Y-98814714D01*
X190912857Y-98624238D01*
X191008095Y-98529000D01*
X191103333Y-98481380D01*
X191817619Y-98814714D02*
X192198571Y-98814714D01*
X191960476Y-99481380D02*
X191960476Y-98624238D01*
X192008095Y-98529000D01*
X192103333Y-98481380D01*
X192198571Y-98481380D01*
X192389047Y-98814714D02*
X192770000Y-98814714D01*
X192531904Y-99481380D02*
X192531904Y-98624238D01*
X192579523Y-98529000D01*
X192674761Y-98481380D01*
X192770000Y-98481380D01*
X191222380Y-93528380D02*
X191412857Y-93528380D01*
X191508095Y-93576000D01*
X191603333Y-93671238D01*
X191650952Y-93861714D01*
X191650952Y-94195047D01*
X191603333Y-94385523D01*
X191508095Y-94480761D01*
X191412857Y-94528380D01*
X191222380Y-94528380D01*
X191127142Y-94480761D01*
X191031904Y-94385523D01*
X190984285Y-94195047D01*
X190984285Y-93861714D01*
X191031904Y-93671238D01*
X191127142Y-93576000D01*
X191222380Y-93528380D01*
X192079523Y-93861714D02*
X192079523Y-94528380D01*
X192079523Y-93956952D02*
X192127142Y-93909333D01*
X192222380Y-93861714D01*
X192365238Y-93861714D01*
X192460476Y-93909333D01*
X192508095Y-94004571D01*
X192508095Y-94528380D01*
X181467857Y-104211380D02*
X181467857Y-103211380D01*
X181801190Y-103925666D01*
X182134523Y-103211380D01*
X182134523Y-104211380D01*
X182753571Y-104211380D02*
X182658333Y-104163761D01*
X182610714Y-104116142D01*
X182563095Y-104020904D01*
X182563095Y-103735190D01*
X182610714Y-103639952D01*
X182658333Y-103592333D01*
X182753571Y-103544714D01*
X182896428Y-103544714D01*
X182991666Y-103592333D01*
X183039285Y-103639952D01*
X183086904Y-103735190D01*
X183086904Y-104020904D01*
X183039285Y-104116142D01*
X182991666Y-104163761D01*
X182896428Y-104211380D01*
X182753571Y-104211380D01*
X183372619Y-103544714D02*
X183753571Y-103544714D01*
X183515476Y-103211380D02*
X183515476Y-104068523D01*
X183563095Y-104163761D01*
X183658333Y-104211380D01*
X183753571Y-104211380D01*
X184229761Y-104211380D02*
X184134523Y-104163761D01*
X184086904Y-104116142D01*
X184039285Y-104020904D01*
X184039285Y-103735190D01*
X184086904Y-103639952D01*
X184134523Y-103592333D01*
X184229761Y-103544714D01*
X184372619Y-103544714D01*
X184467857Y-103592333D01*
X184515476Y-103639952D01*
X184563095Y-103735190D01*
X184563095Y-104020904D01*
X184515476Y-104116142D01*
X184467857Y-104163761D01*
X184372619Y-104211380D01*
X184229761Y-104211380D01*
X184991666Y-104211380D02*
X184991666Y-103544714D01*
X184991666Y-103735190D02*
X185039285Y-103639952D01*
X185086904Y-103592333D01*
X185182142Y-103544714D01*
X185277380Y-103544714D01*
X186801190Y-104163761D02*
X186705952Y-104211380D01*
X186515476Y-104211380D01*
X186420238Y-104163761D01*
X186372619Y-104116142D01*
X186325000Y-104020904D01*
X186325000Y-103735190D01*
X186372619Y-103639952D01*
X186420238Y-103592333D01*
X186515476Y-103544714D01*
X186705952Y-103544714D01*
X186801190Y-103592333D01*
X187372619Y-104211380D02*
X187277380Y-104163761D01*
X187229761Y-104116142D01*
X187182142Y-104020904D01*
X187182142Y-103735190D01*
X187229761Y-103639952D01*
X187277380Y-103592333D01*
X187372619Y-103544714D01*
X187515476Y-103544714D01*
X187610714Y-103592333D01*
X187658333Y-103639952D01*
X187705952Y-103735190D01*
X187705952Y-104020904D01*
X187658333Y-104116142D01*
X187610714Y-104163761D01*
X187515476Y-104211380D01*
X187372619Y-104211380D01*
X188134523Y-103544714D02*
X188134523Y-104211380D01*
X188134523Y-103639952D02*
X188182142Y-103592333D01*
X188277380Y-103544714D01*
X188420238Y-103544714D01*
X188515476Y-103592333D01*
X188563095Y-103687571D01*
X188563095Y-104211380D01*
X188896428Y-103544714D02*
X189277380Y-103544714D01*
X189039285Y-103211380D02*
X189039285Y-104068523D01*
X189086904Y-104163761D01*
X189182142Y-104211380D01*
X189277380Y-104211380D01*
X189610714Y-104211380D02*
X189610714Y-103544714D01*
X189610714Y-103735190D02*
X189658333Y-103639952D01*
X189705952Y-103592333D01*
X189801190Y-103544714D01*
X189896428Y-103544714D01*
X190372619Y-104211380D02*
X190277380Y-104163761D01*
X190229761Y-104116142D01*
X190182142Y-104020904D01*
X190182142Y-103735190D01*
X190229761Y-103639952D01*
X190277380Y-103592333D01*
X190372619Y-103544714D01*
X190515476Y-103544714D01*
X190610714Y-103592333D01*
X190658333Y-103639952D01*
X190705952Y-103735190D01*
X190705952Y-104020904D01*
X190658333Y-104116142D01*
X190610714Y-104163761D01*
X190515476Y-104211380D01*
X190372619Y-104211380D01*
X191277380Y-104211380D02*
X191182142Y-104163761D01*
X191134523Y-104068523D01*
X191134523Y-103211380D01*
X191801190Y-104211380D02*
X191705952Y-104163761D01*
X191658333Y-104068523D01*
X191658333Y-103211380D01*
X192563095Y-104163761D02*
X192467857Y-104211380D01*
X192277380Y-104211380D01*
X192182142Y-104163761D01*
X192134523Y-104068523D01*
X192134523Y-103687571D01*
X192182142Y-103592333D01*
X192277380Y-103544714D01*
X192467857Y-103544714D01*
X192563095Y-103592333D01*
X192610714Y-103687571D01*
X192610714Y-103782809D01*
X192134523Y-103878047D01*
X193039285Y-104211380D02*
X193039285Y-103544714D01*
X193039285Y-103735190D02*
X193086904Y-103639952D01*
X193134523Y-103592333D01*
X193229761Y-103544714D01*
X193325000Y-103544714D01*
X171799333Y-77907380D02*
X171989809Y-77907380D01*
X172085047Y-77955000D01*
X172180285Y-78050238D01*
X172227904Y-78240714D01*
X172227904Y-78574047D01*
X172180285Y-78764523D01*
X172085047Y-78859761D01*
X171989809Y-78907380D01*
X171799333Y-78907380D01*
X171704095Y-78859761D01*
X171608857Y-78764523D01*
X171561238Y-78574047D01*
X171561238Y-78240714D01*
X171608857Y-78050238D01*
X171704095Y-77955000D01*
X171799333Y-77907380D01*
X172513619Y-78240714D02*
X172894571Y-78240714D01*
X172656476Y-78907380D02*
X172656476Y-78050238D01*
X172704095Y-77955000D01*
X172799333Y-77907380D01*
X172894571Y-77907380D01*
X173085047Y-78240714D02*
X173466000Y-78240714D01*
X173227904Y-78907380D02*
X173227904Y-78050238D01*
X173275523Y-77955000D01*
X173370761Y-77907380D01*
X173466000Y-77907380D01*
X172172380Y-72065380D02*
X172362857Y-72065380D01*
X172458095Y-72113000D01*
X172553333Y-72208238D01*
X172600952Y-72398714D01*
X172600952Y-72732047D01*
X172553333Y-72922523D01*
X172458095Y-73017761D01*
X172362857Y-73065380D01*
X172172380Y-73065380D01*
X172077142Y-73017761D01*
X171981904Y-72922523D01*
X171934285Y-72732047D01*
X171934285Y-72398714D01*
X171981904Y-72208238D01*
X172077142Y-72113000D01*
X172172380Y-72065380D01*
X173029523Y-72398714D02*
X173029523Y-73065380D01*
X173029523Y-72493952D02*
X173077142Y-72446333D01*
X173172380Y-72398714D01*
X173315238Y-72398714D01*
X173410476Y-72446333D01*
X173458095Y-72541571D01*
X173458095Y-73065380D01*
X163243095Y-68953761D02*
X163385952Y-69001380D01*
X163624047Y-69001380D01*
X163719285Y-68953761D01*
X163766904Y-68906142D01*
X163814523Y-68810904D01*
X163814523Y-68715666D01*
X163766904Y-68620428D01*
X163719285Y-68572809D01*
X163624047Y-68525190D01*
X163433571Y-68477571D01*
X163338333Y-68429952D01*
X163290714Y-68382333D01*
X163243095Y-68287095D01*
X163243095Y-68191857D01*
X163290714Y-68096619D01*
X163338333Y-68049000D01*
X163433571Y-68001380D01*
X163671666Y-68001380D01*
X163814523Y-68049000D01*
X164671666Y-69001380D02*
X164671666Y-68477571D01*
X164624047Y-68382333D01*
X164528809Y-68334714D01*
X164338333Y-68334714D01*
X164243095Y-68382333D01*
X164671666Y-68953761D02*
X164576428Y-69001380D01*
X164338333Y-69001380D01*
X164243095Y-68953761D01*
X164195476Y-68858523D01*
X164195476Y-68763285D01*
X164243095Y-68668047D01*
X164338333Y-68620428D01*
X164576428Y-68620428D01*
X164671666Y-68572809D01*
X165005000Y-68334714D02*
X165385952Y-68334714D01*
X165147857Y-69001380D02*
X165147857Y-68144238D01*
X165195476Y-68049000D01*
X165290714Y-68001380D01*
X165385952Y-68001380D01*
X166100238Y-68953761D02*
X166005000Y-69001380D01*
X165814523Y-69001380D01*
X165719285Y-68953761D01*
X165671666Y-68858523D01*
X165671666Y-68477571D01*
X165719285Y-68382333D01*
X165814523Y-68334714D01*
X166005000Y-68334714D01*
X166100238Y-68382333D01*
X166147857Y-68477571D01*
X166147857Y-68572809D01*
X165671666Y-68668047D01*
X167290714Y-68953761D02*
X167433571Y-69001380D01*
X167671666Y-69001380D01*
X167766904Y-68953761D01*
X167814523Y-68906142D01*
X167862142Y-68810904D01*
X167862142Y-68715666D01*
X167814523Y-68620428D01*
X167766904Y-68572809D01*
X167671666Y-68525190D01*
X167481190Y-68477571D01*
X167385952Y-68429952D01*
X167338333Y-68382333D01*
X167290714Y-68287095D01*
X167290714Y-68191857D01*
X167338333Y-68096619D01*
X167385952Y-68049000D01*
X167481190Y-68001380D01*
X167719285Y-68001380D01*
X167862142Y-68049000D01*
X168147857Y-68334714D02*
X168528809Y-68334714D01*
X168290714Y-68001380D02*
X168290714Y-68858523D01*
X168338333Y-68953761D01*
X168433571Y-69001380D01*
X168528809Y-69001380D01*
X169290714Y-69001380D02*
X169290714Y-68477571D01*
X169243095Y-68382333D01*
X169147857Y-68334714D01*
X168957380Y-68334714D01*
X168862142Y-68382333D01*
X169290714Y-68953761D02*
X169195476Y-69001380D01*
X168957380Y-69001380D01*
X168862142Y-68953761D01*
X168814523Y-68858523D01*
X168814523Y-68763285D01*
X168862142Y-68668047D01*
X168957380Y-68620428D01*
X169195476Y-68620428D01*
X169290714Y-68572809D01*
X169624047Y-68334714D02*
X170005000Y-68334714D01*
X169766904Y-68001380D02*
X169766904Y-68858523D01*
X169814523Y-68953761D01*
X169909761Y-69001380D01*
X170005000Y-69001380D01*
X170719285Y-68953761D02*
X170624047Y-69001380D01*
X170433571Y-69001380D01*
X170338333Y-68953761D01*
X170290714Y-68858523D01*
X170290714Y-68477571D01*
X170338333Y-68382333D01*
X170433571Y-68334714D01*
X170624047Y-68334714D01*
X170719285Y-68382333D01*
X170766904Y-68477571D01*
X170766904Y-68572809D01*
X170290714Y-68668047D01*
X189706333Y-78542380D02*
X189896809Y-78542380D01*
X189992047Y-78590000D01*
X190087285Y-78685238D01*
X190134904Y-78875714D01*
X190134904Y-79209047D01*
X190087285Y-79399523D01*
X189992047Y-79494761D01*
X189896809Y-79542380D01*
X189706333Y-79542380D01*
X189611095Y-79494761D01*
X189515857Y-79399523D01*
X189468238Y-79209047D01*
X189468238Y-78875714D01*
X189515857Y-78685238D01*
X189611095Y-78590000D01*
X189706333Y-78542380D01*
X190420619Y-78875714D02*
X190801571Y-78875714D01*
X190563476Y-79542380D02*
X190563476Y-78685238D01*
X190611095Y-78590000D01*
X190706333Y-78542380D01*
X190801571Y-78542380D01*
X190992047Y-78875714D02*
X191373000Y-78875714D01*
X191134904Y-79542380D02*
X191134904Y-78685238D01*
X191182523Y-78590000D01*
X191277761Y-78542380D01*
X191373000Y-78542380D01*
X189698380Y-72446380D02*
X189888857Y-72446380D01*
X189984095Y-72494000D01*
X190079333Y-72589238D01*
X190126952Y-72779714D01*
X190126952Y-73113047D01*
X190079333Y-73303523D01*
X189984095Y-73398761D01*
X189888857Y-73446380D01*
X189698380Y-73446380D01*
X189603142Y-73398761D01*
X189507904Y-73303523D01*
X189460285Y-73113047D01*
X189460285Y-72779714D01*
X189507904Y-72589238D01*
X189603142Y-72494000D01*
X189698380Y-72446380D01*
X190555523Y-72779714D02*
X190555523Y-73446380D01*
X190555523Y-72874952D02*
X190603142Y-72827333D01*
X190698380Y-72779714D01*
X190841238Y-72779714D01*
X190936476Y-72827333D01*
X190984095Y-72922571D01*
X190984095Y-73446380D01*
X183189809Y-69001380D02*
X183189809Y-68001380D01*
X183570761Y-68001380D01*
X183666000Y-68049000D01*
X183713619Y-68096619D01*
X183761238Y-68191857D01*
X183761238Y-68334714D01*
X183713619Y-68429952D01*
X183666000Y-68477571D01*
X183570761Y-68525190D01*
X183189809Y-68525190D01*
X184332666Y-69001380D02*
X184237428Y-68953761D01*
X184189809Y-68906142D01*
X184142190Y-68810904D01*
X184142190Y-68525190D01*
X184189809Y-68429952D01*
X184237428Y-68382333D01*
X184332666Y-68334714D01*
X184475523Y-68334714D01*
X184570761Y-68382333D01*
X184618380Y-68429952D01*
X184666000Y-68525190D01*
X184666000Y-68810904D01*
X184618380Y-68906142D01*
X184570761Y-68953761D01*
X184475523Y-69001380D01*
X184332666Y-69001380D01*
X184999333Y-68334714D02*
X185189809Y-69001380D01*
X185380285Y-68525190D01*
X185570761Y-69001380D01*
X185761238Y-68334714D01*
X186523142Y-68953761D02*
X186427904Y-69001380D01*
X186237428Y-69001380D01*
X186142190Y-68953761D01*
X186094571Y-68858523D01*
X186094571Y-68477571D01*
X186142190Y-68382333D01*
X186237428Y-68334714D01*
X186427904Y-68334714D01*
X186523142Y-68382333D01*
X186570761Y-68477571D01*
X186570761Y-68572809D01*
X186094571Y-68668047D01*
X186999333Y-69001380D02*
X186999333Y-68334714D01*
X186999333Y-68525190D02*
X187046952Y-68429952D01*
X187094571Y-68382333D01*
X187189809Y-68334714D01*
X187285047Y-68334714D01*
X161179476Y-59476380D02*
X160846142Y-59000190D01*
X160608047Y-59476380D02*
X160608047Y-58476380D01*
X160989000Y-58476380D01*
X161084238Y-58524000D01*
X161131857Y-58571619D01*
X161179476Y-58666857D01*
X161179476Y-58809714D01*
X161131857Y-58904952D01*
X161084238Y-58952571D01*
X160989000Y-59000190D01*
X160608047Y-59000190D01*
X161608047Y-59476380D02*
X161608047Y-58809714D01*
X161608047Y-58476380D02*
X161560428Y-58524000D01*
X161608047Y-58571619D01*
X161655666Y-58524000D01*
X161608047Y-58476380D01*
X161608047Y-58571619D01*
X162512809Y-58809714D02*
X162512809Y-59619238D01*
X162465190Y-59714476D01*
X162417571Y-59762095D01*
X162322333Y-59809714D01*
X162179476Y-59809714D01*
X162084238Y-59762095D01*
X162512809Y-59428761D02*
X162417571Y-59476380D01*
X162227095Y-59476380D01*
X162131857Y-59428761D01*
X162084238Y-59381142D01*
X162036619Y-59285904D01*
X162036619Y-59000190D01*
X162084238Y-58904952D01*
X162131857Y-58857333D01*
X162227095Y-58809714D01*
X162417571Y-58809714D01*
X162512809Y-58857333D01*
X162989000Y-59476380D02*
X162989000Y-58476380D01*
X163417571Y-59476380D02*
X163417571Y-58952571D01*
X163369952Y-58857333D01*
X163274714Y-58809714D01*
X163131857Y-58809714D01*
X163036619Y-58857333D01*
X162989000Y-58904952D01*
X163750904Y-58809714D02*
X164131857Y-58809714D01*
X163893761Y-58476380D02*
X163893761Y-59333523D01*
X163941380Y-59428761D01*
X164036619Y-59476380D01*
X164131857Y-59476380D01*
X165227095Y-59476380D02*
X165227095Y-58809714D01*
X165227095Y-58476380D02*
X165179476Y-58524000D01*
X165227095Y-58571619D01*
X165274714Y-58524000D01*
X165227095Y-58476380D01*
X165227095Y-58571619D01*
X165703285Y-58809714D02*
X165703285Y-59476380D01*
X165703285Y-58904952D02*
X165750904Y-58857333D01*
X165846142Y-58809714D01*
X165989000Y-58809714D01*
X166084238Y-58857333D01*
X166131857Y-58952571D01*
X166131857Y-59476380D01*
X167036619Y-59476380D02*
X167036619Y-58476380D01*
X167036619Y-59428761D02*
X166941380Y-59476380D01*
X166750904Y-59476380D01*
X166655666Y-59428761D01*
X166608047Y-59381142D01*
X166560428Y-59285904D01*
X166560428Y-59000190D01*
X166608047Y-58904952D01*
X166655666Y-58857333D01*
X166750904Y-58809714D01*
X166941380Y-58809714D01*
X167036619Y-58857333D01*
X167512809Y-59476380D02*
X167512809Y-58809714D01*
X167512809Y-58476380D02*
X167465190Y-58524000D01*
X167512809Y-58571619D01*
X167560428Y-58524000D01*
X167512809Y-58476380D01*
X167512809Y-58571619D01*
X168417571Y-59428761D02*
X168322333Y-59476380D01*
X168131857Y-59476380D01*
X168036619Y-59428761D01*
X167989000Y-59381142D01*
X167941380Y-59285904D01*
X167941380Y-59000190D01*
X167989000Y-58904952D01*
X168036619Y-58857333D01*
X168131857Y-58809714D01*
X168322333Y-58809714D01*
X168417571Y-58857333D01*
X169274714Y-59476380D02*
X169274714Y-58952571D01*
X169227095Y-58857333D01*
X169131857Y-58809714D01*
X168941380Y-58809714D01*
X168846142Y-58857333D01*
X169274714Y-59428761D02*
X169179476Y-59476380D01*
X168941380Y-59476380D01*
X168846142Y-59428761D01*
X168798523Y-59333523D01*
X168798523Y-59238285D01*
X168846142Y-59143047D01*
X168941380Y-59095428D01*
X169179476Y-59095428D01*
X169274714Y-59047809D01*
X169608047Y-58809714D02*
X169989000Y-58809714D01*
X169750904Y-58476380D02*
X169750904Y-59333523D01*
X169798523Y-59428761D01*
X169893761Y-59476380D01*
X169989000Y-59476380D01*
X170465190Y-59476380D02*
X170369952Y-59428761D01*
X170322333Y-59381142D01*
X170274714Y-59285904D01*
X170274714Y-59000190D01*
X170322333Y-58904952D01*
X170369952Y-58857333D01*
X170465190Y-58809714D01*
X170608047Y-58809714D01*
X170703285Y-58857333D01*
X170750904Y-58904952D01*
X170798523Y-59000190D01*
X170798523Y-59285904D01*
X170750904Y-59381142D01*
X170703285Y-59428761D01*
X170608047Y-59476380D01*
X170465190Y-59476380D01*
X171227095Y-59476380D02*
X171227095Y-58809714D01*
X171227095Y-59000190D02*
X171274714Y-58904952D01*
X171322333Y-58857333D01*
X171417571Y-58809714D01*
X171512809Y-58809714D01*
X145352047Y-59476380D02*
X144875857Y-59476380D01*
X144875857Y-58476380D01*
X146066333Y-59428761D02*
X145971095Y-59476380D01*
X145780619Y-59476380D01*
X145685380Y-59428761D01*
X145637761Y-59333523D01*
X145637761Y-58952571D01*
X145685380Y-58857333D01*
X145780619Y-58809714D01*
X145971095Y-58809714D01*
X146066333Y-58857333D01*
X146113952Y-58952571D01*
X146113952Y-59047809D01*
X145637761Y-59143047D01*
X146399666Y-58809714D02*
X146780619Y-58809714D01*
X146542523Y-59476380D02*
X146542523Y-58619238D01*
X146590142Y-58524000D01*
X146685380Y-58476380D01*
X146780619Y-58476380D01*
X146971095Y-58809714D02*
X147352047Y-58809714D01*
X147113952Y-58476380D02*
X147113952Y-59333523D01*
X147161571Y-59428761D01*
X147256809Y-59476380D01*
X147352047Y-59476380D01*
X148447285Y-59476380D02*
X148447285Y-58809714D01*
X148447285Y-58476380D02*
X148399666Y-58524000D01*
X148447285Y-58571619D01*
X148494904Y-58524000D01*
X148447285Y-58476380D01*
X148447285Y-58571619D01*
X148923476Y-58809714D02*
X148923476Y-59476380D01*
X148923476Y-58904952D02*
X148971095Y-58857333D01*
X149066333Y-58809714D01*
X149209190Y-58809714D01*
X149304428Y-58857333D01*
X149352047Y-58952571D01*
X149352047Y-59476380D01*
X150256809Y-59476380D02*
X150256809Y-58476380D01*
X150256809Y-59428761D02*
X150161571Y-59476380D01*
X149971095Y-59476380D01*
X149875857Y-59428761D01*
X149828238Y-59381142D01*
X149780619Y-59285904D01*
X149780619Y-59000190D01*
X149828238Y-58904952D01*
X149875857Y-58857333D01*
X149971095Y-58809714D01*
X150161571Y-58809714D01*
X150256809Y-58857333D01*
X150733000Y-59476380D02*
X150733000Y-58809714D01*
X150733000Y-58476380D02*
X150685380Y-58524000D01*
X150733000Y-58571619D01*
X150780619Y-58524000D01*
X150733000Y-58476380D01*
X150733000Y-58571619D01*
X151637761Y-59428761D02*
X151542523Y-59476380D01*
X151352047Y-59476380D01*
X151256809Y-59428761D01*
X151209190Y-59381142D01*
X151161571Y-59285904D01*
X151161571Y-59000190D01*
X151209190Y-58904952D01*
X151256809Y-58857333D01*
X151352047Y-58809714D01*
X151542523Y-58809714D01*
X151637761Y-58857333D01*
X152494904Y-59476380D02*
X152494904Y-58952571D01*
X152447285Y-58857333D01*
X152352047Y-58809714D01*
X152161571Y-58809714D01*
X152066333Y-58857333D01*
X152494904Y-59428761D02*
X152399666Y-59476380D01*
X152161571Y-59476380D01*
X152066333Y-59428761D01*
X152018714Y-59333523D01*
X152018714Y-59238285D01*
X152066333Y-59143047D01*
X152161571Y-59095428D01*
X152399666Y-59095428D01*
X152494904Y-59047809D01*
X152828238Y-58809714D02*
X153209190Y-58809714D01*
X152971095Y-58476380D02*
X152971095Y-59333523D01*
X153018714Y-59428761D01*
X153113952Y-59476380D01*
X153209190Y-59476380D01*
X153685380Y-59476380D02*
X153590142Y-59428761D01*
X153542523Y-59381142D01*
X153494904Y-59285904D01*
X153494904Y-59000190D01*
X153542523Y-58904952D01*
X153590142Y-58857333D01*
X153685380Y-58809714D01*
X153828238Y-58809714D01*
X153923476Y-58857333D01*
X153971095Y-58904952D01*
X154018714Y-59000190D01*
X154018714Y-59285904D01*
X153971095Y-59381142D01*
X153923476Y-59428761D01*
X153828238Y-59476380D01*
X153685380Y-59476380D01*
X154447285Y-59476380D02*
X154447285Y-58809714D01*
X154447285Y-59000190D02*
X154494904Y-58904952D01*
X154542523Y-58857333D01*
X154637761Y-58809714D01*
X154733000Y-58809714D01*
X180340190Y-46887571D02*
X180483047Y-46935190D01*
X180530666Y-46982809D01*
X180578285Y-47078047D01*
X180578285Y-47220904D01*
X180530666Y-47316142D01*
X180483047Y-47363761D01*
X180387809Y-47411380D01*
X180006857Y-47411380D01*
X180006857Y-46411380D01*
X180340190Y-46411380D01*
X180435428Y-46459000D01*
X180483047Y-46506619D01*
X180530666Y-46601857D01*
X180530666Y-46697095D01*
X180483047Y-46792333D01*
X180435428Y-46839952D01*
X180340190Y-46887571D01*
X180006857Y-46887571D01*
X181006857Y-47411380D02*
X181006857Y-46744714D01*
X181006857Y-46935190D02*
X181054476Y-46839952D01*
X181102095Y-46792333D01*
X181197333Y-46744714D01*
X181292571Y-46744714D01*
X182054476Y-47411380D02*
X182054476Y-46887571D01*
X182006857Y-46792333D01*
X181911619Y-46744714D01*
X181721142Y-46744714D01*
X181625904Y-46792333D01*
X182054476Y-47363761D02*
X181959238Y-47411380D01*
X181721142Y-47411380D01*
X181625904Y-47363761D01*
X181578285Y-47268523D01*
X181578285Y-47173285D01*
X181625904Y-47078047D01*
X181721142Y-47030428D01*
X181959238Y-47030428D01*
X182054476Y-46982809D01*
X182530666Y-47411380D02*
X182530666Y-46411380D01*
X182625904Y-47030428D02*
X182911619Y-47411380D01*
X182911619Y-46744714D02*
X182530666Y-47125666D01*
X183721142Y-47363761D02*
X183625904Y-47411380D01*
X183435428Y-47411380D01*
X183340190Y-47363761D01*
X183292571Y-47268523D01*
X183292571Y-46887571D01*
X183340190Y-46792333D01*
X183435428Y-46744714D01*
X183625904Y-46744714D01*
X183721142Y-46792333D01*
X183768761Y-46887571D01*
X183768761Y-46982809D01*
X183292571Y-47078047D01*
X164568333Y-47411380D02*
X164568333Y-46411380D01*
X164806428Y-46411380D01*
X164949285Y-46459000D01*
X165044523Y-46554238D01*
X165092142Y-46649476D01*
X165139761Y-46839952D01*
X165139761Y-46982809D01*
X165092142Y-47173285D01*
X165044523Y-47268523D01*
X164949285Y-47363761D01*
X164806428Y-47411380D01*
X164568333Y-47411380D01*
X166139761Y-47411380D02*
X165806428Y-46935190D01*
X165568333Y-47411380D02*
X165568333Y-46411380D01*
X165949285Y-46411380D01*
X166044523Y-46459000D01*
X166092142Y-46506619D01*
X166139761Y-46601857D01*
X166139761Y-46744714D01*
X166092142Y-46839952D01*
X166044523Y-46887571D01*
X165949285Y-46935190D01*
X165568333Y-46935190D01*
X167044523Y-47411380D02*
X166568333Y-47411380D01*
X166568333Y-46411380D01*
X147407571Y-47014571D02*
X147550428Y-47062190D01*
X147598047Y-47109809D01*
X147645666Y-47205047D01*
X147645666Y-47347904D01*
X147598047Y-47443142D01*
X147550428Y-47490761D01*
X147455190Y-47538380D01*
X147074238Y-47538380D01*
X147074238Y-46538380D01*
X147407571Y-46538380D01*
X147502809Y-46586000D01*
X147550428Y-46633619D01*
X147598047Y-46728857D01*
X147598047Y-46824095D01*
X147550428Y-46919333D01*
X147502809Y-46966952D01*
X147407571Y-47014571D01*
X147074238Y-47014571D01*
X148502809Y-47538380D02*
X148502809Y-47014571D01*
X148455190Y-46919333D01*
X148359952Y-46871714D01*
X148169476Y-46871714D01*
X148074238Y-46919333D01*
X148502809Y-47490761D02*
X148407571Y-47538380D01*
X148169476Y-47538380D01*
X148074238Y-47490761D01*
X148026619Y-47395523D01*
X148026619Y-47300285D01*
X148074238Y-47205047D01*
X148169476Y-47157428D01*
X148407571Y-47157428D01*
X148502809Y-47109809D01*
X148836142Y-46871714D02*
X149217095Y-46871714D01*
X148979000Y-46538380D02*
X148979000Y-47395523D01*
X149026619Y-47490761D01*
X149121857Y-47538380D01*
X149217095Y-47538380D01*
X149407571Y-46871714D02*
X149788523Y-46871714D01*
X149550428Y-46538380D02*
X149550428Y-47395523D01*
X149598047Y-47490761D01*
X149693285Y-47538380D01*
X149788523Y-47538380D01*
X150502809Y-47490761D02*
X150407571Y-47538380D01*
X150217095Y-47538380D01*
X150121857Y-47490761D01*
X150074238Y-47395523D01*
X150074238Y-47014571D01*
X150121857Y-46919333D01*
X150217095Y-46871714D01*
X150407571Y-46871714D01*
X150502809Y-46919333D01*
X150550428Y-47014571D01*
X150550428Y-47109809D01*
X150074238Y-47205047D01*
X150979000Y-47538380D02*
X150979000Y-46871714D01*
X150979000Y-47062190D02*
X151026619Y-46966952D01*
X151074238Y-46919333D01*
X151169476Y-46871714D01*
X151264714Y-46871714D01*
X151502809Y-46871714D02*
X151740904Y-47538380D01*
X151979000Y-46871714D02*
X151740904Y-47538380D01*
X151645666Y-47776476D01*
X151598047Y-47824095D01*
X151502809Y-47871714D01*
D11*
X203400000Y-145400000D02*
G75*
G02*
X198400000Y-150400000I-5000000J0D01*
G01*
X20400000Y-25400000D02*
G75*
G02*
X25400000Y-20400000I5000000J0D01*
G01*
X198400000Y-20400000D02*
G75*
G02*
X203400000Y-25400000I0J-5000000D01*
G01*
X25400000Y-150400000D02*
G75*
G02*
X20400000Y-145400000I0J5000000D01*
G01*
X203400000Y-25400000D02*
X203400000Y-145400000D01*
X198400000Y-150400000D02*
X25400000Y-150400000D01*
X20400000Y-25400000D02*
X20400000Y-145400000D01*
X198400000Y-20400000D02*
X25400000Y-20400000D01*
D12*
%TO.C,SW114*%
X92865000Y-78583800D02*
X107865000Y-78583800D01*
X107865000Y-78583800D02*
X107865000Y-72983800D01*
X92865000Y-72983800D02*
X107865000Y-72983800D01*
X92865000Y-78583800D02*
X92865000Y-72983800D01*
%TO.C,SW111*%
X164361000Y-70283800D02*
X169961000Y-70283800D01*
X169961000Y-70283800D02*
X169961000Y-81283800D01*
X164361000Y-81283800D02*
X169961000Y-81283800D01*
X164361000Y-70283800D02*
X164361000Y-81283800D01*
%TO.C,SW101*%
X182493000Y-70283800D02*
X188093000Y-70283800D01*
X188093000Y-70283800D02*
X188093000Y-81283800D01*
X182493000Y-81283800D02*
X188093000Y-81283800D01*
X182493000Y-70283800D02*
X182493000Y-81283800D01*
%TO.C,SW106*%
X184525000Y-91142200D02*
X190125000Y-91142200D01*
X190125000Y-91142200D02*
X190125000Y-102142200D01*
X184525000Y-102142200D02*
X190125000Y-102142200D01*
X184525000Y-91142200D02*
X184525000Y-102142200D01*
%TO.C,SW107*%
X169961000Y-102142200D02*
X164361000Y-102142200D01*
X164361000Y-102142200D02*
X164361000Y-91142200D01*
X169961000Y-91142200D02*
X164361000Y-91142200D01*
X169961000Y-102142200D02*
X169961000Y-91142200D01*
%TO.C,SW109*%
X151829000Y-102142200D02*
X146229000Y-102142200D01*
X146229000Y-102142200D02*
X146229000Y-91142200D01*
X151829000Y-91142200D02*
X146229000Y-91142200D01*
X151829000Y-102142200D02*
X151829000Y-91142200D01*
%TO.C,SW112*%
X58251000Y-70283800D02*
X63851000Y-70283800D01*
X63851000Y-70283800D02*
X63851000Y-81283800D01*
X58251000Y-81283800D02*
X63851000Y-81283800D01*
X58251000Y-70283800D02*
X58251000Y-81283800D01*
%TO.C,SW113*%
X76383000Y-70283800D02*
X81983000Y-70283800D01*
X81983000Y-70283800D02*
X81983000Y-81283800D01*
X76383000Y-81283800D02*
X81983000Y-81283800D01*
X76383000Y-70283800D02*
X76383000Y-81283800D01*
%TO.C,DS201*%
X30852000Y-65359000D02*
X111132000Y-65359000D01*
X111132000Y-65359000D02*
X111132000Y-29079000D01*
X111132000Y-29079000D02*
X31652000Y-29079000D01*
X30852000Y-29079000D02*
X30852000Y-65359000D01*
X30862000Y-29079000D02*
X31652000Y-29079000D01*
X37492000Y-28719000D02*
X40492000Y-28719000D01*
X39192000Y-39719000D02*
X102692000Y-39719000D01*
X38692280Y-54218320D02*
X38692280Y-40219000D01*
X102692660Y-54719000D02*
X39192000Y-54719000D01*
X103192000Y-40219000D02*
X103192000Y-54219000D01*
X33992000Y-34719000D02*
X106992000Y-34719000D01*
X106992000Y-34719000D02*
X106992000Y-59719000D01*
X106992000Y-59719000D02*
X33992000Y-59719000D01*
X33992000Y-59719000D02*
X33992000Y-34719000D01*
X103192000Y-40219000D02*
G75*
G03*
X102692000Y-39719000I-500000J0D01*
G01*
X102692660Y-54718700D02*
G75*
G03*
X103193040Y-54218320I0J500380D01*
G01*
X38692280Y-54218320D02*
G75*
G03*
X39192660Y-54718700I500380J0D01*
G01*
X39192660Y-39717460D02*
G75*
G03*
X38692280Y-40217840I0J-500380D01*
G01*
%TO.C,SW105*%
X45166000Y-69633800D02*
X45166000Y-72353800D01*
X45166000Y-79213800D02*
X45166000Y-81933800D01*
X32866000Y-77353800D02*
X32866000Y-74213800D01*
X32866000Y-81933800D02*
X32866000Y-79213800D01*
X43695050Y-75823800D02*
G75*
G03*
X43695050Y-75823800I-4579050J0D01*
G01*
X32866000Y-72353800D02*
X32866000Y-69633800D01*
X45166000Y-81933800D02*
X32866000Y-81933800D01*
X45166000Y-74213800D02*
X45166000Y-77353800D01*
X32866000Y-69633800D02*
X45166000Y-69633800D01*
%TO.C,SW110*%
X132382000Y-69633800D02*
X132382000Y-72353800D01*
X132382000Y-79213800D02*
X132382000Y-81933800D01*
X120082000Y-77353800D02*
X120082000Y-74213800D01*
X120082000Y-81933800D02*
X120082000Y-79213800D01*
X130911050Y-75823800D02*
G75*
G03*
X130911050Y-75823800I-4579050J0D01*
G01*
X120082000Y-72353800D02*
X120082000Y-69633800D01*
X132382000Y-81933800D02*
X120082000Y-81933800D01*
X132382000Y-74213800D02*
X132382000Y-77353800D01*
X120082000Y-69633800D02*
X132382000Y-69633800D01*
%TO.C,D101*%
X147003666Y-53415000D02*
X147003666Y-56505000D01*
X152063666Y-54960000D02*
G75*
G03*
X152063666Y-54960000I-2500000J0D01*
G01*
X152553666Y-54959538D02*
G75*
G02*
X147003666Y-56504830I-2990000J-462D01*
G01*
X152553666Y-54960462D02*
G75*
G03*
X147003666Y-53415170I-2990000J462D01*
G01*
%TO.C,D102*%
X163090332Y-53415000D02*
X163090332Y-56505000D01*
X168150332Y-54960000D02*
G75*
G03*
X168150332Y-54960000I-2500000J0D01*
G01*
X168640332Y-54959538D02*
G75*
G02*
X163090332Y-56504830I-2990000J-462D01*
G01*
X168640332Y-54960462D02*
G75*
G03*
X163090332Y-53415170I-2990000J462D01*
G01*
%TO.C,D103*%
X147003666Y-41477000D02*
X147003666Y-44567000D01*
X152063666Y-43022000D02*
G75*
G03*
X152063666Y-43022000I-2500000J0D01*
G01*
X152553666Y-43021538D02*
G75*
G02*
X147003666Y-44566830I-2990000J-462D01*
G01*
X152553666Y-43022462D02*
G75*
G03*
X147003666Y-41477170I-2990000J462D01*
G01*
%TO.C,D104*%
X163090332Y-41477000D02*
X163090332Y-44567000D01*
X168150332Y-43022000D02*
G75*
G03*
X168150332Y-43022000I-2500000J0D01*
G01*
X168640332Y-43021538D02*
G75*
G02*
X163090332Y-44566830I-2990000J-462D01*
G01*
X168640332Y-43022462D02*
G75*
G03*
X163090332Y-41477170I-2990000J462D01*
G01*
%TO.C,D105*%
X179177000Y-41477000D02*
X179177000Y-44567000D01*
X184237000Y-43022000D02*
G75*
G03*
X184237000Y-43022000I-2500000J0D01*
G01*
X184727000Y-43021538D02*
G75*
G02*
X179177000Y-44566830I-2990000J-462D01*
G01*
X184727000Y-43022462D02*
G75*
G03*
X179177000Y-41477170I-2990000J462D01*
G01*
%TO.C,D106*%
X184760000Y-113486000D02*
X184760000Y-116576000D01*
X189820000Y-115031000D02*
G75*
G03*
X189820000Y-115031000I-2500000J0D01*
G01*
X190310000Y-115030538D02*
G75*
G02*
X184760000Y-116575830I-2990000J-462D01*
G01*
X190310000Y-115031462D02*
G75*
G03*
X184760000Y-113486170I-2990000J462D01*
G01*
%TO.C,RV101*%
X74213000Y-89572200D02*
X84153000Y-89572200D01*
X82553000Y-101812200D02*
X84153000Y-101812200D01*
X80054000Y-101812200D02*
X80813000Y-101812200D01*
X77554000Y-101812200D02*
X78313000Y-101812200D01*
X74213000Y-101812200D02*
X75812000Y-101812200D01*
X84153000Y-93437200D02*
X84153000Y-89572200D01*
X84153000Y-101812200D02*
X84153000Y-97947200D01*
X74213000Y-93437200D02*
X74213000Y-89572200D01*
X74213000Y-101812200D02*
X74213000Y-97947200D01*
%TO.C,RV102*%
X56081000Y-89572200D02*
X66021000Y-89572200D01*
X64421000Y-101812200D02*
X66021000Y-101812200D01*
X61922000Y-101812200D02*
X62681000Y-101812200D01*
X59422000Y-101812200D02*
X60181000Y-101812200D01*
X56081000Y-101812200D02*
X57680000Y-101812200D01*
X66021000Y-93437200D02*
X66021000Y-89572200D01*
X66021000Y-101812200D02*
X66021000Y-97947200D01*
X56081000Y-93437200D02*
X56081000Y-89572200D01*
X56081000Y-101812200D02*
X56081000Y-97947200D01*
%TO.C,RV103*%
X95395000Y-89572200D02*
X105335000Y-89572200D01*
X103735000Y-101812200D02*
X105335000Y-101812200D01*
X101236000Y-101812200D02*
X101995000Y-101812200D01*
X98736000Y-101812200D02*
X99495000Y-101812200D01*
X95395000Y-101812200D02*
X96994000Y-101812200D01*
X105335000Y-93437200D02*
X105335000Y-89572200D01*
X105335000Y-101812200D02*
X105335000Y-97947200D01*
X95395000Y-93437200D02*
X95395000Y-89572200D01*
X95395000Y-101812200D02*
X95395000Y-97947200D01*
%TO.C,RV104*%
X121252000Y-89572200D02*
X131192000Y-89572200D01*
X129592000Y-101812200D02*
X131192000Y-101812200D01*
X127093000Y-101812200D02*
X127852000Y-101812200D01*
X124593000Y-101812200D02*
X125352000Y-101812200D01*
X121252000Y-101812200D02*
X122851000Y-101812200D01*
X131192000Y-93437200D02*
X131192000Y-89572200D01*
X131192000Y-101812200D02*
X131192000Y-97947200D01*
X121252000Y-93437200D02*
X121252000Y-89572200D01*
X121252000Y-101812200D02*
X121252000Y-97947200D01*
%TO.C,SW102*%
X45166000Y-132209000D02*
X45166000Y-134929000D01*
X45166000Y-141789000D02*
X45166000Y-144509000D01*
X32866000Y-139929000D02*
X32866000Y-136789000D01*
X32866000Y-144509000D02*
X32866000Y-141789000D01*
X43695050Y-138399000D02*
G75*
G03*
X43695050Y-138399000I-4579050J0D01*
G01*
X32866000Y-134929000D02*
X32866000Y-132209000D01*
X45166000Y-144509000D02*
X32866000Y-144509000D01*
X45166000Y-136789000D02*
X45166000Y-139929000D01*
X32866000Y-132209000D02*
X45166000Y-132209000D01*
%TO.C,SW103*%
X45166000Y-90492200D02*
X45166000Y-93212200D01*
X45166000Y-100072200D02*
X45166000Y-102792200D01*
X32866000Y-98212200D02*
X32866000Y-95072200D01*
X32866000Y-102792200D02*
X32866000Y-100072200D01*
X43695050Y-96682200D02*
G75*
G03*
X43695050Y-96682200I-4579050J0D01*
G01*
X32866000Y-93212200D02*
X32866000Y-90492200D01*
X45166000Y-102792200D02*
X32866000Y-102792200D01*
X45166000Y-95072200D02*
X45166000Y-98212200D01*
X32866000Y-90492200D02*
X45166000Y-90492200D01*
%TO.C,SW104*%
X45166000Y-111350600D02*
X45166000Y-114070600D01*
X45166000Y-120930600D02*
X45166000Y-123650600D01*
X32866000Y-119070600D02*
X32866000Y-115930600D01*
X32866000Y-123650600D02*
X32866000Y-120930600D01*
X43695050Y-117540600D02*
G75*
G03*
X43695050Y-117540600I-4579050J0D01*
G01*
X32866000Y-114070600D02*
X32866000Y-111350600D01*
X45166000Y-123650600D02*
X32866000Y-123650600D01*
X45166000Y-115930600D02*
X45166000Y-119070600D01*
X32866000Y-111350600D02*
X45166000Y-111350600D01*
%TO.C,U102*%
X163758000Y-110411000D02*
X163758000Y-129811000D01*
X163758000Y-129811000D02*
X180158000Y-129811000D01*
X180158000Y-110411000D02*
X180158000Y-129811000D01*
X163758000Y-110411000D02*
X180158000Y-110411000D01*
%TO.C,C201*%
X72236000Y-48160748D02*
X72236000Y-48683252D01*
X70766000Y-48160748D02*
X70766000Y-48683252D01*
%TD*%
%TO.C,SW114*%
D10*
X98044285Y-78636761D02*
X98187142Y-78684380D01*
X98425238Y-78684380D01*
X98520476Y-78636761D01*
X98568095Y-78589142D01*
X98615714Y-78493904D01*
X98615714Y-78398666D01*
X98568095Y-78303428D01*
X98520476Y-78255809D01*
X98425238Y-78208190D01*
X98234761Y-78160571D01*
X98139523Y-78112952D01*
X98091904Y-78065333D01*
X98044285Y-77970095D01*
X98044285Y-77874857D01*
X98091904Y-77779619D01*
X98139523Y-77732000D01*
X98234761Y-77684380D01*
X98472857Y-77684380D01*
X98615714Y-77732000D01*
X98949047Y-77684380D02*
X99187142Y-78684380D01*
X99377619Y-77970095D01*
X99568095Y-78684380D01*
X99806190Y-77684380D01*
X100710952Y-78684380D02*
X100139523Y-78684380D01*
X100425238Y-78684380D02*
X100425238Y-77684380D01*
X100330000Y-77827238D01*
X100234761Y-77922476D01*
X100139523Y-77970095D01*
X101663333Y-78684380D02*
X101091904Y-78684380D01*
X101377619Y-78684380D02*
X101377619Y-77684380D01*
X101282380Y-77827238D01*
X101187142Y-77922476D01*
X101091904Y-77970095D01*
X102520476Y-78017714D02*
X102520476Y-78684380D01*
X102282380Y-77636761D02*
X102044285Y-78351047D01*
X102663333Y-78351047D01*
%TO.C,SW111*%
X164719285Y-73937761D02*
X164862142Y-73985380D01*
X165100238Y-73985380D01*
X165195476Y-73937761D01*
X165243095Y-73890142D01*
X165290714Y-73794904D01*
X165290714Y-73699666D01*
X165243095Y-73604428D01*
X165195476Y-73556809D01*
X165100238Y-73509190D01*
X164909761Y-73461571D01*
X164814523Y-73413952D01*
X164766904Y-73366333D01*
X164719285Y-73271095D01*
X164719285Y-73175857D01*
X164766904Y-73080619D01*
X164814523Y-73033000D01*
X164909761Y-72985380D01*
X165147857Y-72985380D01*
X165290714Y-73033000D01*
X165624047Y-72985380D02*
X165862142Y-73985380D01*
X166052619Y-73271095D01*
X166243095Y-73985380D01*
X166481190Y-72985380D01*
X167385952Y-73985380D02*
X166814523Y-73985380D01*
X167100238Y-73985380D02*
X167100238Y-72985380D01*
X167005000Y-73128238D01*
X166909761Y-73223476D01*
X166814523Y-73271095D01*
X168338333Y-73985380D02*
X167766904Y-73985380D01*
X168052619Y-73985380D02*
X168052619Y-72985380D01*
X167957380Y-73128238D01*
X167862142Y-73223476D01*
X167766904Y-73271095D01*
X169290714Y-73985380D02*
X168719285Y-73985380D01*
X169005000Y-73985380D02*
X169005000Y-72985380D01*
X168909761Y-73128238D01*
X168814523Y-73223476D01*
X168719285Y-73271095D01*
%TO.C,SW101*%
X182880285Y-73937761D02*
X183023142Y-73985380D01*
X183261238Y-73985380D01*
X183356476Y-73937761D01*
X183404095Y-73890142D01*
X183451714Y-73794904D01*
X183451714Y-73699666D01*
X183404095Y-73604428D01*
X183356476Y-73556809D01*
X183261238Y-73509190D01*
X183070761Y-73461571D01*
X182975523Y-73413952D01*
X182927904Y-73366333D01*
X182880285Y-73271095D01*
X182880285Y-73175857D01*
X182927904Y-73080619D01*
X182975523Y-73033000D01*
X183070761Y-72985380D01*
X183308857Y-72985380D01*
X183451714Y-73033000D01*
X183785047Y-72985380D02*
X184023142Y-73985380D01*
X184213619Y-73271095D01*
X184404095Y-73985380D01*
X184642190Y-72985380D01*
X185546952Y-73985380D02*
X184975523Y-73985380D01*
X185261238Y-73985380D02*
X185261238Y-72985380D01*
X185166000Y-73128238D01*
X185070761Y-73223476D01*
X184975523Y-73271095D01*
X186166000Y-72985380D02*
X186261238Y-72985380D01*
X186356476Y-73033000D01*
X186404095Y-73080619D01*
X186451714Y-73175857D01*
X186499333Y-73366333D01*
X186499333Y-73604428D01*
X186451714Y-73794904D01*
X186404095Y-73890142D01*
X186356476Y-73937761D01*
X186261238Y-73985380D01*
X186166000Y-73985380D01*
X186070761Y-73937761D01*
X186023142Y-73890142D01*
X185975523Y-73794904D01*
X185927904Y-73604428D01*
X185927904Y-73366333D01*
X185975523Y-73175857D01*
X186023142Y-73080619D01*
X186070761Y-73033000D01*
X186166000Y-72985380D01*
X187451714Y-73985380D02*
X186880285Y-73985380D01*
X187166000Y-73985380D02*
X187166000Y-72985380D01*
X187070761Y-73128238D01*
X186975523Y-73223476D01*
X186880285Y-73271095D01*
%TO.C,SW106*%
X184785285Y-94765761D02*
X184928142Y-94813380D01*
X185166238Y-94813380D01*
X185261476Y-94765761D01*
X185309095Y-94718142D01*
X185356714Y-94622904D01*
X185356714Y-94527666D01*
X185309095Y-94432428D01*
X185261476Y-94384809D01*
X185166238Y-94337190D01*
X184975761Y-94289571D01*
X184880523Y-94241952D01*
X184832904Y-94194333D01*
X184785285Y-94099095D01*
X184785285Y-94003857D01*
X184832904Y-93908619D01*
X184880523Y-93861000D01*
X184975761Y-93813380D01*
X185213857Y-93813380D01*
X185356714Y-93861000D01*
X185690047Y-93813380D02*
X185928142Y-94813380D01*
X186118619Y-94099095D01*
X186309095Y-94813380D01*
X186547190Y-93813380D01*
X187451952Y-94813380D02*
X186880523Y-94813380D01*
X187166238Y-94813380D02*
X187166238Y-93813380D01*
X187071000Y-93956238D01*
X186975761Y-94051476D01*
X186880523Y-94099095D01*
X188071000Y-93813380D02*
X188166238Y-93813380D01*
X188261476Y-93861000D01*
X188309095Y-93908619D01*
X188356714Y-94003857D01*
X188404333Y-94194333D01*
X188404333Y-94432428D01*
X188356714Y-94622904D01*
X188309095Y-94718142D01*
X188261476Y-94765761D01*
X188166238Y-94813380D01*
X188071000Y-94813380D01*
X187975761Y-94765761D01*
X187928142Y-94718142D01*
X187880523Y-94622904D01*
X187832904Y-94432428D01*
X187832904Y-94194333D01*
X187880523Y-94003857D01*
X187928142Y-93908619D01*
X187975761Y-93861000D01*
X188071000Y-93813380D01*
X189261476Y-93813380D02*
X189071000Y-93813380D01*
X188975761Y-93861000D01*
X188928142Y-93908619D01*
X188832904Y-94051476D01*
X188785285Y-94241952D01*
X188785285Y-94622904D01*
X188832904Y-94718142D01*
X188880523Y-94765761D01*
X188975761Y-94813380D01*
X189166238Y-94813380D01*
X189261476Y-94765761D01*
X189309095Y-94718142D01*
X189356714Y-94622904D01*
X189356714Y-94384809D01*
X189309095Y-94289571D01*
X189261476Y-94241952D01*
X189166238Y-94194333D01*
X188975761Y-94194333D01*
X188880523Y-94241952D01*
X188832904Y-94289571D01*
X188785285Y-94384809D01*
%TO.C,SW107*%
X164846285Y-94765761D02*
X164989142Y-94813380D01*
X165227238Y-94813380D01*
X165322476Y-94765761D01*
X165370095Y-94718142D01*
X165417714Y-94622904D01*
X165417714Y-94527666D01*
X165370095Y-94432428D01*
X165322476Y-94384809D01*
X165227238Y-94337190D01*
X165036761Y-94289571D01*
X164941523Y-94241952D01*
X164893904Y-94194333D01*
X164846285Y-94099095D01*
X164846285Y-94003857D01*
X164893904Y-93908619D01*
X164941523Y-93861000D01*
X165036761Y-93813380D01*
X165274857Y-93813380D01*
X165417714Y-93861000D01*
X165751047Y-93813380D02*
X165989142Y-94813380D01*
X166179619Y-94099095D01*
X166370095Y-94813380D01*
X166608190Y-93813380D01*
X167512952Y-94813380D02*
X166941523Y-94813380D01*
X167227238Y-94813380D02*
X167227238Y-93813380D01*
X167132000Y-93956238D01*
X167036761Y-94051476D01*
X166941523Y-94099095D01*
X168132000Y-93813380D02*
X168227238Y-93813380D01*
X168322476Y-93861000D01*
X168370095Y-93908619D01*
X168417714Y-94003857D01*
X168465333Y-94194333D01*
X168465333Y-94432428D01*
X168417714Y-94622904D01*
X168370095Y-94718142D01*
X168322476Y-94765761D01*
X168227238Y-94813380D01*
X168132000Y-94813380D01*
X168036761Y-94765761D01*
X167989142Y-94718142D01*
X167941523Y-94622904D01*
X167893904Y-94432428D01*
X167893904Y-94194333D01*
X167941523Y-94003857D01*
X167989142Y-93908619D01*
X168036761Y-93861000D01*
X168132000Y-93813380D01*
X168798666Y-93813380D02*
X169465333Y-93813380D01*
X169036761Y-94813380D01*
%TO.C,SW109*%
X146685285Y-94765761D02*
X146828142Y-94813380D01*
X147066238Y-94813380D01*
X147161476Y-94765761D01*
X147209095Y-94718142D01*
X147256714Y-94622904D01*
X147256714Y-94527666D01*
X147209095Y-94432428D01*
X147161476Y-94384809D01*
X147066238Y-94337190D01*
X146875761Y-94289571D01*
X146780523Y-94241952D01*
X146732904Y-94194333D01*
X146685285Y-94099095D01*
X146685285Y-94003857D01*
X146732904Y-93908619D01*
X146780523Y-93861000D01*
X146875761Y-93813380D01*
X147113857Y-93813380D01*
X147256714Y-93861000D01*
X147590047Y-93813380D02*
X147828142Y-94813380D01*
X148018619Y-94099095D01*
X148209095Y-94813380D01*
X148447190Y-93813380D01*
X149351952Y-94813380D02*
X148780523Y-94813380D01*
X149066238Y-94813380D02*
X149066238Y-93813380D01*
X148971000Y-93956238D01*
X148875761Y-94051476D01*
X148780523Y-94099095D01*
X149971000Y-93813380D02*
X150066238Y-93813380D01*
X150161476Y-93861000D01*
X150209095Y-93908619D01*
X150256714Y-94003857D01*
X150304333Y-94194333D01*
X150304333Y-94432428D01*
X150256714Y-94622904D01*
X150209095Y-94718142D01*
X150161476Y-94765761D01*
X150066238Y-94813380D01*
X149971000Y-94813380D01*
X149875761Y-94765761D01*
X149828142Y-94718142D01*
X149780523Y-94622904D01*
X149732904Y-94432428D01*
X149732904Y-94194333D01*
X149780523Y-94003857D01*
X149828142Y-93908619D01*
X149875761Y-93861000D01*
X149971000Y-93813380D01*
X150780523Y-94813380D02*
X150971000Y-94813380D01*
X151066238Y-94765761D01*
X151113857Y-94718142D01*
X151209095Y-94575285D01*
X151256714Y-94384809D01*
X151256714Y-94003857D01*
X151209095Y-93908619D01*
X151161476Y-93861000D01*
X151066238Y-93813380D01*
X150875761Y-93813380D01*
X150780523Y-93861000D01*
X150732904Y-93908619D01*
X150685285Y-94003857D01*
X150685285Y-94241952D01*
X150732904Y-94337190D01*
X150780523Y-94384809D01*
X150875761Y-94432428D01*
X151066238Y-94432428D01*
X151161476Y-94384809D01*
X151209095Y-94337190D01*
X151256714Y-94241952D01*
%TO.C,SW112*%
X58674285Y-73937761D02*
X58817142Y-73985380D01*
X59055238Y-73985380D01*
X59150476Y-73937761D01*
X59198095Y-73890142D01*
X59245714Y-73794904D01*
X59245714Y-73699666D01*
X59198095Y-73604428D01*
X59150476Y-73556809D01*
X59055238Y-73509190D01*
X58864761Y-73461571D01*
X58769523Y-73413952D01*
X58721904Y-73366333D01*
X58674285Y-73271095D01*
X58674285Y-73175857D01*
X58721904Y-73080619D01*
X58769523Y-73033000D01*
X58864761Y-72985380D01*
X59102857Y-72985380D01*
X59245714Y-73033000D01*
X59579047Y-72985380D02*
X59817142Y-73985380D01*
X60007619Y-73271095D01*
X60198095Y-73985380D01*
X60436190Y-72985380D01*
X61340952Y-73985380D02*
X60769523Y-73985380D01*
X61055238Y-73985380D02*
X61055238Y-72985380D01*
X60960000Y-73128238D01*
X60864761Y-73223476D01*
X60769523Y-73271095D01*
X62293333Y-73985380D02*
X61721904Y-73985380D01*
X62007619Y-73985380D02*
X62007619Y-72985380D01*
X61912380Y-73128238D01*
X61817142Y-73223476D01*
X61721904Y-73271095D01*
X62674285Y-73080619D02*
X62721904Y-73033000D01*
X62817142Y-72985380D01*
X63055238Y-72985380D01*
X63150476Y-73033000D01*
X63198095Y-73080619D01*
X63245714Y-73175857D01*
X63245714Y-73271095D01*
X63198095Y-73413952D01*
X62626666Y-73985380D01*
X63245714Y-73985380D01*
%TO.C,SW113*%
X76835285Y-74064761D02*
X76978142Y-74112380D01*
X77216238Y-74112380D01*
X77311476Y-74064761D01*
X77359095Y-74017142D01*
X77406714Y-73921904D01*
X77406714Y-73826666D01*
X77359095Y-73731428D01*
X77311476Y-73683809D01*
X77216238Y-73636190D01*
X77025761Y-73588571D01*
X76930523Y-73540952D01*
X76882904Y-73493333D01*
X76835285Y-73398095D01*
X76835285Y-73302857D01*
X76882904Y-73207619D01*
X76930523Y-73160000D01*
X77025761Y-73112380D01*
X77263857Y-73112380D01*
X77406714Y-73160000D01*
X77740047Y-73112380D02*
X77978142Y-74112380D01*
X78168619Y-73398095D01*
X78359095Y-74112380D01*
X78597190Y-73112380D01*
X79501952Y-74112380D02*
X78930523Y-74112380D01*
X79216238Y-74112380D02*
X79216238Y-73112380D01*
X79121000Y-73255238D01*
X79025761Y-73350476D01*
X78930523Y-73398095D01*
X80454333Y-74112380D02*
X79882904Y-74112380D01*
X80168619Y-74112380D02*
X80168619Y-73112380D01*
X80073380Y-73255238D01*
X79978142Y-73350476D01*
X79882904Y-73398095D01*
X80787666Y-73112380D02*
X81406714Y-73112380D01*
X81073380Y-73493333D01*
X81216238Y-73493333D01*
X81311476Y-73540952D01*
X81359095Y-73588571D01*
X81406714Y-73683809D01*
X81406714Y-73921904D01*
X81359095Y-74017142D01*
X81311476Y-74064761D01*
X81216238Y-74112380D01*
X80930523Y-74112380D01*
X80835285Y-74064761D01*
X80787666Y-74017142D01*
%TO.C,DS201*%
X31005333Y-28361380D02*
X31005333Y-27361380D01*
X31243428Y-27361380D01*
X31386285Y-27409000D01*
X31481523Y-27504238D01*
X31529142Y-27599476D01*
X31576761Y-27789952D01*
X31576761Y-27932809D01*
X31529142Y-28123285D01*
X31481523Y-28218523D01*
X31386285Y-28313761D01*
X31243428Y-28361380D01*
X31005333Y-28361380D01*
X31957714Y-28313761D02*
X32100571Y-28361380D01*
X32338666Y-28361380D01*
X32433904Y-28313761D01*
X32481523Y-28266142D01*
X32529142Y-28170904D01*
X32529142Y-28075666D01*
X32481523Y-27980428D01*
X32433904Y-27932809D01*
X32338666Y-27885190D01*
X32148190Y-27837571D01*
X32052952Y-27789952D01*
X32005333Y-27742333D01*
X31957714Y-27647095D01*
X31957714Y-27551857D01*
X32005333Y-27456619D01*
X32052952Y-27409000D01*
X32148190Y-27361380D01*
X32386285Y-27361380D01*
X32529142Y-27409000D01*
X32910095Y-27456619D02*
X32957714Y-27409000D01*
X33052952Y-27361380D01*
X33291047Y-27361380D01*
X33386285Y-27409000D01*
X33433904Y-27456619D01*
X33481523Y-27551857D01*
X33481523Y-27647095D01*
X33433904Y-27789952D01*
X32862476Y-28361380D01*
X33481523Y-28361380D01*
X34100571Y-27361380D02*
X34195809Y-27361380D01*
X34291047Y-27409000D01*
X34338666Y-27456619D01*
X34386285Y-27551857D01*
X34433904Y-27742333D01*
X34433904Y-27980428D01*
X34386285Y-28170904D01*
X34338666Y-28266142D01*
X34291047Y-28313761D01*
X34195809Y-28361380D01*
X34100571Y-28361380D01*
X34005333Y-28313761D01*
X33957714Y-28266142D01*
X33910095Y-28170904D01*
X33862476Y-27980428D01*
X33862476Y-27742333D01*
X33910095Y-27551857D01*
X33957714Y-27456619D01*
X34005333Y-27409000D01*
X34100571Y-27361380D01*
X35386285Y-28361380D02*
X34814857Y-28361380D01*
X35100571Y-28361380D02*
X35100571Y-27361380D01*
X35005333Y-27504238D01*
X34910095Y-27599476D01*
X34814857Y-27647095D01*
%TO.C,SW105*%
X36830285Y-76228561D02*
X36973142Y-76276180D01*
X37211238Y-76276180D01*
X37306476Y-76228561D01*
X37354095Y-76180942D01*
X37401714Y-76085704D01*
X37401714Y-75990466D01*
X37354095Y-75895228D01*
X37306476Y-75847609D01*
X37211238Y-75799990D01*
X37020761Y-75752371D01*
X36925523Y-75704752D01*
X36877904Y-75657133D01*
X36830285Y-75561895D01*
X36830285Y-75466657D01*
X36877904Y-75371419D01*
X36925523Y-75323800D01*
X37020761Y-75276180D01*
X37258857Y-75276180D01*
X37401714Y-75323800D01*
X37735047Y-75276180D02*
X37973142Y-76276180D01*
X38163619Y-75561895D01*
X38354095Y-76276180D01*
X38592190Y-75276180D01*
X39496952Y-76276180D02*
X38925523Y-76276180D01*
X39211238Y-76276180D02*
X39211238Y-75276180D01*
X39116000Y-75419038D01*
X39020761Y-75514276D01*
X38925523Y-75561895D01*
X40116000Y-75276180D02*
X40211238Y-75276180D01*
X40306476Y-75323800D01*
X40354095Y-75371419D01*
X40401714Y-75466657D01*
X40449333Y-75657133D01*
X40449333Y-75895228D01*
X40401714Y-76085704D01*
X40354095Y-76180942D01*
X40306476Y-76228561D01*
X40211238Y-76276180D01*
X40116000Y-76276180D01*
X40020761Y-76228561D01*
X39973142Y-76180942D01*
X39925523Y-76085704D01*
X39877904Y-75895228D01*
X39877904Y-75657133D01*
X39925523Y-75466657D01*
X39973142Y-75371419D01*
X40020761Y-75323800D01*
X40116000Y-75276180D01*
X41354095Y-75276180D02*
X40877904Y-75276180D01*
X40830285Y-75752371D01*
X40877904Y-75704752D01*
X40973142Y-75657133D01*
X41211238Y-75657133D01*
X41306476Y-75704752D01*
X41354095Y-75752371D01*
X41401714Y-75847609D01*
X41401714Y-76085704D01*
X41354095Y-76180942D01*
X41306476Y-76228561D01*
X41211238Y-76276180D01*
X40973142Y-76276180D01*
X40877904Y-76228561D01*
X40830285Y-76180942D01*
%TO.C,SW110*%
X124206285Y-83685761D02*
X124349142Y-83733380D01*
X124587238Y-83733380D01*
X124682476Y-83685761D01*
X124730095Y-83638142D01*
X124777714Y-83542904D01*
X124777714Y-83447666D01*
X124730095Y-83352428D01*
X124682476Y-83304809D01*
X124587238Y-83257190D01*
X124396761Y-83209571D01*
X124301523Y-83161952D01*
X124253904Y-83114333D01*
X124206285Y-83019095D01*
X124206285Y-82923857D01*
X124253904Y-82828619D01*
X124301523Y-82781000D01*
X124396761Y-82733380D01*
X124634857Y-82733380D01*
X124777714Y-82781000D01*
X125111047Y-82733380D02*
X125349142Y-83733380D01*
X125539619Y-83019095D01*
X125730095Y-83733380D01*
X125968190Y-82733380D01*
X126872952Y-83733380D02*
X126301523Y-83733380D01*
X126587238Y-83733380D02*
X126587238Y-82733380D01*
X126492000Y-82876238D01*
X126396761Y-82971476D01*
X126301523Y-83019095D01*
X127825333Y-83733380D02*
X127253904Y-83733380D01*
X127539619Y-83733380D02*
X127539619Y-82733380D01*
X127444380Y-82876238D01*
X127349142Y-82971476D01*
X127253904Y-83019095D01*
X128444380Y-82733380D02*
X128539619Y-82733380D01*
X128634857Y-82781000D01*
X128682476Y-82828619D01*
X128730095Y-82923857D01*
X128777714Y-83114333D01*
X128777714Y-83352428D01*
X128730095Y-83542904D01*
X128682476Y-83638142D01*
X128634857Y-83685761D01*
X128539619Y-83733380D01*
X128444380Y-83733380D01*
X128349142Y-83685761D01*
X128301523Y-83638142D01*
X128253904Y-83542904D01*
X128206285Y-83352428D01*
X128206285Y-83114333D01*
X128253904Y-82923857D01*
X128301523Y-82828619D01*
X128349142Y-82781000D01*
X128444380Y-82733380D01*
%TO.C,D101*%
X153995380Y-56650476D02*
X152995380Y-56650476D01*
X152995380Y-56412380D01*
X153043000Y-56269523D01*
X153138238Y-56174285D01*
X153233476Y-56126666D01*
X153423952Y-56079047D01*
X153566809Y-56079047D01*
X153757285Y-56126666D01*
X153852523Y-56174285D01*
X153947761Y-56269523D01*
X153995380Y-56412380D01*
X153995380Y-56650476D01*
X153995380Y-55126666D02*
X153995380Y-55698095D01*
X153995380Y-55412380D02*
X152995380Y-55412380D01*
X153138238Y-55507619D01*
X153233476Y-55602857D01*
X153281095Y-55698095D01*
X152995380Y-54507619D02*
X152995380Y-54412380D01*
X153043000Y-54317142D01*
X153090619Y-54269523D01*
X153185857Y-54221904D01*
X153376333Y-54174285D01*
X153614428Y-54174285D01*
X153804904Y-54221904D01*
X153900142Y-54269523D01*
X153947761Y-54317142D01*
X153995380Y-54412380D01*
X153995380Y-54507619D01*
X153947761Y-54602857D01*
X153900142Y-54650476D01*
X153804904Y-54698095D01*
X153614428Y-54745714D01*
X153376333Y-54745714D01*
X153185857Y-54698095D01*
X153090619Y-54650476D01*
X153043000Y-54602857D01*
X152995380Y-54507619D01*
X153995380Y-53221904D02*
X153995380Y-53793333D01*
X153995380Y-53507619D02*
X152995380Y-53507619D01*
X153138238Y-53602857D01*
X153233476Y-53698095D01*
X153281095Y-53793333D01*
%TO.C,D102*%
X169997380Y-56650476D02*
X168997380Y-56650476D01*
X168997380Y-56412380D01*
X169045000Y-56269523D01*
X169140238Y-56174285D01*
X169235476Y-56126666D01*
X169425952Y-56079047D01*
X169568809Y-56079047D01*
X169759285Y-56126666D01*
X169854523Y-56174285D01*
X169949761Y-56269523D01*
X169997380Y-56412380D01*
X169997380Y-56650476D01*
X169997380Y-55126666D02*
X169997380Y-55698095D01*
X169997380Y-55412380D02*
X168997380Y-55412380D01*
X169140238Y-55507619D01*
X169235476Y-55602857D01*
X169283095Y-55698095D01*
X168997380Y-54507619D02*
X168997380Y-54412380D01*
X169045000Y-54317142D01*
X169092619Y-54269523D01*
X169187857Y-54221904D01*
X169378333Y-54174285D01*
X169616428Y-54174285D01*
X169806904Y-54221904D01*
X169902142Y-54269523D01*
X169949761Y-54317142D01*
X169997380Y-54412380D01*
X169997380Y-54507619D01*
X169949761Y-54602857D01*
X169902142Y-54650476D01*
X169806904Y-54698095D01*
X169616428Y-54745714D01*
X169378333Y-54745714D01*
X169187857Y-54698095D01*
X169092619Y-54650476D01*
X169045000Y-54602857D01*
X168997380Y-54507619D01*
X169092619Y-53793333D02*
X169045000Y-53745714D01*
X168997380Y-53650476D01*
X168997380Y-53412380D01*
X169045000Y-53317142D01*
X169092619Y-53269523D01*
X169187857Y-53221904D01*
X169283095Y-53221904D01*
X169425952Y-53269523D01*
X169997380Y-53840952D01*
X169997380Y-53221904D01*
%TO.C,D103*%
X153995380Y-45093476D02*
X152995380Y-45093476D01*
X152995380Y-44855380D01*
X153043000Y-44712523D01*
X153138238Y-44617285D01*
X153233476Y-44569666D01*
X153423952Y-44522047D01*
X153566809Y-44522047D01*
X153757285Y-44569666D01*
X153852523Y-44617285D01*
X153947761Y-44712523D01*
X153995380Y-44855380D01*
X153995380Y-45093476D01*
X153995380Y-43569666D02*
X153995380Y-44141095D01*
X153995380Y-43855380D02*
X152995380Y-43855380D01*
X153138238Y-43950619D01*
X153233476Y-44045857D01*
X153281095Y-44141095D01*
X152995380Y-42950619D02*
X152995380Y-42855380D01*
X153043000Y-42760142D01*
X153090619Y-42712523D01*
X153185857Y-42664904D01*
X153376333Y-42617285D01*
X153614428Y-42617285D01*
X153804904Y-42664904D01*
X153900142Y-42712523D01*
X153947761Y-42760142D01*
X153995380Y-42855380D01*
X153995380Y-42950619D01*
X153947761Y-43045857D01*
X153900142Y-43093476D01*
X153804904Y-43141095D01*
X153614428Y-43188714D01*
X153376333Y-43188714D01*
X153185857Y-43141095D01*
X153090619Y-43093476D01*
X153043000Y-43045857D01*
X152995380Y-42950619D01*
X152995380Y-42283952D02*
X152995380Y-41664904D01*
X153376333Y-41998238D01*
X153376333Y-41855380D01*
X153423952Y-41760142D01*
X153471571Y-41712523D01*
X153566809Y-41664904D01*
X153804904Y-41664904D01*
X153900142Y-41712523D01*
X153947761Y-41760142D01*
X153995380Y-41855380D01*
X153995380Y-42141095D01*
X153947761Y-42236333D01*
X153900142Y-42283952D01*
%TO.C,D104*%
X169997380Y-44458476D02*
X168997380Y-44458476D01*
X168997380Y-44220380D01*
X169045000Y-44077523D01*
X169140238Y-43982285D01*
X169235476Y-43934666D01*
X169425952Y-43887047D01*
X169568809Y-43887047D01*
X169759285Y-43934666D01*
X169854523Y-43982285D01*
X169949761Y-44077523D01*
X169997380Y-44220380D01*
X169997380Y-44458476D01*
X169997380Y-42934666D02*
X169997380Y-43506095D01*
X169997380Y-43220380D02*
X168997380Y-43220380D01*
X169140238Y-43315619D01*
X169235476Y-43410857D01*
X169283095Y-43506095D01*
X168997380Y-42315619D02*
X168997380Y-42220380D01*
X169045000Y-42125142D01*
X169092619Y-42077523D01*
X169187857Y-42029904D01*
X169378333Y-41982285D01*
X169616428Y-41982285D01*
X169806904Y-42029904D01*
X169902142Y-42077523D01*
X169949761Y-42125142D01*
X169997380Y-42220380D01*
X169997380Y-42315619D01*
X169949761Y-42410857D01*
X169902142Y-42458476D01*
X169806904Y-42506095D01*
X169616428Y-42553714D01*
X169378333Y-42553714D01*
X169187857Y-42506095D01*
X169092619Y-42458476D01*
X169045000Y-42410857D01*
X168997380Y-42315619D01*
X169330714Y-41125142D02*
X169997380Y-41125142D01*
X168949761Y-41363238D02*
X169664047Y-41601333D01*
X169664047Y-40982285D01*
%TO.C,D105*%
X186126380Y-44839476D02*
X185126380Y-44839476D01*
X185126380Y-44601380D01*
X185174000Y-44458523D01*
X185269238Y-44363285D01*
X185364476Y-44315666D01*
X185554952Y-44268047D01*
X185697809Y-44268047D01*
X185888285Y-44315666D01*
X185983523Y-44363285D01*
X186078761Y-44458523D01*
X186126380Y-44601380D01*
X186126380Y-44839476D01*
X186126380Y-43315666D02*
X186126380Y-43887095D01*
X186126380Y-43601380D02*
X185126380Y-43601380D01*
X185269238Y-43696619D01*
X185364476Y-43791857D01*
X185412095Y-43887095D01*
X185126380Y-42696619D02*
X185126380Y-42601380D01*
X185174000Y-42506142D01*
X185221619Y-42458523D01*
X185316857Y-42410904D01*
X185507333Y-42363285D01*
X185745428Y-42363285D01*
X185935904Y-42410904D01*
X186031142Y-42458523D01*
X186078761Y-42506142D01*
X186126380Y-42601380D01*
X186126380Y-42696619D01*
X186078761Y-42791857D01*
X186031142Y-42839476D01*
X185935904Y-42887095D01*
X185745428Y-42934714D01*
X185507333Y-42934714D01*
X185316857Y-42887095D01*
X185221619Y-42839476D01*
X185174000Y-42791857D01*
X185126380Y-42696619D01*
X185126380Y-41458523D02*
X185126380Y-41934714D01*
X185602571Y-41982333D01*
X185554952Y-41934714D01*
X185507333Y-41839476D01*
X185507333Y-41601380D01*
X185554952Y-41506142D01*
X185602571Y-41458523D01*
X185697809Y-41410904D01*
X185935904Y-41410904D01*
X186031142Y-41458523D01*
X186078761Y-41506142D01*
X186126380Y-41601380D01*
X186126380Y-41839476D01*
X186078761Y-41934714D01*
X186031142Y-41982333D01*
%TO.C,D106*%
X185507523Y-119420380D02*
X185507523Y-118420380D01*
X185745619Y-118420380D01*
X185888476Y-118468000D01*
X185983714Y-118563238D01*
X186031333Y-118658476D01*
X186078952Y-118848952D01*
X186078952Y-118991809D01*
X186031333Y-119182285D01*
X185983714Y-119277523D01*
X185888476Y-119372761D01*
X185745619Y-119420380D01*
X185507523Y-119420380D01*
X187031333Y-119420380D02*
X186459904Y-119420380D01*
X186745619Y-119420380D02*
X186745619Y-118420380D01*
X186650380Y-118563238D01*
X186555142Y-118658476D01*
X186459904Y-118706095D01*
X187650380Y-118420380D02*
X187745619Y-118420380D01*
X187840857Y-118468000D01*
X187888476Y-118515619D01*
X187936095Y-118610857D01*
X187983714Y-118801333D01*
X187983714Y-119039428D01*
X187936095Y-119229904D01*
X187888476Y-119325142D01*
X187840857Y-119372761D01*
X187745619Y-119420380D01*
X187650380Y-119420380D01*
X187555142Y-119372761D01*
X187507523Y-119325142D01*
X187459904Y-119229904D01*
X187412285Y-119039428D01*
X187412285Y-118801333D01*
X187459904Y-118610857D01*
X187507523Y-118515619D01*
X187555142Y-118468000D01*
X187650380Y-118420380D01*
X188840857Y-118420380D02*
X188650380Y-118420380D01*
X188555142Y-118468000D01*
X188507523Y-118515619D01*
X188412285Y-118658476D01*
X188364666Y-118848952D01*
X188364666Y-119229904D01*
X188412285Y-119325142D01*
X188459904Y-119372761D01*
X188555142Y-119420380D01*
X188745619Y-119420380D01*
X188840857Y-119372761D01*
X188888476Y-119325142D01*
X188936095Y-119229904D01*
X188936095Y-118991809D01*
X188888476Y-118896571D01*
X188840857Y-118848952D01*
X188745619Y-118801333D01*
X188555142Y-118801333D01*
X188459904Y-118848952D01*
X188412285Y-118896571D01*
X188364666Y-118991809D01*
%TO.C,RV101*%
X77700380Y-101163380D02*
X77367047Y-100687190D01*
X77128952Y-101163380D02*
X77128952Y-100163380D01*
X77509904Y-100163380D01*
X77605142Y-100211000D01*
X77652761Y-100258619D01*
X77700380Y-100353857D01*
X77700380Y-100496714D01*
X77652761Y-100591952D01*
X77605142Y-100639571D01*
X77509904Y-100687190D01*
X77128952Y-100687190D01*
X77986095Y-100163380D02*
X78319428Y-101163380D01*
X78652761Y-100163380D01*
X79509904Y-101163380D02*
X78938476Y-101163380D01*
X79224190Y-101163380D02*
X79224190Y-100163380D01*
X79128952Y-100306238D01*
X79033714Y-100401476D01*
X78938476Y-100449095D01*
X80128952Y-100163380D02*
X80224190Y-100163380D01*
X80319428Y-100211000D01*
X80367047Y-100258619D01*
X80414666Y-100353857D01*
X80462285Y-100544333D01*
X80462285Y-100782428D01*
X80414666Y-100972904D01*
X80367047Y-101068142D01*
X80319428Y-101115761D01*
X80224190Y-101163380D01*
X80128952Y-101163380D01*
X80033714Y-101115761D01*
X79986095Y-101068142D01*
X79938476Y-100972904D01*
X79890857Y-100782428D01*
X79890857Y-100544333D01*
X79938476Y-100353857D01*
X79986095Y-100258619D01*
X80033714Y-100211000D01*
X80128952Y-100163380D01*
X81414666Y-101163380D02*
X80843238Y-101163380D01*
X81128952Y-101163380D02*
X81128952Y-100163380D01*
X81033714Y-100306238D01*
X80938476Y-100401476D01*
X80843238Y-100449095D01*
%TO.C,RV102*%
X59666380Y-101163380D02*
X59333047Y-100687190D01*
X59094952Y-101163380D02*
X59094952Y-100163380D01*
X59475904Y-100163380D01*
X59571142Y-100211000D01*
X59618761Y-100258619D01*
X59666380Y-100353857D01*
X59666380Y-100496714D01*
X59618761Y-100591952D01*
X59571142Y-100639571D01*
X59475904Y-100687190D01*
X59094952Y-100687190D01*
X59952095Y-100163380D02*
X60285428Y-101163380D01*
X60618761Y-100163380D01*
X61475904Y-101163380D02*
X60904476Y-101163380D01*
X61190190Y-101163380D02*
X61190190Y-100163380D01*
X61094952Y-100306238D01*
X60999714Y-100401476D01*
X60904476Y-100449095D01*
X62094952Y-100163380D02*
X62190190Y-100163380D01*
X62285428Y-100211000D01*
X62333047Y-100258619D01*
X62380666Y-100353857D01*
X62428285Y-100544333D01*
X62428285Y-100782428D01*
X62380666Y-100972904D01*
X62333047Y-101068142D01*
X62285428Y-101115761D01*
X62190190Y-101163380D01*
X62094952Y-101163380D01*
X61999714Y-101115761D01*
X61952095Y-101068142D01*
X61904476Y-100972904D01*
X61856857Y-100782428D01*
X61856857Y-100544333D01*
X61904476Y-100353857D01*
X61952095Y-100258619D01*
X61999714Y-100211000D01*
X62094952Y-100163380D01*
X62809238Y-100258619D02*
X62856857Y-100211000D01*
X62952095Y-100163380D01*
X63190190Y-100163380D01*
X63285428Y-100211000D01*
X63333047Y-100258619D01*
X63380666Y-100353857D01*
X63380666Y-100449095D01*
X63333047Y-100591952D01*
X62761619Y-101163380D01*
X63380666Y-101163380D01*
%TO.C,RV103*%
X98782380Y-101163380D02*
X98449047Y-100687190D01*
X98210952Y-101163380D02*
X98210952Y-100163380D01*
X98591904Y-100163380D01*
X98687142Y-100211000D01*
X98734761Y-100258619D01*
X98782380Y-100353857D01*
X98782380Y-100496714D01*
X98734761Y-100591952D01*
X98687142Y-100639571D01*
X98591904Y-100687190D01*
X98210952Y-100687190D01*
X99068095Y-100163380D02*
X99401428Y-101163380D01*
X99734761Y-100163380D01*
X100591904Y-101163380D02*
X100020476Y-101163380D01*
X100306190Y-101163380D02*
X100306190Y-100163380D01*
X100210952Y-100306238D01*
X100115714Y-100401476D01*
X100020476Y-100449095D01*
X101210952Y-100163380D02*
X101306190Y-100163380D01*
X101401428Y-100211000D01*
X101449047Y-100258619D01*
X101496666Y-100353857D01*
X101544285Y-100544333D01*
X101544285Y-100782428D01*
X101496666Y-100972904D01*
X101449047Y-101068142D01*
X101401428Y-101115761D01*
X101306190Y-101163380D01*
X101210952Y-101163380D01*
X101115714Y-101115761D01*
X101068095Y-101068142D01*
X101020476Y-100972904D01*
X100972857Y-100782428D01*
X100972857Y-100544333D01*
X101020476Y-100353857D01*
X101068095Y-100258619D01*
X101115714Y-100211000D01*
X101210952Y-100163380D01*
X101877619Y-100163380D02*
X102496666Y-100163380D01*
X102163333Y-100544333D01*
X102306190Y-100544333D01*
X102401428Y-100591952D01*
X102449047Y-100639571D01*
X102496666Y-100734809D01*
X102496666Y-100972904D01*
X102449047Y-101068142D01*
X102401428Y-101115761D01*
X102306190Y-101163380D01*
X102020476Y-101163380D01*
X101925238Y-101115761D01*
X101877619Y-101068142D01*
%TO.C,RV104*%
X124690380Y-101163380D02*
X124357047Y-100687190D01*
X124118952Y-101163380D02*
X124118952Y-100163380D01*
X124499904Y-100163380D01*
X124595142Y-100211000D01*
X124642761Y-100258619D01*
X124690380Y-100353857D01*
X124690380Y-100496714D01*
X124642761Y-100591952D01*
X124595142Y-100639571D01*
X124499904Y-100687190D01*
X124118952Y-100687190D01*
X124976095Y-100163380D02*
X125309428Y-101163380D01*
X125642761Y-100163380D01*
X126499904Y-101163380D02*
X125928476Y-101163380D01*
X126214190Y-101163380D02*
X126214190Y-100163380D01*
X126118952Y-100306238D01*
X126023714Y-100401476D01*
X125928476Y-100449095D01*
X127118952Y-100163380D02*
X127214190Y-100163380D01*
X127309428Y-100211000D01*
X127357047Y-100258619D01*
X127404666Y-100353857D01*
X127452285Y-100544333D01*
X127452285Y-100782428D01*
X127404666Y-100972904D01*
X127357047Y-101068142D01*
X127309428Y-101115761D01*
X127214190Y-101163380D01*
X127118952Y-101163380D01*
X127023714Y-101115761D01*
X126976095Y-101068142D01*
X126928476Y-100972904D01*
X126880857Y-100782428D01*
X126880857Y-100544333D01*
X126928476Y-100353857D01*
X126976095Y-100258619D01*
X127023714Y-100211000D01*
X127118952Y-100163380D01*
X128309428Y-100496714D02*
X128309428Y-101163380D01*
X128071333Y-100115761D02*
X127833238Y-100830047D01*
X128452285Y-100830047D01*
%TO.C,SW102*%
X36449285Y-138834761D02*
X36592142Y-138882380D01*
X36830238Y-138882380D01*
X36925476Y-138834761D01*
X36973095Y-138787142D01*
X37020714Y-138691904D01*
X37020714Y-138596666D01*
X36973095Y-138501428D01*
X36925476Y-138453809D01*
X36830238Y-138406190D01*
X36639761Y-138358571D01*
X36544523Y-138310952D01*
X36496904Y-138263333D01*
X36449285Y-138168095D01*
X36449285Y-138072857D01*
X36496904Y-137977619D01*
X36544523Y-137930000D01*
X36639761Y-137882380D01*
X36877857Y-137882380D01*
X37020714Y-137930000D01*
X37354047Y-137882380D02*
X37592142Y-138882380D01*
X37782619Y-138168095D01*
X37973095Y-138882380D01*
X38211190Y-137882380D01*
X39115952Y-138882380D02*
X38544523Y-138882380D01*
X38830238Y-138882380D02*
X38830238Y-137882380D01*
X38735000Y-138025238D01*
X38639761Y-138120476D01*
X38544523Y-138168095D01*
X39735000Y-137882380D02*
X39830238Y-137882380D01*
X39925476Y-137930000D01*
X39973095Y-137977619D01*
X40020714Y-138072857D01*
X40068333Y-138263333D01*
X40068333Y-138501428D01*
X40020714Y-138691904D01*
X39973095Y-138787142D01*
X39925476Y-138834761D01*
X39830238Y-138882380D01*
X39735000Y-138882380D01*
X39639761Y-138834761D01*
X39592142Y-138787142D01*
X39544523Y-138691904D01*
X39496904Y-138501428D01*
X39496904Y-138263333D01*
X39544523Y-138072857D01*
X39592142Y-137977619D01*
X39639761Y-137930000D01*
X39735000Y-137882380D01*
X40449285Y-137977619D02*
X40496904Y-137930000D01*
X40592142Y-137882380D01*
X40830238Y-137882380D01*
X40925476Y-137930000D01*
X40973095Y-137977619D01*
X41020714Y-138072857D01*
X41020714Y-138168095D01*
X40973095Y-138310952D01*
X40401666Y-138882380D01*
X41020714Y-138882380D01*
%TO.C,SW103*%
X36830285Y-97086961D02*
X36973142Y-97134580D01*
X37211238Y-97134580D01*
X37306476Y-97086961D01*
X37354095Y-97039342D01*
X37401714Y-96944104D01*
X37401714Y-96848866D01*
X37354095Y-96753628D01*
X37306476Y-96706009D01*
X37211238Y-96658390D01*
X37020761Y-96610771D01*
X36925523Y-96563152D01*
X36877904Y-96515533D01*
X36830285Y-96420295D01*
X36830285Y-96325057D01*
X36877904Y-96229819D01*
X36925523Y-96182200D01*
X37020761Y-96134580D01*
X37258857Y-96134580D01*
X37401714Y-96182200D01*
X37735047Y-96134580D02*
X37973142Y-97134580D01*
X38163619Y-96420295D01*
X38354095Y-97134580D01*
X38592190Y-96134580D01*
X39496952Y-97134580D02*
X38925523Y-97134580D01*
X39211238Y-97134580D02*
X39211238Y-96134580D01*
X39116000Y-96277438D01*
X39020761Y-96372676D01*
X38925523Y-96420295D01*
X40116000Y-96134580D02*
X40211238Y-96134580D01*
X40306476Y-96182200D01*
X40354095Y-96229819D01*
X40401714Y-96325057D01*
X40449333Y-96515533D01*
X40449333Y-96753628D01*
X40401714Y-96944104D01*
X40354095Y-97039342D01*
X40306476Y-97086961D01*
X40211238Y-97134580D01*
X40116000Y-97134580D01*
X40020761Y-97086961D01*
X39973142Y-97039342D01*
X39925523Y-96944104D01*
X39877904Y-96753628D01*
X39877904Y-96515533D01*
X39925523Y-96325057D01*
X39973142Y-96229819D01*
X40020761Y-96182200D01*
X40116000Y-96134580D01*
X40782666Y-96134580D02*
X41401714Y-96134580D01*
X41068380Y-96515533D01*
X41211238Y-96515533D01*
X41306476Y-96563152D01*
X41354095Y-96610771D01*
X41401714Y-96706009D01*
X41401714Y-96944104D01*
X41354095Y-97039342D01*
X41306476Y-97086961D01*
X41211238Y-97134580D01*
X40925523Y-97134580D01*
X40830285Y-97086961D01*
X40782666Y-97039342D01*
%TO.C,SW104*%
X36830285Y-117945361D02*
X36973142Y-117992980D01*
X37211238Y-117992980D01*
X37306476Y-117945361D01*
X37354095Y-117897742D01*
X37401714Y-117802504D01*
X37401714Y-117707266D01*
X37354095Y-117612028D01*
X37306476Y-117564409D01*
X37211238Y-117516790D01*
X37020761Y-117469171D01*
X36925523Y-117421552D01*
X36877904Y-117373933D01*
X36830285Y-117278695D01*
X36830285Y-117183457D01*
X36877904Y-117088219D01*
X36925523Y-117040600D01*
X37020761Y-116992980D01*
X37258857Y-116992980D01*
X37401714Y-117040600D01*
X37735047Y-116992980D02*
X37973142Y-117992980D01*
X38163619Y-117278695D01*
X38354095Y-117992980D01*
X38592190Y-116992980D01*
X39496952Y-117992980D02*
X38925523Y-117992980D01*
X39211238Y-117992980D02*
X39211238Y-116992980D01*
X39116000Y-117135838D01*
X39020761Y-117231076D01*
X38925523Y-117278695D01*
X40116000Y-116992980D02*
X40211238Y-116992980D01*
X40306476Y-117040600D01*
X40354095Y-117088219D01*
X40401714Y-117183457D01*
X40449333Y-117373933D01*
X40449333Y-117612028D01*
X40401714Y-117802504D01*
X40354095Y-117897742D01*
X40306476Y-117945361D01*
X40211238Y-117992980D01*
X40116000Y-117992980D01*
X40020761Y-117945361D01*
X39973142Y-117897742D01*
X39925523Y-117802504D01*
X39877904Y-117612028D01*
X39877904Y-117373933D01*
X39925523Y-117183457D01*
X39973142Y-117088219D01*
X40020761Y-117040600D01*
X40116000Y-116992980D01*
X41306476Y-117326314D02*
X41306476Y-117992980D01*
X41068380Y-116945361D02*
X40830285Y-117659647D01*
X41449333Y-117659647D01*
%TO.C,U102*%
X170243714Y-127183380D02*
X170243714Y-127992904D01*
X170291333Y-128088142D01*
X170338952Y-128135761D01*
X170434190Y-128183380D01*
X170624666Y-128183380D01*
X170719904Y-128135761D01*
X170767523Y-128088142D01*
X170815142Y-127992904D01*
X170815142Y-127183380D01*
X171815142Y-128183380D02*
X171243714Y-128183380D01*
X171529428Y-128183380D02*
X171529428Y-127183380D01*
X171434190Y-127326238D01*
X171338952Y-127421476D01*
X171243714Y-127469095D01*
X172434190Y-127183380D02*
X172529428Y-127183380D01*
X172624666Y-127231000D01*
X172672285Y-127278619D01*
X172719904Y-127373857D01*
X172767523Y-127564333D01*
X172767523Y-127802428D01*
X172719904Y-127992904D01*
X172672285Y-128088142D01*
X172624666Y-128135761D01*
X172529428Y-128183380D01*
X172434190Y-128183380D01*
X172338952Y-128135761D01*
X172291333Y-128088142D01*
X172243714Y-127992904D01*
X172196095Y-127802428D01*
X172196095Y-127564333D01*
X172243714Y-127373857D01*
X172291333Y-127278619D01*
X172338952Y-127231000D01*
X172434190Y-127183380D01*
X173148476Y-127278619D02*
X173196095Y-127231000D01*
X173291333Y-127183380D01*
X173529428Y-127183380D01*
X173624666Y-127231000D01*
X173672285Y-127278619D01*
X173719904Y-127373857D01*
X173719904Y-127469095D01*
X173672285Y-127611952D01*
X173100857Y-128183380D01*
X173719904Y-128183380D01*
%TO.C,C201*%
X73538142Y-49541047D02*
X73585761Y-49588666D01*
X73633380Y-49731523D01*
X73633380Y-49826761D01*
X73585761Y-49969619D01*
X73490523Y-50064857D01*
X73395285Y-50112476D01*
X73204809Y-50160095D01*
X73061952Y-50160095D01*
X72871476Y-50112476D01*
X72776238Y-50064857D01*
X72681000Y-49969619D01*
X72633380Y-49826761D01*
X72633380Y-49731523D01*
X72681000Y-49588666D01*
X72728619Y-49541047D01*
X72728619Y-49160095D02*
X72681000Y-49112476D01*
X72633380Y-49017238D01*
X72633380Y-48779142D01*
X72681000Y-48683904D01*
X72728619Y-48636285D01*
X72823857Y-48588666D01*
X72919095Y-48588666D01*
X73061952Y-48636285D01*
X73633380Y-49207714D01*
X73633380Y-48588666D01*
X72633380Y-47969619D02*
X72633380Y-47874380D01*
X72681000Y-47779142D01*
X72728619Y-47731523D01*
X72823857Y-47683904D01*
X73014333Y-47636285D01*
X73252428Y-47636285D01*
X73442904Y-47683904D01*
X73538142Y-47731523D01*
X73585761Y-47779142D01*
X73633380Y-47874380D01*
X73633380Y-47969619D01*
X73585761Y-48064857D01*
X73538142Y-48112476D01*
X73442904Y-48160095D01*
X73252428Y-48207714D01*
X73014333Y-48207714D01*
X72823857Y-48160095D01*
X72728619Y-48112476D01*
X72681000Y-48064857D01*
X72633380Y-47969619D01*
X73633380Y-46683904D02*
X73633380Y-47255333D01*
X73633380Y-46969619D02*
X72633380Y-46969619D01*
X72776238Y-47064857D01*
X72871476Y-47160095D01*
X72919095Y-47255333D01*
%TD*%
M02*
