%TF.GenerationSoftware,KiCad,Pcbnew,(5.1.9)-1*%
%TF.CreationDate,2021-02-05T13:08:36+01:00*%
%TF.ProjectId,testbench_io,74657374-6265-46e6-9368-5f696f2e6b69,rev?*%
%TF.SameCoordinates,Original*%
%TF.FileFunction,Paste,Bot*%
%TF.FilePolarity,Positive*%
%FSLAX46Y46*%
G04 Gerber Fmt 4.6, Leading zero omitted, Abs format (unit mm)*
G04 Created by KiCad (PCBNEW (5.1.9)-1) date 2021-02-05 13:08:36*
%MOMM*%
%LPD*%
G01*
G04 APERTURE LIST*
%ADD10R,2.750000X3.050000*%
%ADD11R,1.200000X2.200000*%
%ADD12R,0.800000X0.900000*%
G04 APERTURE END LIST*
%TO.C,R306*%
G36*
G01*
X52091000Y-118439000D02*
X52091000Y-118989000D01*
G75*
G02*
X51891000Y-119189000I-200000J0D01*
G01*
X51491000Y-119189000D01*
G75*
G02*
X51291000Y-118989000I0J200000D01*
G01*
X51291000Y-118439000D01*
G75*
G02*
X51491000Y-118239000I200000J0D01*
G01*
X51891000Y-118239000D01*
G75*
G02*
X52091000Y-118439000I0J-200000D01*
G01*
G37*
G36*
G01*
X53741000Y-118439000D02*
X53741000Y-118989000D01*
G75*
G02*
X53541000Y-119189000I-200000J0D01*
G01*
X53141000Y-119189000D01*
G75*
G02*
X52941000Y-118989000I0J200000D01*
G01*
X52941000Y-118439000D01*
G75*
G02*
X53141000Y-118239000I200000J0D01*
G01*
X53541000Y-118239000D01*
G75*
G02*
X53741000Y-118439000I0J-200000D01*
G01*
G37*
%TD*%
D10*
%TO.C,Q306*%
X54104800Y-126733600D03*
X51054800Y-130083600D03*
X51054800Y-126733600D03*
X54104800Y-130083600D03*
D11*
X54859800Y-122108600D03*
X50299800Y-122108600D03*
%TD*%
D10*
%TO.C,Q305*%
X64694000Y-126733600D03*
X61644000Y-130083600D03*
X61644000Y-126733600D03*
X64694000Y-130083600D03*
D11*
X65449000Y-122108600D03*
X60889000Y-122108600D03*
%TD*%
%TO.C,R305*%
G36*
G01*
X62704000Y-118439000D02*
X62704000Y-118989000D01*
G75*
G02*
X62504000Y-119189000I-200000J0D01*
G01*
X62104000Y-119189000D01*
G75*
G02*
X61904000Y-118989000I0J200000D01*
G01*
X61904000Y-118439000D01*
G75*
G02*
X62104000Y-118239000I200000J0D01*
G01*
X62504000Y-118239000D01*
G75*
G02*
X62704000Y-118439000I0J-200000D01*
G01*
G37*
G36*
G01*
X64354000Y-118439000D02*
X64354000Y-118989000D01*
G75*
G02*
X64154000Y-119189000I-200000J0D01*
G01*
X63754000Y-119189000D01*
G75*
G02*
X63554000Y-118989000I0J200000D01*
G01*
X63554000Y-118439000D01*
G75*
G02*
X63754000Y-118239000I200000J0D01*
G01*
X64154000Y-118239000D01*
G75*
G02*
X64354000Y-118439000I0J-200000D01*
G01*
G37*
%TD*%
D10*
%TO.C,Q304*%
X75283200Y-126733600D03*
X72233200Y-130083600D03*
X72233200Y-126733600D03*
X75283200Y-130083600D03*
D11*
X76038200Y-122108600D03*
X71478200Y-122108600D03*
%TD*%
D10*
%TO.C,Q303*%
X85872400Y-126733600D03*
X82822400Y-130083600D03*
X82822400Y-126733600D03*
X85872400Y-130083600D03*
D11*
X86627400Y-122108600D03*
X82067400Y-122108600D03*
%TD*%
D10*
%TO.C,Q302*%
X96461600Y-126733600D03*
X93411600Y-130083600D03*
X93411600Y-126733600D03*
X96461600Y-130083600D03*
D11*
X97216600Y-122108600D03*
X92656600Y-122108600D03*
%TD*%
D10*
%TO.C,Q301*%
X107050800Y-126733600D03*
X104000800Y-130083600D03*
X104000800Y-126733600D03*
X107050800Y-130083600D03*
D11*
X107805800Y-122108600D03*
X103245800Y-122108600D03*
%TD*%
D12*
%TO.C,Q201*%
X82296000Y-40117000D03*
X81346000Y-42117000D03*
X83246000Y-42117000D03*
%TD*%
%TO.C,R101*%
G36*
G01*
X145815000Y-52082000D02*
X145815000Y-52632000D01*
G75*
G02*
X145615000Y-52832000I-200000J0D01*
G01*
X145215000Y-52832000D01*
G75*
G02*
X145015000Y-52632000I0J200000D01*
G01*
X145015000Y-52082000D01*
G75*
G02*
X145215000Y-51882000I200000J0D01*
G01*
X145615000Y-51882000D01*
G75*
G02*
X145815000Y-52082000I0J-200000D01*
G01*
G37*
G36*
G01*
X145815000Y-53732000D02*
X145815000Y-54282000D01*
G75*
G02*
X145615000Y-54482000I-200000J0D01*
G01*
X145215000Y-54482000D01*
G75*
G02*
X145015000Y-54282000I0J200000D01*
G01*
X145015000Y-53732000D01*
G75*
G02*
X145215000Y-53532000I200000J0D01*
G01*
X145615000Y-53532000D01*
G75*
G02*
X145815000Y-53732000I0J-200000D01*
G01*
G37*
%TD*%
%TO.C,R102*%
G36*
G01*
X161893200Y-52094200D02*
X161893200Y-52644200D01*
G75*
G02*
X161693200Y-52844200I-200000J0D01*
G01*
X161293200Y-52844200D01*
G75*
G02*
X161093200Y-52644200I0J200000D01*
G01*
X161093200Y-52094200D01*
G75*
G02*
X161293200Y-51894200I200000J0D01*
G01*
X161693200Y-51894200D01*
G75*
G02*
X161893200Y-52094200I0J-200000D01*
G01*
G37*
G36*
G01*
X161893200Y-53744200D02*
X161893200Y-54294200D01*
G75*
G02*
X161693200Y-54494200I-200000J0D01*
G01*
X161293200Y-54494200D01*
G75*
G02*
X161093200Y-54294200I0J200000D01*
G01*
X161093200Y-53744200D01*
G75*
G02*
X161293200Y-53544200I200000J0D01*
G01*
X161693200Y-53544200D01*
G75*
G02*
X161893200Y-53744200I0J-200000D01*
G01*
G37*
%TD*%
%TO.C,R103*%
G36*
G01*
X145688000Y-45350000D02*
X145688000Y-45900000D01*
G75*
G02*
X145488000Y-46100000I-200000J0D01*
G01*
X145088000Y-46100000D01*
G75*
G02*
X144888000Y-45900000I0J200000D01*
G01*
X144888000Y-45350000D01*
G75*
G02*
X145088000Y-45150000I200000J0D01*
G01*
X145488000Y-45150000D01*
G75*
G02*
X145688000Y-45350000I0J-200000D01*
G01*
G37*
G36*
G01*
X145688000Y-43700000D02*
X145688000Y-44250000D01*
G75*
G02*
X145488000Y-44450000I-200000J0D01*
G01*
X145088000Y-44450000D01*
G75*
G02*
X144888000Y-44250000I0J200000D01*
G01*
X144888000Y-43700000D01*
G75*
G02*
X145088000Y-43500000I200000J0D01*
G01*
X145488000Y-43500000D01*
G75*
G02*
X145688000Y-43700000I0J-200000D01*
G01*
G37*
%TD*%
%TO.C,R104*%
G36*
G01*
X166541000Y-119497000D02*
X166541000Y-118947000D01*
G75*
G02*
X166741000Y-118747000I200000J0D01*
G01*
X167141000Y-118747000D01*
G75*
G02*
X167341000Y-118947000I0J-200000D01*
G01*
X167341000Y-119497000D01*
G75*
G02*
X167141000Y-119697000I-200000J0D01*
G01*
X166741000Y-119697000D01*
G75*
G02*
X166541000Y-119497000I0J200000D01*
G01*
G37*
G36*
G01*
X164891000Y-119497000D02*
X164891000Y-118947000D01*
G75*
G02*
X165091000Y-118747000I200000J0D01*
G01*
X165491000Y-118747000D01*
G75*
G02*
X165691000Y-118947000I0J-200000D01*
G01*
X165691000Y-119497000D01*
G75*
G02*
X165491000Y-119697000I-200000J0D01*
G01*
X165091000Y-119697000D01*
G75*
G02*
X164891000Y-119497000I0J200000D01*
G01*
G37*
%TD*%
%TO.C,R105*%
G36*
G01*
X161867800Y-45350000D02*
X161867800Y-45900000D01*
G75*
G02*
X161667800Y-46100000I-200000J0D01*
G01*
X161267800Y-46100000D01*
G75*
G02*
X161067800Y-45900000I0J200000D01*
G01*
X161067800Y-45350000D01*
G75*
G02*
X161267800Y-45150000I200000J0D01*
G01*
X161667800Y-45150000D01*
G75*
G02*
X161867800Y-45350000I0J-200000D01*
G01*
G37*
G36*
G01*
X161867800Y-43700000D02*
X161867800Y-44250000D01*
G75*
G02*
X161667800Y-44450000I-200000J0D01*
G01*
X161267800Y-44450000D01*
G75*
G02*
X161067800Y-44250000I0J200000D01*
G01*
X161067800Y-43700000D01*
G75*
G02*
X161267800Y-43500000I200000J0D01*
G01*
X161667800Y-43500000D01*
G75*
G02*
X161867800Y-43700000I0J-200000D01*
G01*
G37*
%TD*%
%TO.C,R106*%
G36*
G01*
X177996800Y-45350000D02*
X177996800Y-45900000D01*
G75*
G02*
X177796800Y-46100000I-200000J0D01*
G01*
X177396800Y-46100000D01*
G75*
G02*
X177196800Y-45900000I0J200000D01*
G01*
X177196800Y-45350000D01*
G75*
G02*
X177396800Y-45150000I200000J0D01*
G01*
X177796800Y-45150000D01*
G75*
G02*
X177996800Y-45350000I0J-200000D01*
G01*
G37*
G36*
G01*
X177996800Y-43700000D02*
X177996800Y-44250000D01*
G75*
G02*
X177796800Y-44450000I-200000J0D01*
G01*
X177396800Y-44450000D01*
G75*
G02*
X177196800Y-44250000I0J200000D01*
G01*
X177196800Y-43700000D01*
G75*
G02*
X177396800Y-43500000I200000J0D01*
G01*
X177796800Y-43500000D01*
G75*
G02*
X177996800Y-43700000I0J-200000D01*
G01*
G37*
%TD*%
%TO.C,R108*%
G36*
G01*
X182046200Y-117208600D02*
X182596200Y-117208600D01*
G75*
G02*
X182796200Y-117408600I0J-200000D01*
G01*
X182796200Y-117808600D01*
G75*
G02*
X182596200Y-118008600I-200000J0D01*
G01*
X182046200Y-118008600D01*
G75*
G02*
X181846200Y-117808600I0J200000D01*
G01*
X181846200Y-117408600D01*
G75*
G02*
X182046200Y-117208600I200000J0D01*
G01*
G37*
G36*
G01*
X182046200Y-115558600D02*
X182596200Y-115558600D01*
G75*
G02*
X182796200Y-115758600I0J-200000D01*
G01*
X182796200Y-116158600D01*
G75*
G02*
X182596200Y-116358600I-200000J0D01*
G01*
X182046200Y-116358600D01*
G75*
G02*
X181846200Y-116158600I0J200000D01*
G01*
X181846200Y-115758600D01*
G75*
G02*
X182046200Y-115558600I200000J0D01*
G01*
G37*
%TD*%
%TO.C,R201*%
G36*
G01*
X49867000Y-51383000D02*
X49867000Y-51933000D01*
G75*
G02*
X49667000Y-52133000I-200000J0D01*
G01*
X49267000Y-52133000D01*
G75*
G02*
X49067000Y-51933000I0J200000D01*
G01*
X49067000Y-51383000D01*
G75*
G02*
X49267000Y-51183000I200000J0D01*
G01*
X49667000Y-51183000D01*
G75*
G02*
X49867000Y-51383000I0J-200000D01*
G01*
G37*
G36*
G01*
X51517000Y-51383000D02*
X51517000Y-51933000D01*
G75*
G02*
X51317000Y-52133000I-200000J0D01*
G01*
X50917000Y-52133000D01*
G75*
G02*
X50717000Y-51933000I0J200000D01*
G01*
X50717000Y-51383000D01*
G75*
G02*
X50917000Y-51183000I200000J0D01*
G01*
X51317000Y-51183000D01*
G75*
G02*
X51517000Y-51383000I0J-200000D01*
G01*
G37*
%TD*%
%TO.C,R202*%
G36*
G01*
X80166800Y-59255200D02*
X80716800Y-59255200D01*
G75*
G02*
X80916800Y-59455200I0J-200000D01*
G01*
X80916800Y-59855200D01*
G75*
G02*
X80716800Y-60055200I-200000J0D01*
G01*
X80166800Y-60055200D01*
G75*
G02*
X79966800Y-59855200I0J200000D01*
G01*
X79966800Y-59455200D01*
G75*
G02*
X80166800Y-59255200I200000J0D01*
G01*
G37*
G36*
G01*
X80166800Y-57605200D02*
X80716800Y-57605200D01*
G75*
G02*
X80916800Y-57805200I0J-200000D01*
G01*
X80916800Y-58205200D01*
G75*
G02*
X80716800Y-58405200I-200000J0D01*
G01*
X80166800Y-58405200D01*
G75*
G02*
X79966800Y-58205200I0J200000D01*
G01*
X79966800Y-57805200D01*
G75*
G02*
X80166800Y-57605200I200000J0D01*
G01*
G37*
%TD*%
%TO.C,R203*%
G36*
G01*
X86508000Y-58405200D02*
X85958000Y-58405200D01*
G75*
G02*
X85758000Y-58205200I0J200000D01*
G01*
X85758000Y-57805200D01*
G75*
G02*
X85958000Y-57605200I200000J0D01*
G01*
X86508000Y-57605200D01*
G75*
G02*
X86708000Y-57805200I0J-200000D01*
G01*
X86708000Y-58205200D01*
G75*
G02*
X86508000Y-58405200I-200000J0D01*
G01*
G37*
G36*
G01*
X86508000Y-60055200D02*
X85958000Y-60055200D01*
G75*
G02*
X85758000Y-59855200I0J200000D01*
G01*
X85758000Y-59455200D01*
G75*
G02*
X85958000Y-59255200I200000J0D01*
G01*
X86508000Y-59255200D01*
G75*
G02*
X86708000Y-59455200I0J-200000D01*
G01*
X86708000Y-59855200D01*
G75*
G02*
X86508000Y-60055200I-200000J0D01*
G01*
G37*
%TD*%
%TO.C,R204*%
G36*
G01*
X91562600Y-58405200D02*
X91012600Y-58405200D01*
G75*
G02*
X90812600Y-58205200I0J200000D01*
G01*
X90812600Y-57805200D01*
G75*
G02*
X91012600Y-57605200I200000J0D01*
G01*
X91562600Y-57605200D01*
G75*
G02*
X91762600Y-57805200I0J-200000D01*
G01*
X91762600Y-58205200D01*
G75*
G02*
X91562600Y-58405200I-200000J0D01*
G01*
G37*
G36*
G01*
X91562600Y-60055200D02*
X91012600Y-60055200D01*
G75*
G02*
X90812600Y-59855200I0J200000D01*
G01*
X90812600Y-59455200D01*
G75*
G02*
X91012600Y-59255200I200000J0D01*
G01*
X91562600Y-59255200D01*
G75*
G02*
X91762600Y-59455200I0J-200000D01*
G01*
X91762600Y-59855200D01*
G75*
G02*
X91562600Y-60055200I-200000J0D01*
G01*
G37*
%TD*%
%TO.C,R205*%
G36*
G01*
X63137600Y-54981000D02*
X63137600Y-54431000D01*
G75*
G02*
X63337600Y-54231000I200000J0D01*
G01*
X63737600Y-54231000D01*
G75*
G02*
X63937600Y-54431000I0J-200000D01*
G01*
X63937600Y-54981000D01*
G75*
G02*
X63737600Y-55181000I-200000J0D01*
G01*
X63337600Y-55181000D01*
G75*
G02*
X63137600Y-54981000I0J200000D01*
G01*
G37*
G36*
G01*
X61487600Y-54981000D02*
X61487600Y-54431000D01*
G75*
G02*
X61687600Y-54231000I200000J0D01*
G01*
X62087600Y-54231000D01*
G75*
G02*
X62287600Y-54431000I0J-200000D01*
G01*
X62287600Y-54981000D01*
G75*
G02*
X62087600Y-55181000I-200000J0D01*
G01*
X61687600Y-55181000D01*
G75*
G02*
X61487600Y-54981000I0J200000D01*
G01*
G37*
%TD*%
%TO.C,R206*%
G36*
G01*
X63163000Y-50815400D02*
X63163000Y-50265400D01*
G75*
G02*
X63363000Y-50065400I200000J0D01*
G01*
X63763000Y-50065400D01*
G75*
G02*
X63963000Y-50265400I0J-200000D01*
G01*
X63963000Y-50815400D01*
G75*
G02*
X63763000Y-51015400I-200000J0D01*
G01*
X63363000Y-51015400D01*
G75*
G02*
X63163000Y-50815400I0J200000D01*
G01*
G37*
G36*
G01*
X61513000Y-50815400D02*
X61513000Y-50265400D01*
G75*
G02*
X61713000Y-50065400I200000J0D01*
G01*
X62113000Y-50065400D01*
G75*
G02*
X62313000Y-50265400I0J-200000D01*
G01*
X62313000Y-50815400D01*
G75*
G02*
X62113000Y-51015400I-200000J0D01*
G01*
X61713000Y-51015400D01*
G75*
G02*
X61513000Y-50815400I0J200000D01*
G01*
G37*
%TD*%
%TO.C,R207*%
G36*
G01*
X81580400Y-44793600D02*
X81030400Y-44793600D01*
G75*
G02*
X80830400Y-44593600I0J200000D01*
G01*
X80830400Y-44193600D01*
G75*
G02*
X81030400Y-43993600I200000J0D01*
G01*
X81580400Y-43993600D01*
G75*
G02*
X81780400Y-44193600I0J-200000D01*
G01*
X81780400Y-44593600D01*
G75*
G02*
X81580400Y-44793600I-200000J0D01*
G01*
G37*
G36*
G01*
X81580400Y-46443600D02*
X81030400Y-46443600D01*
G75*
G02*
X80830400Y-46243600I0J200000D01*
G01*
X80830400Y-45843600D01*
G75*
G02*
X81030400Y-45643600I200000J0D01*
G01*
X81580400Y-45643600D01*
G75*
G02*
X81780400Y-45843600I0J-200000D01*
G01*
X81780400Y-46243600D01*
G75*
G02*
X81580400Y-46443600I-200000J0D01*
G01*
G37*
%TD*%
%TO.C,R301*%
G36*
G01*
X104987000Y-118972400D02*
X104987000Y-119522400D01*
G75*
G02*
X104787000Y-119722400I-200000J0D01*
G01*
X104387000Y-119722400D01*
G75*
G02*
X104187000Y-119522400I0J200000D01*
G01*
X104187000Y-118972400D01*
G75*
G02*
X104387000Y-118772400I200000J0D01*
G01*
X104787000Y-118772400D01*
G75*
G02*
X104987000Y-118972400I0J-200000D01*
G01*
G37*
G36*
G01*
X106637000Y-118972400D02*
X106637000Y-119522400D01*
G75*
G02*
X106437000Y-119722400I-200000J0D01*
G01*
X106037000Y-119722400D01*
G75*
G02*
X105837000Y-119522400I0J200000D01*
G01*
X105837000Y-118972400D01*
G75*
G02*
X106037000Y-118772400I200000J0D01*
G01*
X106437000Y-118772400D01*
G75*
G02*
X106637000Y-118972400I0J-200000D01*
G01*
G37*
%TD*%
%TO.C,R302*%
G36*
G01*
X94547600Y-118870800D02*
X94547600Y-119420800D01*
G75*
G02*
X94347600Y-119620800I-200000J0D01*
G01*
X93947600Y-119620800D01*
G75*
G02*
X93747600Y-119420800I0J200000D01*
G01*
X93747600Y-118870800D01*
G75*
G02*
X93947600Y-118670800I200000J0D01*
G01*
X94347600Y-118670800D01*
G75*
G02*
X94547600Y-118870800I0J-200000D01*
G01*
G37*
G36*
G01*
X96197600Y-118870800D02*
X96197600Y-119420800D01*
G75*
G02*
X95997600Y-119620800I-200000J0D01*
G01*
X95597600Y-119620800D01*
G75*
G02*
X95397600Y-119420800I0J200000D01*
G01*
X95397600Y-118870800D01*
G75*
G02*
X95597600Y-118670800I200000J0D01*
G01*
X95997600Y-118670800D01*
G75*
G02*
X96197600Y-118870800I0J-200000D01*
G01*
G37*
%TD*%
%TO.C,R303*%
G36*
G01*
X83858200Y-118769200D02*
X83858200Y-119319200D01*
G75*
G02*
X83658200Y-119519200I-200000J0D01*
G01*
X83258200Y-119519200D01*
G75*
G02*
X83058200Y-119319200I0J200000D01*
G01*
X83058200Y-118769200D01*
G75*
G02*
X83258200Y-118569200I200000J0D01*
G01*
X83658200Y-118569200D01*
G75*
G02*
X83858200Y-118769200I0J-200000D01*
G01*
G37*
G36*
G01*
X85508200Y-118769200D02*
X85508200Y-119319200D01*
G75*
G02*
X85308200Y-119519200I-200000J0D01*
G01*
X84908200Y-119519200D01*
G75*
G02*
X84708200Y-119319200I0J200000D01*
G01*
X84708200Y-118769200D01*
G75*
G02*
X84908200Y-118569200I200000J0D01*
G01*
X85308200Y-118569200D01*
G75*
G02*
X85508200Y-118769200I0J-200000D01*
G01*
G37*
%TD*%
%TO.C,R304*%
G36*
G01*
X73668800Y-118439000D02*
X73668800Y-118989000D01*
G75*
G02*
X73468800Y-119189000I-200000J0D01*
G01*
X73068800Y-119189000D01*
G75*
G02*
X72868800Y-118989000I0J200000D01*
G01*
X72868800Y-118439000D01*
G75*
G02*
X73068800Y-118239000I200000J0D01*
G01*
X73468800Y-118239000D01*
G75*
G02*
X73668800Y-118439000I0J-200000D01*
G01*
G37*
G36*
G01*
X75318800Y-118439000D02*
X75318800Y-118989000D01*
G75*
G02*
X75118800Y-119189000I-200000J0D01*
G01*
X74718800Y-119189000D01*
G75*
G02*
X74518800Y-118989000I0J200000D01*
G01*
X74518800Y-118439000D01*
G75*
G02*
X74718800Y-118239000I200000J0D01*
G01*
X75118800Y-118239000D01*
G75*
G02*
X75318800Y-118439000I0J-200000D01*
G01*
G37*
%TD*%
M02*
